<?xml version="1.0" encoding="UTF-8" standalone="no"?>
<svg
   xmlns:dc="http://purl.org/dc/elements/1.1/"
   xmlns:cc="http://creativecommons.org/ns#"
   xmlns:rdf="http://www.w3.org/1999/02/22-rdf-syntax-ns#"
   xmlns:svg="http://www.w3.org/2000/svg"
   xmlns="http://www.w3.org/2000/svg"
   xmlns:sodipodi="http://sodipodi.sourceforge.net/DTD/sodipodi-0.dtd"
   xmlns:inkscape="http://www.inkscape.org/namespaces/inkscape"
   height="288"
   width="327"
   version="1.1"
   id="svg10"
   sodipodi:docname="ANAB-certified_white.svg"
   inkscape:version="1.0.2 (e86c870879, 2021-01-15)">
  <metadata
     id="metadata16">
    <rdf:RDF>
      <cc:Work
         rdf:about="">
        <dc:format>image/svg+xml</dc:format>
        <dc:type
           rdf:resource="http://purl.org/dc/dcmitype/StillImage" />
        <dc:title></dc:title>
      </cc:Work>
    </rdf:RDF>
  </metadata>
  <defs
     id="defs14" />
  <sodipodi:namedview
     pagecolor="#ffffff"
     bordercolor="#666666"
     borderopacity="1"
     objecttolerance="10"
     gridtolerance="10"
     guidetolerance="10"
     inkscape:pageopacity="0"
     inkscape:pageshadow="2"
     inkscape:window-width="1366"
     inkscape:window-height="704"
     id="namedview12"
     showgrid="false"
     inkscape:zoom="0.7305093"
     inkscape:cx="35.754205"
     inkscape:cy="169.91084"
     inkscape:window-x="0"
     inkscape:window-y="0"
     inkscape:window-maximized="1"
     inkscape:current-layer="g8" />
  <g
     fill="#231f20"
     id="g8">
    <path
       d="M 96.6875,228.815 H 0.3085 v -2.364 h 96.378 v 2.364 m 230.005,0 h -90.826 v -2.364 h 90.826 v 2.364 m -126.6,-5.545 c -2.212,0 -3.232,1.53 -3.232,3.232 v 3.232 c 0,1.681 1.02,3.23 3.232,3.23 2.21,0 3.232,-1.549 3.232,-3.23 v -3.232 c 0,-1.701 -1.022,-3.232 -3.232,-3.232 m -71.499,0.036 c -2.305,0 -3.516,1.532 -3.516,3.404 v 2.779 c 0,1.869 1.21,3.418 3.516,3.418 2.307,0 3.516,-1.549 3.516,-3.418 v -2.779 c 0,-1.872 -1.21,-3.404 -3.516,-3.404"
       id="path2"
       style="fill:#ffffff;fill-opacity:1" />
    <path
       d="m 221.8005,234.402 h -2.117 v -11.55 c 0.793,0 1.096,-0.47 1.096,-1.038 h 1.021 z m -4.92,-1.89 v 1.89 h -9.545 v -0.719 c 0,-5.233 7.504,-5.669 7.504,-8.41 0,-1.058 -0.851,-2.06 -2.608,-2.06 -1.55,0 -2.382,0.737 -3.251,1.984 l -1.512,-1.096 c 0.983,-1.587 2.532,-2.683 4.781,-2.683 3.1,0 4.668,1.833 4.668,3.779 0,3.554 -6.122,4.216 -7.294,7.314 z m -11.46,-2.797 c 0,2.722 -1.947,5.102 -5.33,5.102 -3.402,0 -5.349,-2.38 -5.349,-5.102 v -3.177 c 0,-2.74 1.947,-5.101 5.35,-5.101 3.382,0 5.329,2.361 5.329,5.101 z m -12.063,-6.388 c -3.118,3.232 -5.104,6.727 -5.67,11.075 h -2.25 c 0.379,-3.497 2.647,-7.957 5.614,-10.736 h -7.636 v -1.852 h 9.942 z m -12.533,11.075 h -2.117 v -11.55 c 0.793,0 1.096,-0.47 1.096,-1.038 h 1.021 z m -14.75,-1.495 c 1.737,0 2.927,-0.98 3.533,-2.342 l 1.796,0.812 c -0.738,1.74 -2.59,3.421 -5.444,3.421 -3.78,0 -5.859,-2.495 -5.859,-5.517 v -2.27 c 0,-3.06 2.192,-5.593 5.935,-5.593 2.721,0 4.705,1.683 5.368,3.383 l -1.834,0.813 c -0.605,-1.19 -1.758,-2.308 -3.573,-2.308 -2.419,0 -3.704,1.532 -3.704,3.63 v 2.42 c 0,2.042 1.323,3.551 3.781,3.551 z m -7.795,-9.202 h -6.938 v 3.268 h 5.218 v 1.797 h -5.218 v 3.741 h 6.938 v 1.891 h -9.111 v -12.588 h 9.11 z m -12.099,10.697 h -2.175 v -12.588 h 2.175 z m -9,1.87 h -1.475 l 5.084,-15.648 h 1.455 z m -2.88,-6.805 c 0,2.836 -2.06,5.331 -5.708,5.331 -3.648,0 -5.708,-2.495 -5.708,-5.33 v -2.74 c 0,-2.854 2.06,-5.31 5.708,-5.31 3.648,0 5.708,2.456 5.708,5.31 z m -13.273,1.42 c 0,2.287 -2.118,3.911 -5.199,3.911 -2.21,0 -3.93,-0.83 -5.65,-2.23 l 1.398,-1.569 c 1.683,1.38 2.93,1.908 4.688,1.908 1.72,0 2.57,-0.773 2.57,-1.833 0,-2.796 -8.165,-1.359 -8.165,-5.838 0,-2.135 1.947,-3.818 5.14,-3.818 2.344,0 4.235,0.945 5.274,2.475 l -1.511,1.268 c -0.927,-1.08 -2.25,-1.855 -3.763,-1.855 -1.738,0 -2.966,0.661 -2.966,1.721 0,2.514 8.184,1.55 8.184,5.86 z m -12.95,3.515 h -2.173 v -12.588 h 2.173 z m -30.369,-17.4 v 21.456 h 171.583 V 217.002 H 77.7085 m -36.686,46.612 v -11.612 l -0.741,1.908 -4.313,9.704 h -1.864 l -4.268,-9.704 -0.74,-1.908 v 11.612 h -2.426 v -14.961 h 3.593 l 4.156,9.838 0.696,1.841 0.696,-1.818 4.11,-9.861 h 3.572 v 14.961 h -2.471 m 11.652,-11.882 -2.336,6.085 h 4.74 z m 4.672,11.882 -1.46,-3.773 h -6.312 l -1.415,3.773 h -2.65 l 6.019,-14.961 h 2.425 l 6.11,14.961 h -2.717 m 15.472,0 -7.009,-8.896 -1.236,-1.707 v 10.603 h -2.516 v -14.961 h 2.27 l 6.805,8.964 1.213,1.684 v -10.649 h 2.516 v 14.961 h -2.044 m 11.226,-11.881 -2.336,6.085 h 4.738 z m 4.672,11.882 -1.46,-3.773 h -6.312 l -1.415,3.773 h -2.65 l 6.02,-14.961 h 2.426 l 6.11,14.961 h -2.72 m 15.427,0 -0.428,-1.753 c -1.009,1.37 -2.626,2.224 -4.67,2.224 -4.268,0 -6.627,-2.943 -6.627,-6.536 v -2.72 c 0,-3.614 2.63,-6.648 7.03,-6.648 3.325,0 5.077,1.485 6.267,3.797 l -2.156,1.146 c -0.832,-1.529 -2.089,-2.695 -4.11,-2.695 -2.943,0 -4.426,1.91 -4.426,4.221 v 2.987 c 0,2.36 1.551,4.201 4.336,4.201 2.246,0 3.684,-1.55 3.684,-3.414 v -0.56 h -3.482 v -2.113 h 6.109 v 7.863 h -1.527 m 4.623,0 v -14.961 h 10.827 v 2.248 h -8.244 v 3.885 h 6.198 v 2.132 h -6.198 v 4.448 h 8.244 v 2.248 h -10.827 m 28.004,0 v -11.612 l -0.74,1.908 -4.313,9.704 h -1.864 l -4.268,-9.704 -0.742,-1.908 v 11.612 h -2.425 v -14.961 h 3.593 l 4.156,9.838 0.696,1.841 0.696,-1.818 4.111,-9.861 h 3.572 v 14.961 h -2.472 m 6.015,0 v -14.961 h 10.825 v 2.248 h -8.243 v 3.885 h 6.2 v 2.132 h -6.2 v 4.448 h 8.243 v 2.248 h -10.825 m 24.41,0 -7.008,-8.896 -1.234,-1.707 v 10.603 h -2.516 v -14.961 h 2.269 l 6.805,8.964 1.212,1.684 v -10.649 h 2.516 v 14.961 h -2.044 m 12.26,-12.712 v 12.713 h -2.582 v -12.712 h -5.1 v -2.248 h 12.78 v 2.248 h -5.098 m 19.132,13.183 c -2.628,0 -4.672,-0.99 -6.716,-2.651 l 1.662,-1.865 c 2,1.641 3.481,2.27 5.57,2.27 2.044,0 3.055,-0.921 3.055,-2.178 0,-3.325 -9.703,-1.618 -9.703,-6.94 0,-2.54 2.314,-4.54 6.11,-4.54 2.785,0 5.03,1.125 6.265,2.943 l -1.796,1.505 c -1.1,-1.282 -2.673,-2.2 -4.47,-2.2 -2.066,0 -3.526,0.786 -3.526,2.044 0,2.986 9.725,1.841 9.725,6.961 0,2.719 -2.516,4.65 -6.176,4.65 m 15.696,-6.492 v 6.022 h -2.582 v -6.043 l -5.908,-8.918 h 2.965 l 4.335,6.896 4.154,-6.896 h 2.854 l -5.818,8.94 m 13.024,6.492 c -2.628,0 -4.672,-0.99 -6.716,-2.651 l 1.663,-1.865 c 1.999,1.641 3.481,2.27 5.57,2.27 2.045,0 3.055,-0.921 3.055,-2.178 0,-3.325 -9.704,-1.618 -9.704,-6.94 0,-2.54 2.315,-4.54 6.11,-4.54 2.785,0 5.032,1.125 6.266,2.943 l -1.796,1.505 c -1.101,-1.282 -2.673,-2.2 -4.47,-2.2 -2.067,0 -3.526,0.786 -3.526,2.044 0,2.986 9.726,1.841 9.726,6.961 0,2.719 -2.516,4.65 -6.178,4.65 m 15.498,-13.183 v 12.713 h -2.584 v -12.712 h -5.098 v -2.248 h 12.78 v 2.248 h -5.098 m 7.632,12.712 v -14.961 h 10.828 v 2.248 h -8.244 v 3.885 h 6.198 v 2.132 h -6.198 v 4.448 h 8.244 v 2.248 h -10.828 m 28.005,0 v -11.612 l -0.74,1.908 -4.313,9.704 h -1.864 l -4.268,-9.704 -0.742,-1.908 v 11.612 h -2.425 v -14.961 h 3.593 l 4.156,9.838 0.696,1.841 0.696,-1.818 4.111,-9.861 h 3.57 v 14.961 h -2.47 m 11.675,0.471 c -2.628,0 -4.672,-0.99 -6.716,-2.651 l 1.662,-1.865 c 1.999,1.641 3.482,2.27 5.57,2.27 2.044,0 3.054,-0.921 3.054,-2.178 0,-3.325 -9.702,-1.618 -9.702,-6.94 0,-2.54 2.313,-4.54 6.109,-4.54 2.785,0 5.032,1.125 6.267,2.943 l -1.798,1.505 c -1.1,-1.282 -2.672,-2.2 -4.469,-2.2 -2.067,0 -3.527,0.786 -3.527,2.044 0,2.986 9.727,1.841 9.727,6.961 0,2.719 -2.516,4.65 -6.177,4.65 m -229.727,12.962 c -0.719,-1.415 -2.088,-2.74 -4.245,-2.74 -2.874,0 -4.402,1.818 -4.402,4.313 v 2.875 c 0,2.424 1.573,4.221 4.493,4.221 2.066,0 3.48,-1.166 4.2,-2.784 l 2.134,0.967 c -0.876,2.064 -3.077,4.064 -6.47,4.064 -4.491,0 -6.962,-2.965 -6.962,-6.56 v -2.695 c 0,-3.638 2.605,-6.648 7.052,-6.648 3.235,0 5.593,2 6.38,4.02 l -2.18,0.967 m 4.624,10.446 V 272.53 h 10.825 v 2.248 h -8.242 v 3.885 h 6.2 v 2.132 h -6.2 v 4.448 h 8.242 v 2.248 h -10.825 m 22.884,-10.893 c 0,-1.013 -0.63,-1.888 -2.45,-1.888 h -4.2 v 4.628 h 4.2 c 1.64,0 2.45,-0.83 2.45,-2.068 z m 1.91,10.981 c -1.371,0 -1.887,-0.806 -1.933,-2.336 l -0.045,-1.976 c -0.045,-1.325 -0.607,-2.021 -2.65,-2.021 h -3.931 v 6.245 h -2.583 V 272.53 h 6.581 c 3.728,0 5.279,1.641 5.279,3.91 v 0.494 c 0,1.64 -0.719,2.898 -3.033,3.323 2.292,0.202 2.965,1.529 2.965,3.055 l 0.023,1.753 c 0,0.74 0.202,1.189 0.83,1.572 v 0.942 h -1.504 m 10.528,-12.801 v 12.713 h -2.582 v -12.713 h -5.099 v -2.248 h 12.78 v 2.248 h -5.099 m 7.634,12.714 V 272.53 h 2.582 v 14.961 h -2.581 m 8.712,-12.713 v 4.29 h 6.087 v 2.156 h -6.087 v 6.267 h -2.583 V 272.53 h 10.668 v 2.248 h -8.085 m 10.598,12.714 V 272.53 h 2.582 v 14.961 h -2.583 m 16.823,-10.445 c -0.72,-1.415 -2.09,-2.74 -4.247,-2.74 -2.874,0 -4.401,1.818 -4.401,4.313 v 2.875 c 0,2.424 1.572,4.221 4.492,4.221 2.067,0 3.481,-1.166 4.2,-2.784 l 2.133,0.967 c -0.876,2.064 -3.076,4.064 -6.468,4.064 -4.492,0 -6.962,-2.965 -6.962,-6.56 v -2.695 c 0,-3.638 2.605,-6.648 7.052,-6.648 3.234,0 5.592,2 6.378,4.02 l -2.177,0.967 m 10.26,-1.438 -2.336,6.086 h 4.74 z m 4.672,11.883 -1.46,-3.773 h -6.312 l -1.415,3.773 h -2.65 l 6.018,-14.961 h 2.427 l 6.11,14.961 h -2.718 m 10.106,-12.713 v 12.713 h -2.583 v -12.713 h -5.099 v -2.248 h 12.78 v 2.248 h -5.099 m 7.634,12.714 V 272.53 h 2.582 v 14.961 h -2.582 m 16.529,-9.144 c 0,-2.223 -1.437,-4.041 -4.177,-4.041 -2.74,0 -4.178,1.818 -4.178,4.041 v 3.303 c 0,2.224 1.438,4.065 4.178,4.065 2.74,0 4.177,-1.84 4.177,-4.065 z m -4.177,9.615 c -4.335,0 -6.783,-2.965 -6.783,-6.333 v -3.258 c 0,-3.39 2.448,-6.312 6.783,-6.312 4.334,0 6.784,2.922 6.784,6.312 v 3.258 c 0,3.368 -2.45,6.333 -6.784,6.333 m 20.525,-0.47 -7.008,-8.897 -1.236,-1.705 v 10.601 h -2.516 V 272.53 h 2.27 l 6.805,8.964 1.213,1.684 V 272.53 h 2.516 v 14.961 h -2.044 m 20.792,-4.539 c 0,-1.211 -0.74,-1.997 -2.403,-1.997 h -4.357 v 4.4 h 4.56 c 1.639,0 2.2,-0.83 2.2,-1.864 z m -0.067,-6.378 c 0,-1.033 -0.561,-1.864 -2.201,-1.864 h -4.492 v 4.336 h 4.29 c 1.64,0 2.403,-0.81 2.403,-2 z m -2.201,10.917 h -7.097 V 272.53 h 6.985 c 3.347,0 4.828,1.53 4.828,3.797 v 0.359 c 0,1.685 -0.897,2.876 -2.672,3.212 2.044,0.338 2.897,1.684 2.897,3.121 v 0.607 c 0,2.316 -1.617,3.865 -4.941,3.865 m 18.301,-9.144 c 0,-2.223 -1.437,-4.041 -4.177,-4.041 -2.74,0 -4.177,1.818 -4.177,4.041 v 3.303 c 0,2.224 1.437,4.065 4.177,4.065 2.74,0 4.177,-1.84 4.177,-4.065 z m -4.177,9.615 c -4.335,0 -6.783,-2.965 -6.783,-6.333 v -3.258 c 0,-3.39 2.448,-6.312 6.783,-6.312 4.335,0 6.783,2.922 6.783,6.312 v 3.258 c 0,3.368 -2.448,6.333 -6.783,6.333 m 20.097,-9.455 c 0,-2.224 -1.526,-3.73 -4.2,-3.73 h -3.548 v 10.466 h 3.548 c 2.674,0 4.2,-1.505 4.2,-3.729 z m -4.065,8.984 h -6.267 V 272.53 h 6.267 c 4.245,0 6.65,2.607 6.65,5.841 v 3.303 c 0,3.21 -2.405,5.817 -6.65,5.817 m 15.899,-6.021 v 6.021 h -2.583 v -6.04 l -5.907,-8.921 h 2.964 l 4.336,6.896 4.155,-6.896 h 2.853 l -5.818,8.94 m -261.377,-94.118 -3.514,6.785 h 7.148 z m 6.954,12.989 -2.132,-4 h -9.474 l -2.06,4 h -3.2 l 8.724,-16.139 h 2.52 l 8.87,16.139 h -3.248 m 35.321,-11.583 c -1.453,-1.333 -3.586,-2.592 -6.47,-2.592 -4.313,0 -6.735,2.956 -6.735,6.032 v 0.315 c 0,3.054 2.447,5.913 6.953,5.913 2.69,0 4.92,-1.284 6.325,-2.592 l 1.817,1.913 c -1.768,1.746 -4.773,3.223 -8.335,3.223 -6.107,0 -9.814,-3.973 -9.814,-8.336 v -0.532 c 0,-4.363 4.047,-8.48 9.96,-8.48 3.416,0 6.517,1.428 8.19,3.223 l -1.89,1.913 m 35.609,0 c -1.455,-1.333 -3.587,-2.592 -6.471,-2.592 -4.313,0 -6.736,2.956 -6.736,6.032 v 0.315 c 0,3.054 2.448,5.913 6.955,5.913 2.689,0 4.918,-1.284 6.324,-2.592 l 1.817,1.913 c -1.77,1.746 -4.773,3.223 -8.335,3.223 -6.106,0 -9.814,-3.973 -9.814,-8.336 v -0.532 c 0,-4.363 4.046,-8.48 9.958,-8.48 3.418,0 6.519,1.428 8.191,3.223 l -1.89,1.913 m 33.089,0.266 c 0,-1.163 -0.944,-2.3 -3.538,-2.3 h -6.202 v 4.843 h 6.469 c 2.23,0 3.27,-1.064 3.27,-2.35 z m 1.138,11.317 c -0.822,0 -1.186,-1.14 -1.282,-2.594 l -0.098,-1.648 c -0.097,-1.598 -0.752,-2.277 -3.78,-2.277 h -5.718 v 6.519 h -3.03 v -16.139 h 8.796 c 4.847,0 7.027,1.939 7.027,4.435 0,1.768 -0.896,3.44 -4.047,4.022 3.151,0.242 3.83,1.672 3.854,3.561 l 0.024,1.334 c 0.024,1.115 0.218,1.913 0.993,2.713 v 0.074 h -2.739 m 21.194,0 v -16.139 h 14.66 v 2.522 h -11.632 v 4.142 h 8.942 v 2.447 h -8.942 v 4.507 h 11.632 v 2.52 h -14.66 m 48.016,-8.263 c 0,-3.124 -2.448,-5.353 -6.398,-5.353 h -5.161 v 11.145 h 5.161 c 3.95,0 6.398,-2.278 6.398,-5.404 z m -6.324,8.264 h -8.263 v -16.139 h 8.263 c 5.718,0 9.353,3.465 9.353,7.827 v 0.533 c 0,4.288 -3.635,7.779 -9.353,7.779 m 28.001,0 v -16.139 h 3.028 v 16.139 h -3.028 m 31.759,-13.617 v 13.617 h -3.028 v -13.617 h -7.052 v -2.522 h 17.132 v 2.522 h -7.052 m 25.7,13.617 v -16.139 h 14.658 v 2.522 h -11.63 v 4.142 h 8.941 v 2.447 h -8.941 v 4.507 h 11.63 v 2.52 h -14.657 m 48.015,-8.263 c 0,-3.124 -2.447,-5.353 -6.396,-5.353 h -5.163 v 11.145 h 5.163 c 3.949,0 6.396,-2.278 6.396,-5.404 z m -6.324,8.264 h -8.263 v -16.139 h 8.263 c 5.718,0 9.353,3.465 9.353,7.827 v 0.533 c 0,4.288 -3.635,7.779 -9.353,7.779 M 178.0405,84.392 c -0.23,-0.37 -0.463,-0.842 -0.517,-1.317 -0.11,-0.997 -0.076,-2.517 -0.076,-2.517 0,0 -0.792,1.196 -1.478,1.927 -0.358,0.377 -0.882,0.72 -1.305,0.964 a 79.758,79.758 0 0 0 -2.879,-0.68 c -0.256,-0.35 -0.524,-0.802 -0.616,-1.271 -0.185,-0.985 -0.27,-2.503 -0.27,-2.503 0,0 -0.694,1.255 -1.318,2.039 -0.326,0.404 -0.821,0.787 -1.222,1.064 a 79.843,79.843 0 0 0 -2.91,-0.45 c -0.282,-0.329 -0.584,-0.758 -0.712,-1.218 -0.261,-0.97 -0.462,-2.475 -0.464,-2.475 0,0 -0.592,1.306 -1.15,2.136 -0.294,0.428 -0.755,0.851 -1.132,1.158 a 82.898,82.898 0 0 0 -2.932,-0.223 c -0.306,-0.304 -0.639,-0.708 -0.802,-1.156 -0.336,-0.945 -0.654,-2.43 -0.656,-2.43 0,0 -0.486,1.347 -0.977,2.22 -0.259,0.45 -0.685,0.905 -1.037,1.24 a 80.186,80.186 0 0 0 -2.943,0.007 c -0.327,-0.278 -0.69,-0.657 -0.885,-1.088 -0.408,-0.916 -0.843,-2.372 -0.843,-2.372 0,0 -0.38,1.383 -0.803,2.29 -0.221,0.469 -0.61,0.954 -0.934,1.317 -0.98,0.063 -1.958,0.143 -2.935,0.24 -0.35,-0.252 -0.741,-0.6 -0.97,-1.017 -0.48,-0.88 -1.029,-2.298 -1.029,-2.298 -0.001,0 -0.272,1.408 -0.621,2.346 -0.185,0.485 -0.536,1 -0.832,1.386 -0.972,0.139 -1.943,0.299 -2.91,0.472 -0.37,-0.224 -0.79,-0.541 -1.053,-0.938 -0.548,-0.84 -1.206,-2.21 -1.206,-2.21 0,0 -0.162,1.424 -0.439,2.387 -0.148,0.5 -0.459,1.043 -0.725,1.452 a 79.74,79.74 0 0 0 -2.874,0.699 c -0.388,-0.194 -0.833,-0.476 -1.128,-0.851 -0.613,-0.795 -1.38,-2.108 -1.38,-2.108 -10e-4,10e-4 -0.05,1.435 -0.253,2.416 -0.11,0.51 -0.379,1.077 -0.612,1.507 a 79.12,79.12 0 0 0 -2.37,0.766 l 3.227,9.428 c 7.55,-2.585 15.422,-3.549 23.292,-3.549 7.872,0 15.744,0.964 23.294,3.55 l 3.226,-9.429 a 78.137,78.137 0 0 0 -2.841,-0.912"
       id="path4"
       style="fill:#ffffff;fill-opacity:1" />
    <path
       d="m 158.5245,41.078 c 2.98,15.844 -15.763,11.339 -14.833,33.23 -12.576,-24.675 10.721,-20.417 14.833,-33.23 z m -27.168,37.659 0.728,-0.223 0.661,1.127 c 0.123,0.208 0.724,1.22 1.2,1.846 0.42,-0.105 0.842,-0.208 1.263,-0.308 a 1.97,1.97 0 0 0 0.124,-0.305 c 0.157,-0.545 0.296,-1.419 0.37,-2.05 l 0.147,-1.287 0.92,-0.2 c 0.426,-0.092 0.851,-0.186 1.279,-0.27 l 0.763,-0.149 0.573,1.33 c 0.276,0.563 0.699,1.373 1.024,1.883 0.423,-0.07 0.845,-0.14 1.267,-0.205 0.088,-0.15 0.129,-0.248 0.146,-0.292 0.16,-0.43 0.363,-1.203 0.527,-2.01 l 0.263,-1.3 1.193,-0.15 c 0.327,-0.043 0.653,-0.085 0.981,-0.119 h 0.662 l 0.36,0.612 0.24,0.616 c 0.052,0.134 0.504,1.283 0.886,2.006 0.423,-0.038 0.847,-0.072 1.271,-0.103 0.092,-0.133 0.14,-0.224 0.165,-0.276 0.238,-0.512 0.518,-1.383 0.684,-1.972 l 0.347,-1.235 c 0,0 1.85,-0.077 2.235,-0.088 l 0.733,-0.02 0.399,1.308 c 0.097,0.316 0.429,1.376 0.725,2.06 0.255,-0.002 1.27,0 1.27,0 0.107,-0.134 0.162,-0.222 0.186,-0.262 0.397,-0.706 0.833,-1.903 0.837,-1.915 l 0.431,-1.19 0.693,0.017 c 0.51,0.012 1.019,0.033 1.53,0.053 l 0.736,0.03 0.313,1.331 c 0.052,0.236 0.31,1.38 0.565,2.127 0.423,0.03 0.846,0.061 1.267,0.097 a 2.02,2.02 0 0 0 0.208,-0.249 c 0.319,-0.472 0.717,-1.26 0.984,-1.84 l 0.544,-1.197 0.69,0.072 a 38.6,38.6 0 0 1 1.038,0.124 l 1.197,0.145 0.206,1.388 c 0.089,0.643 0.244,1.57 0.397,2.164 0.421,0.063 0.844,0.128 1.265,0.196 0.131,-0.117 0.2,-0.195 0.23,-0.233 0.432,-0.544 0.972,-1.48 1.126,-1.754 l 0.614,-1.17 0.705,0.137 c 0.397,0.079 0.792,0.164 1.188,0.25 l 1.037,0.226 0.078,1.377 c 0.02,0.348 0.101,1.467 0.228,2.186 0.421,0.097 0.842,0.196 1.264,0.3 0.132,-0.102 0.209,-0.175 0.25,-0.218 0.39,-0.416 0.927,-1.157 1.267,-1.662 l 0.627,-1.031 0.714,0.215 c 0.384,0.116 0.767,0.238 1.15,0.361 3.434,-7.025 2.753,-16.347 -0.28,-24.052 0,0 1.832,10.61 -7.819,14.907 3.225,-10.826 -3.157,-14.559 -3.795,-15.844 7.198,-6.722 18.491,-17.503 3.131,-54.011 0,0 4.695,23.096 -6.016,32.77 -10.71,9.675 -35.496,15.349 -35.496,34.686 0.177,4.943 1.005,8.697 2.247,11.575 0.352,-0.112 0.704,-0.226 1.057,-0.332 m 164.673,48.72 c 0,3.762 -2.172,5.644 -7.448,5.644 h -10.86 v -12.284 h 10.86 c 5.276,0 7.448,1.77 7.448,5.533 z m 0,22.686 c 0,3.763 -2.172,5.532 -7.448,5.532 h -10.86 v -12.282 h 10.86 c 5.276,0 7.448,1.77 7.448,5.533 z m -97.017,-3.43 7.139,-20.806 6.309,20.806 z m -36.437,22.226 -0.002,0.002 v 0.008 c -0.038,0.726 -0.538,1.271 -1.122,1.228 -0.583,-0.045 -1.04,-0.66 -1.023,-1.388 v -0.012 c -0.079,-1.032 3.844,-61.306 3.844,-61.306 0,0 -1.17,41.463 -1.699,61.466 z m -3.848,-0.036 v 0.01 h -0.002 c -0.018,0.728 -0.505,1.297 -1.089,1.282 -0.584,-0.014 -1.056,-0.608 -1.057,-1.336 v -0.008 -0.004 c -0.104,-1.027 1.688,-67.785 1.806,-67.78 0,0 0.37,47.816 0.342,67.834 z m -3.851,-0.044 c -0.001,0.728 -0.473,1.322 -1.057,1.336 -0.584,0.015 -1.071,-0.554 -1.09,-1.282 h -0.001 v -0.01 -0.002 c -0.13,-1.022 0.185,-67.832 0.305,-67.832 0,0 1.37,47.773 1.843,67.777 z m -3.861,-0.07 c 0.016,0.728 -0.44,1.343 -1.024,1.388 -0.584,0.043 -1.084,-0.502 -1.122,-1.228 h -10e-4 v -0.012 c -0.155,-1.013 -2.427,-61.463 -2.427,-61.463 0,0 3.599,41.332 4.574,61.301 z m -113.66,-22.076 7.137,-20.806 6.31,20.806 z m 270.982,-8.632 c 9.414,-1.992 14.586,-9.407 14.586,-16.047 v -0.885 c 0,-12.504 -9.826,-19.919 -26.066,-19.919 h -46.857 v 71.533 l -27.508,-71.533 h -29.79 l -26.778,70.41 4.296,-64.92 c 6.11,-1.39 10.047,-3.543 10.047,-5.966 0,-4.192 -11.746,-7.59 -26.234,-7.59 -14.489,0 -26.234,3.398 -26.234,7.59 0,2.66 4.737,4.997 11.894,6.352 l 2.868,25.427 0.628,6.632 -2.714,-3.187 -4.654,-5.755 -23.998,-28.993 h -23.48 v 71.533 L 60.8355,101.23 h -29.79 l -28.03,73.702 h 24.205 l 4.447,-12.173 h 24.1 l 3.931,12.173 h 54.092 v -34.638 l 4.758,5.865 24.1,28.773 h 46.229 l 4.447,-12.173 h 24.101 l 3.93,12.173 h 76.433 c 16.241,0 25.964,-7.414 25.964,-19.92 v -1.217 c 0,-6.75 -5.172,-13.833 -15.414,-15.714"
       id="path6"
       style="fill:#ffffff;fill-opacity:1" />
  </g>
</svg>
