<?xml version="1.0" encoding="UTF-8" standalone="no"?>
<svg
   xmlns:dc="http://purl.org/dc/elements/1.1/"
   xmlns:cc="http://creativecommons.org/ns#"
   xmlns:rdf="http://www.w3.org/1999/02/22-rdf-syntax-ns#"
   xmlns:svg="http://www.w3.org/2000/svg"
   xmlns="http://www.w3.org/2000/svg"
   xmlns:sodipodi="http://sodipodi.sourceforge.net/DTD/sodipodi-0.dtd"
   xmlns:inkscape="http://www.inkscape.org/namespaces/inkscape"
   version="1.1"
   id="Layer_1"
   x="0px"
   y="0px"
   viewBox="0 0 2246 454"
   xml:space="preserve"
   sodipodi:docname="logo_sans_ring.svg"
   width="2246"
   height="454"
   inkscape:version="1.0.2 (e86c870879, 2021-01-15)"><metadata
   id="metadata115"><rdf:RDF><cc:Work
       rdf:about=""><dc:format>image/svg+xml</dc:format><dc:type
         rdf:resource="http://purl.org/dc/dcmitype/StillImage" /><dc:title></dc:title></cc:Work></rdf:RDF></metadata><defs
   id="defs113" /><sodipodi:namedview
   pagecolor="#ffffff"
   bordercolor="#666666"
   borderopacity="1"
   objecttolerance="10"
   gridtolerance="10"
   guidetolerance="10"
   inkscape:pageopacity="0"
   inkscape:pageshadow="2"
   inkscape:window-width="1366"
   inkscape:window-height="704"
   id="namedview111"
   showgrid="false"
   inkscape:zoom="0.25"
   inkscape:cx="1500"
   inkscape:cy="1000"
   inkscape:window-x="0"
   inkscape:window-y="0"
   inkscape:window-maximized="1"
   inkscape:current-layer="Layer_1" />
<style
   type="text/css"
   id="style2">
	.st0{fill:#1D376B;}
</style>





































<g
   id="g989"
   transform="translate(-379.11366,-799.63794)"><path
     class="st0"
     d="m 2024.91,974.97 c 7.92,2.03 15.15,4.07 21.34,8.62 7.36,5.4 11.72,12.27 11.44,21.76 -0.22,7.22 -0.41,14.47 0.03,21.67 0.99,16.21 -6.91,27.09 -20.09,35.07 -13.93,8.43 -29.29,11.84 -45.3,13.15 -5.47,0.45 -10.93,0.36 -16.4,0.36 -58.66,0.01 -117.32,0.02 -175.98,-0.01 -5.72,0 -11.44,-0.34 -17.15,-0.33 -2.02,0 -2.68,-0.69 -2.44,-2.58 0.08,-0.61 0.01,-1.24 0.01,-1.87 0,-62.4 0.03,-124.79 -0.08,-187.19 -0.01,-3.4 0.83,-4.26 4.24,-4.25 62.02,0.11 124.05,-0.1 186.07,0.19 18.7,0.09 36.91,3.43 52.82,14.24 8.56,5.82 15.79,12.93 18.08,23.64 0.49,2.28 0.71,4.66 0.78,7 0.23,8.33 -0.23,16.66 0.39,24.99 0.66,8.84 -3.17,15.63 -10.22,20.72 -2.21,1.58 -4.59,2.94 -7.54,4.82 z m -105.93,56.54 c 24.52,0 49.04,-0.05 73.55,0.06 2.73,0.01 3.62,-0.56 3.55,-3.44 -0.21,-8.58 -0.12,-17.17 -0.04,-25.76 0.02,-2.07 -0.24,-3.07 -2.77,-3.06 -49.41,0.08 -98.82,0.07 -148.22,0.02 -2.09,0 -2.73,0.54 -2.7,2.67 0.12,8.71 0.18,17.43 -0.03,26.13 -0.07,2.83 0.71,3.46 3.48,3.45 24.39,-0.12 48.79,-0.07 73.18,-0.07 z m -7.47,-76.23 c 22.03,0 44.07,-0.04 66.1,0.05 2.37,0.01 3.16,-0.52 3.12,-3.03 -0.16,-8.84 -0.13,-17.68 -0.02,-26.51 0.03,-2.11 -0.57,-2.7 -2.69,-2.69 -44.32,0.06 -88.63,0.07 -132.95,-0.02 -2.55,-0.01 -2.74,0.99 -2.72,3.04 0.09,8.59 0.16,17.18 -0.03,25.77 -0.07,2.79 0.66,3.48 3.46,3.47 21.91,-0.14 43.82,-0.08 65.73,-0.08 z"
     id="path10" /><path
     class="st0"
     d="m 861.85,995.61 c 0,15.57 0,30.12 0,44.66 0,6.97 -0.32,13.97 0.08,20.92 0.48,8.28 -3.1,14.62 -8.46,20.32 -9.59,10.19 -21.72,16.44 -34.36,21.83 -24.03,10.23 -49.35,15.7 -74.95,20.04 -27.28,4.62 -54.8,7.23 -82.4,8.97 -20.45,1.29 -40.94,2.23 -61.44,1.88 -45.71,-0.78 -90.88,-5.63 -134.77,-19.08 -24.52,-7.51 -47.81,-17.68 -69.42,-31.85 -10.81,-7.09 -13.46,-17.12 -14.82,-28.43 -2.28,-18.94 -2.21,-37.94 -1.51,-56.96 0.26,-7.07 0.54,-14.15 0.73,-21.23 0.04,-1.63 0.25,-3.17 0.94,-5.51 2.09,5.89 3.76,11.15 6.46,15.98 8.45,15.11 21.49,25.2 36.47,33.04 21.79,11.4 45.31,17.45 69.33,21.79 22.25,4.02 44.7,6.13 67.25,7.57 25.98,1.66 51.97,1.72 77.95,1.3 27.79,-0.45 55.54,-2.24 83.12,-5.9 35.65,-4.74 70.78,-11.66 103.93,-26.24 12.85,-5.66 25.13,-12.36 35.87,-23.1 z"
     id="path12" /><path
     class="st0"
     d="m 1608.18,1075.6 c -30.26,0 -60.53,0.22 -90.79,-0.09 -17.58,-0.18 -32.63,-6.24 -42.59,-21.67 -6.03,-9.34 -8.84,-19.9 -10.53,-30.75 -3.75,-24.09 -2.75,-48.34 -2.26,-72.56 0.27,-13.57 1.6,-26.98 5.99,-39.94 6.23,-18.39 20.39,-29.38 39.84,-30.78 3.47,-0.25 6.95,-0.36 10.43,-0.36 59.91,-0.02 119.81,-0.02 179.72,-0.01 6.01,0 11.92,0.8 17.62,2.63 12.87,4.13 20.2,13.37 23.66,26.1 2.33,8.56 3.23,17.33 3.28,26.14 0.07,14.43 -0.14,28.87 -0.14,43.3 0,14.31 0.24,28.63 0.14,42.94 -0.07,9.68 -1.1,19.29 -4,28.64 -4.78,15.37 -15.56,23.34 -31.05,25.66 -3.93,0.59 -7.89,0.79 -11.88,0.78 -29.16,-0.05 -58.3,-0.03 -87.44,-0.03 z m -1.98,-44.09 c 22.28,0 44.56,-0.05 66.85,0.06 2.7,0.01 3.53,-0.51 3.52,-3.4 -0.12,-33.86 -0.11,-67.72 -0.01,-101.58 0.01,-2.67 -0.46,-3.54 -3.38,-3.53 -44.44,0.11 -88.88,0.1 -133.32,0.02 -2.66,0 -3.6,0.46 -3.59,3.4 0.12,33.86 0.11,67.72 0.01,101.58 -0.01,2.72 0.58,3.55 3.46,3.53 22.14,-0.14 44.3,-0.08 66.46,-0.08 z"
     id="path14" /><path
     class="st0"
     d="m 1056.48,883.18 c 35.63,0 65.02,-0.01 94.41,0.01 13.85,0.01 31.06,12.9 34.98,26.14 1.34,4.53 1.08,5.09 -3.38,6.17 -11.3,2.72 -22.85,3.59 -34.38,3.42 -56.39,-0.82 -112.77,-0.59 -169.16,-0.75 -3.7,-0.01 -4.75,0.78 -4.73,4.64 0.17,36.49 0.14,72.98 0.03,109.47 -0.01,3.16 0.6,4.21 4.03,4.2 41.35,-0.13 82.69,-0.13 124.04,0 3.38,0.01 4.09,-0.92 4.02,-4.13 -0.23,-9.33 -0.31,-18.69 0.04,-28.01 0.13,-3.58 -1.39,-4.21 -4.2,-4.21 -7.85,0 -15.7,0.19 -23.54,-0.04 -14.63,-0.43 -29.23,-1.37 -43.46,-5.2 -11.59,-3.12 -22.07,-8.23 -30.36,-17.19 -3.71,-4.01 -6.09,-8.66 -6.98,-14.11 -0.41,-2.52 0,-3.86 2.86,-3.42 0.37,0.06 0.75,0.01 1.12,0.01 58.16,0 116.32,0.03 174.48,-0.07 3.27,-0.01 4.44,0.63 4.39,4.21 -0.3,20.78 -0.15,41.58 -0.54,62.36 -0.14,7.58 -0.04,15.17 -0.34,22.75 -0.28,6.96 -4.31,12.1 -9.22,16.44 -7.07,6.25 -15.72,8.61 -24.98,9.39 -7.21,0.61 -14.4,0.01 -21.6,0 -50.94,-0.07 -101.87,0.09 -152.81,-0.12 -14.77,-0.06 -29.47,-1.59 -43.61,-6.33 -5.92,-1.99 -11.51,-4.62 -16.08,-9.07 -4.25,-4.13 -6.3,-9.13 -6.3,-15.02 0,-43.71 0.02,-87.43 -0.03,-131.14 0,-4.7 1.64,-8.2 5.49,-11.11 16.83,-12.72 35.65,-18.79 56.8,-19.04 31.75,-0.4 63.5,0.07 89.01,-0.25 z"
     id="path16" /><path
     class="st0"
     d="m 2226.93,879.44 c 34.37,0 68.75,-0.03 103.12,0.02 10.57,0.01 21.14,0.34 31.71,0.26 2.84,-0.02 3.48,0.74 3.47,3.51 -0.11,29.52 -0.07,59.03 -0.07,88.55 0,33.13 -0.07,66.26 0.1,99.38 0.02,3.37 -1.18,4.43 -4.1,4.41 -8.09,-0.06 -16.17,-0.19 -24.26,-0.24 -9.71,-0.07 -19.42,-0.22 -29.13,-0.05 -3.24,0.05 -4.37,-0.59 -4.34,-4.16 0.19,-23.41 0.03,-46.83 0.18,-70.24 0.02,-3.14 -0.78,-3.83 -3.86,-3.82 -48.57,0.11 -97.14,0.11 -145.71,-0.01 -3.19,-0.01 -3.81,0.86 -3.81,3.89 0.02,9.07 0.62,18.17 -0.3,27.23 -1.77,17.34 -11.12,29.66 -25.9,38.11 -9.84,5.63 -20.5,8.65 -31.93,9 -3.09,0.09 -3.91,-0.69 -3.89,-3.84 0.13,-32.38 0.08,-64.76 0.08,-97.14 0,-23.79 0,-47.57 0,-71.36 0,-10.26 4.66,-17.1 14.24,-20.83 4.56,-1.78 9.29,-2.66 14.19,-2.66 36.73,0 73.47,-0.01 110.21,-0.01 z m -0.06,76.59 c 24.52,0 49.03,-0.03 73.55,0.04 2.28,0.01 3.23,-0.36 3.18,-2.97 -0.18,-8.83 -0.15,-17.67 -0.01,-26.51 0.04,-2.39 -0.55,-3.16 -3.06,-3.16 -49.03,0.07 -98.07,0.08 -147.1,-0.01 -2.8,-0.01 -3.2,1 -3.16,3.44 0.13,8.59 0.18,17.18 -0.02,25.76 -0.06,2.77 0.62,3.49 3.45,3.48 24.38,-0.12 48.78,-0.07 73.17,-0.07 z"
     id="path18" /><path
     class="st0"
     d="m 452.54,857.6 c -8.3,16.62 0.06,31.06 11.89,40.14 13.3,10.21 28.81,15.4 44.81,19.37 21.51,5.34 43.44,7.65 65.51,9.09 15.01,0.98 30.04,1.46 45.05,1.33 33.89,-0.28 67.77,-1.34 101.36,-6.61 18.31,-2.87 36.38,-6.64 53.38,-14.34 7.29,-3.3 14.03,-7.51 19.36,-13.62 5.29,-6.07 7.75,-12.92 5.32,-20.98 -0.17,-0.57 -0.49,-1.15 0.1,-1.93 6.59,5.14 12.06,11.38 17.52,17.61 11.13,12.69 20.44,26.53 26.3,42.49 2.54,6.93 4.02,14.09 4.44,21.45 0.18,3.17 -1.66,5.34 -3.85,7.27 -8.93,7.85 -19.59,12.55 -30.59,16.52 -28.06,10.14 -57.3,14.92 -86.74,18.73 -22.27,2.89 -44.65,4.6 -67.06,5.91 -14.51,0.85 -29.06,0.94 -43.58,1.6 -13.93,0.63 -27.86,0.41 -41.78,-0.09 -39.52,-1.41 -78.72,-5.11 -116.5,-17.86 -15.13,-5.1 -29.53,-11.72 -42.05,-21.84 -3.18,-2.57 -6.05,-5.56 -8.86,-8.54 -7.46,-7.91 -7.64,-17.38 -5.42,-27.23 2.56,-11.34 8.22,-21.21 14.89,-30.57 10.29,-14.45 22.32,-27.29 35.81,-38.79 0.23,0.31 0.46,0.6 0.69,0.89 z"
     id="path20" /><path
     class="st0"
     d="m 832.2,1131.14 c -3.72,10.97 -10.02,20.47 -17.33,29.28 -18.1,21.8 -41.39,36 -67.72,45.62 -24.34,8.88 -49.57,13.3 -75.35,14.91 -40.41,2.51 -80.58,-0.54 -120.65,-5.5 -24.43,-3.02 -48.5,-7.73 -71.64,-16.42 -19.23,-7.22 -36.49,-17.44 -50.06,-33.19 -9.31,-10.82 -16.07,-23.22 -22.12,-36.05 -2.1,-4.44 -4.15,-8.91 -5.7,-13.68 3.28,3.05 6.39,6.32 9.87,9.12 16.1,12.94 34.72,21.01 54.18,27.28 28.23,9.1 57.32,13.78 86.78,16.58 27.26,2.59 54.58,3.42 81.92,2.89 40.95,-0.8 81.83,-2.8 122.22,-10.36 19.18,-3.59 38.07,-8.16 55.67,-16.95 7.28,-3.63 13.94,-8.11 19.18,-14.46 0.27,0.29 0.51,0.61 0.75,0.93 z"
     id="path22" /><path
     class="st0"
     d="m 1358.54,1075.21 c -25.03,0 -50.07,0.11 -75.1,-0.04 -17.43,-0.1 -32.3,-6.64 -45.02,-18.52 -15.68,-14.65 -22.53,-32.69 -22.39,-53.99 0.25,-38.23 0.12,-76.47 -0.01,-114.7 -0.01,-3.54 0.82,-4.27 4.36,-3.89 12.34,1.32 21.94,7.23 29.78,16.53 4.73,5.61 8.88,11.64 13.01,17.69 5.38,7.9 7.03,16.86 7.07,26.18 0.08,19.93 0.02,39.85 0.02,59.78 0,11.88 4.89,16.8 16.69,16.8 25.41,0 50.81,-0.08 76.22,0.03 13.86,0.06 27.52,1.73 40.25,7.65 14.52,6.74 26.99,15.85 33.52,31.22 1.61,3.79 2.25,7.82 2.7,11.93 0.33,3.01 -0.77,3.39 -3.4,3.39 -25.89,-0.1 -51.79,-0.06 -77.7,-0.06 z"
     id="path24" /><path
     class="st0"
     d="m 2543.81,1075.21 c -24.66,0 -49.32,0.1 -73.98,-0.03 -26.62,-0.14 -45.99,-12.99 -59.71,-35.06 -6.51,-10.48 -9.01,-22.23 -9.02,-34.48 -0.04,-39.23 0.03,-78.47 -0.09,-117.7 -0.01,-3.67 1.03,-4.17 4.49,-3.83 11.54,1.14 20.77,6.53 28.31,14.92 6.39,7.12 11.98,14.94 16.67,23.29 3.65,6.5 4.71,13.82 4.74,21.2 0.08,20.3 0.02,40.6 0.03,60.91 0,11.58 5.05,16.63 16.57,16.63 25.41,0 50.82,-0.07 76.23,0.03 15.55,0.06 30.69,2.3 44.65,9.69 10.91,5.77 20.44,13.17 26.79,24.05 3.31,5.68 4.82,11.9 5.35,18.41 0.12,1.49 -0.33,2.08 -1.8,1.99 -0.87,-0.05 -1.74,0 -2.61,0 -25.56,-0.02 -51.09,-0.02 -76.62,-0.02 z"
     id="path26" /><path
     class="st0"
     d="m 663.46,800.03 c 33.1,-2.22 63.28,5.55 89.67,26.13 5.08,3.96 9.85,8.27 14.19,13.07 4.03,4.46 4.44,7.4 1.1,12.55 -5.35,8.24 -13.72,12.42 -22.35,15.99 -21.18,8.76 -43.58,12.45 -66.13,15.32 -14.15,1.8 -28.39,2.63 -42.67,3.12 -29.73,1.02 -59.31,-0.52 -88.65,-5.21 -14.14,-2.26 -27.42,-7.7 -40.42,-13.64 -7.46,-3.41 -14.74,-7.13 -20.64,-13.05 -8.14,-8.17 -8.19,-14.78 -0.27,-23.16 7.65,-8.1 17.1,-13.52 27.04,-18.2 11.36,-5.35 23.25,-9.2 35.39,-12.32 0.58,-0.15 1.2,-0.17 2.19,-0.31 -0.72,1.71 -2.12,1.9 -3.16,2.48 -7.25,4.06 -14.64,7.93 -20.13,14.4 -4.55,5.36 -3.87,9.84 2.01,13.64 7.27,4.7 15.62,6.36 23.92,7.78 16.9,2.9 34.01,4.76 51.11,4.05 27.66,-1.15 55.21,-3.78 81.86,-12.09 4.04,-1.26 7.97,-2.87 11.52,-5.17 5.44,-3.52 5.55,-7.14 0.46,-11.12 -4.76,-3.72 -10.3,-5.88 -15.91,-7.88 -6.63,-2.38 -13.36,-4.43 -20.13,-6.38 z"
     id="path28" /><path
     class="st0"
     d="m 963.66,1185.82 c -10.88,-0.3 -24.33,0.61 -37.75,-0.41 -6,-0.46 -11.72,-2.06 -16.29,-6.47 -2.95,-2.85 -4.4,-6.26 -4.41,-10.3 -0.02,-15.94 -0.01,-31.88 -0.01,-47.83 0,-4.78 2.43,-8.2 6.13,-10.89 6.52,-4.75 13.95,-7.25 21.89,-7.33 22.79,-0.22 45.59,-0.22 68.38,0 7.24,0.07 14.35,1.51 20.35,6.11 3.75,2.88 5.3,6.72 4.8,11.41 -0.08,0.74 -0.11,1.49 -0.12,2.23 -0.14,7.81 -0.14,7.81 -7.8,7.81 -3.24,0 -6.48,-0.08 -9.71,0.03 -1.78,0.06 -2.73,-0.24 -2.68,-2.38 0.06,-2.58 1.2,-6.07 -0.48,-7.54 -1.96,-1.71 -5.46,-0.54 -8.29,-0.55 -17.44,-0.05 -34.87,0 -52.31,-0.04 -3.85,-0.01 -7.7,-0.19 -11.54,-0.4 -1.97,-0.11 -2.89,0.35 -2.9,2.63 -0.03,16.67 -0.16,33.35 -0.35,50.02 -0.02,2.07 0.5,2.8 2.67,2.77 23.52,-0.32 47.04,-0.57 70.55,-0.75 2.15,-0.02 2.82,-0.71 2.73,-2.8 -0.14,-3.23 0.04,-6.48 -0.06,-9.71 -0.05,-1.75 0.44,-2.29 2.3,-2.18 5.08,0.3 10.18,0.44 15.27,0.4 2.29,-0.02 2.56,1 2.62,2.93 0.39,14.09 -9.22,23.13 -24.94,23.22 -11.82,0.07 -23.66,0.02 -38.05,0.02 z"
     id="path30" /><path
     class="st0"
     d="m 1885.76,1124.51 c 11.69,0.38 23.39,-0.46 35.07,0.43 7.85,0.6 10.47,3.42 10.48,11.37 0.01,6.83 -0.25,13.67 -0.36,20.5 -0.09,5.2 0.78,10.38 0.03,15.61 -1.08,7.55 -4.06,10.92 -11.62,11.55 -5.56,0.46 -11.18,0.33 -16.77,0.34 -15.18,0.04 -30.37,0.03 -45.55,0.01 -11.65,-0.01 -17.75,-4.89 -19.94,-16.39 -2.04,-10.69 -1.99,-21.5 -0.57,-32.25 0.88,-6.7 5.3,-10.23 12.69,-10.74 12.17,-0.84 24.36,-0.08 36.54,-0.43 z m 0.74,10.13 c -7.21,0 -14.43,0.03 -21.64,-0.02 -1.7,-0.01 -2.73,0.09 -2.73,2.33 0,11.43 -0.15,22.87 -0.33,34.3 -0.03,1.8 0.53,2.31 2.31,2.3 14.43,-0.06 28.86,-0.06 43.29,0 1.78,0.01 2.31,-0.5 2.32,-2.3 0.05,-11.31 0.18,-22.61 0.39,-33.91 0.04,-2.09 -0.54,-2.78 -2.7,-2.74 -6.98,0.13 -13.94,0.04 -20.91,0.04 z"
     id="path32" /><path
     class="st0"
     d="m 2358.08,1124.52 c 12.19,0.35 24.39,-0.45 36.57,0.45 6.1,0.45 9.39,3.16 9.22,9 -0.37,12.55 0.51,25.1 -0.24,37.63 -0.51,8.62 -3.7,12.26 -12.18,12.46 -21.89,0.52 -43.81,0.79 -65.7,-0.15 -8.3,-0.35 -13.53,-5.25 -15.37,-13.34 -2.54,-11.11 -2.63,-22.42 -1.2,-33.66 1.04,-8.16 4.77,-11.34 13.06,-11.95 11.94,-0.89 23.9,-0.1 35.84,-0.44 z m 0.29,52.38 c 7.09,0 14.18,-0.06 21.26,0.04 2.06,0.03 2.82,-0.55 2.81,-2.72 -0.08,-13.18 -0.08,-26.36 0,-39.54 0.01,-2.18 -0.76,-2.72 -2.82,-2.71 -14.05,0.07 -28.1,0.08 -42.15,-0.01 -2.22,-0.01 -3.02,0.55 -3,2.91 0.1,13.05 0.1,26.11 0,39.17 -0.02,2.36 0.79,2.94 3.01,2.9 6.96,-0.12 13.92,-0.04 20.89,-0.04 z"
     id="path34" /><path
     class="st0"
     d="m 2103.79,1125.33 c 11.7,0 23.4,0.07 35.1,-0.06 2.65,-0.03 3.66,0.51 3.63,3.44 -0.14,17.17 -0.12,34.35 -0.02,51.53 0.02,2.55 -0.6,3.53 -3.29,3.39 -4.22,-0.21 -8.46,-0.15 -12.69,-0.02 -2.15,0.07 -2.78,-0.71 -2.74,-2.79 0.11,-5.72 -0.04,-11.45 0.08,-17.17 0.05,-2.25 -0.32,-3.33 -2.99,-3.31 -13.19,0.14 -26.39,0.1 -39.58,0.02 -2.06,-0.01 -2.93,0.5 -2.75,2.69 0.17,2.1 0.21,4.25 -0.07,6.33 -1.06,7.91 -8.17,14.01 -16.23,14.2 -1.7,0.04 -2.39,-0.38 -2.38,-2.25 0.06,-16.55 0,-33.11 0.06,-49.66 0.02,-3.98 2.96,-6.29 8.03,-6.34 9.71,-0.08 19.42,-0.02 29.12,-0.02 2.24,0.02 4.48,0.02 6.72,0.02 z m -2.5,13.4 c -5.48,0 -10.96,0 -16.44,0 -6.34,0 -6.19,0 -6.35,6.17 -0.07,2.64 0.67,3.3 3.28,3.26 11.95,-0.15 23.91,-0.07 35.86,-0.07 6.3,0 6.17,0 6.23,-6.29 0.03,-2.49 -0.7,-3.2 -3.16,-3.14 -6.47,0.18 -12.95,0.07 -19.42,0.07 z"
     id="path36" /><path
     class="st0"
     d="m 505.27,1220.64 c 0.28,-0.55 0.71,-0.55 1.22,-0.35 20.27,8.02 41.62,11.18 63.05,13.66 24.42,2.82 48.96,4.27 73.55,3.76 29.55,-0.61 58.92,-3.29 87.71,-10.46 4.07,-1.01 8,-2.59 12,-3.9 0.22,0.2 0.44,0.39 0.66,0.59 -9.57,11.08 -22.49,16.4 -35.98,20.54 -16.09,4.94 -32.66,7.08 -49.41,8.29 -13.54,0.98 -27.09,1 -40.62,0.59 -26.2,-0.78 -52.22,-3.37 -77.25,-11.86 -12.27,-4.16 -24.11,-9.24 -33.31,-18.88 -0.58,-0.61 -1.02,-1.36 -1.52,-2.04 z"
     id="path38" /><path
     class="st0"
     d="m 1708.63,1167.03 c 0,-13.07 0.11,-25.24 -0.08,-37.4 -0.05,-3.04 0.92,-3.9 3.74,-3.58 3.16,0.36 7.4,-1.36 9.22,0.75 1.57,1.82 0.55,5.92 0.55,9.01 0.03,14.93 -0.07,29.87 0.09,44.8 0.03,2.86 -0.77,3.86 -3.5,3.36 -0.12,-0.02 -0.25,-0.02 -0.37,0 -11.04,1.9 -19.53,-2.18 -27.5,-9.86 -9.53,-9.19 -20.15,-17.25 -30.29,-25.8 -0.81,-0.69 -1.55,-1.49 -3.08,-1.63 0,7.29 0.03,14.47 -0.01,21.65 -0.03,5.08 -0.15,10.17 -0.23,15.25 -5.18,0.89 -10.39,0.16 -15.59,0.39 -0.5,0.02 -1.01,-0.06 -1.49,0.01 -1.97,0.3 -2.51,-0.51 -2.5,-2.47 0.07,-17.67 0.07,-35.34 0,-53.02 -0.01,-2.04 0.73,-2.48 2.59,-2.45 6.22,0.09 12.45,0.1 18.67,0 2.09,-0.03 3.44,1.08 4.86,2.3 14.72,12.7 29.46,25.39 44.92,38.69 z"
     id="path40" /><path
     class="st0"
     d="m 1809.52,1166.7 c 0,-12.82 0.09,-25.01 -0.07,-37.2 -0.04,-2.78 0.63,-3.76 3.48,-3.48 3.2,0.31 7.43,-0.99 9.38,0.63 2.06,1.71 0.62,6.08 0.64,9.28 0.06,14.93 -0.04,29.87 0.09,44.81 0.02,2.57 -0.56,3.64 -3.24,3.27 -1.47,-0.2 -3.02,-0.26 -4.47,0 -8.64,1.56 -14.91,-2.3 -21.11,-7.89 -11.04,-9.96 -22.65,-19.28 -34.04,-28.86 -0.37,-0.31 -0.83,-0.5 -1.39,-0.83 -0.85,1.63 -0.45,3.26 -0.46,4.8 -0.04,9.96 -0.09,19.91 0.03,29.87 0.03,2.26 -0.55,3.02 -2.89,2.93 -4.72,-0.19 -9.46,-0.14 -14.19,-0.02 -1.97,0.05 -2.82,-0.3 -2.8,-2.57 0.1,-17.55 0.11,-35.1 -0.01,-52.65 -0.02,-2.54 1,-2.79 3.06,-2.75 5.85,0.11 11.7,0.11 17.55,0 2.15,-0.04 3.73,0.68 5.34,2.07 14.32,12.43 28.71,24.79 43.09,37.16 0.44,0.39 0.96,0.7 2.01,1.43 z"
     id="path42" /><path
     class="st0"
     d="m 1156.44,1159.3 c 6.29,8.43 12.11,16.23 18.42,24.67 -9.32,0 -17.95,-0.01 -26.58,0.01 -1.04,0 -1.5,-0.72 -2.07,-1.37 -9.54,-11.05 -19.08,-22.1 -29.26,-33.89 9.05,0.79 17.29,0.27 25.51,0.66 3.97,0.19 8.87,1.6 11.59,-0.33 2.42,-1.72 0.67,-6.95 0.74,-10.63 0.13,-6.32 0.04,-6.3 -6.37,-5.52 -1.35,0.16 -2.72,0.24 -4.08,0.25 -13.31,0.13 -26.61,0.31 -39.92,0.3 -2.51,0 -3.13,0.78 -3.11,3.19 0.1,14.69 -0.01,29.38 0.11,44.07 0.02,2.57 -0.59,3.48 -3.26,3.32 -3.85,-0.23 -7.72,-0.23 -11.57,0 -2.45,0.14 -2.82,-0.78 -2.81,-2.96 0.08,-17.3 0.09,-34.61 0,-51.91 -0.01,-2.38 0.55,-3.15 3.06,-3.14 25.27,0.09 50.54,-0.04 75.82,0.1 10.31,0.06 12.4,4.64 12,12.17 -0.25,4.69 -0.19,9.41 0.01,14.1 0.11,2.53 -0.93,3.86 -3.08,4.84 -2.29,1.05 -4.68,1.74 -7.14,2.01 -2.34,0.25 -4.73,0.06 -8.01,0.06 z"
     id="path44" /><path
     class="st0"
     d="m 2487.78,1166.66 c 0,-6.35 0,-11.91 0,-17.47 0,-6.72 0.08,-13.44 -0.04,-20.16 -0.04,-2.23 0.57,-2.97 2.91,-3.02 10.54,-0.22 10.54,-0.3 10.54,10.28 0,14.81 -0.06,29.62 0.06,44.43 0.02,2.58 -0.73,3.03 -3.25,3.36 -10.96,1.44 -19.53,-1.98 -27.59,-9.77 -10.29,-9.95 -21.83,-18.61 -32.86,-27.86 -1.04,1.31 -0.6,2.6 -0.6,3.78 -0.04,10.2 -0.08,20.41 0.02,30.61 0.02,2.31 -0.43,3.3 -3.02,3.18 -4.72,-0.22 -9.46,-0.12 -14.18,-0.04 -1.72,0.03 -2.68,-0.12 -2.67,-2.32 0.09,-17.8 0.08,-35.59 0.01,-53.39 -0.01,-1.89 0.73,-2.26 2.41,-2.24 6.35,0.07 12.69,0.06 19.04,0 1.52,-0.01 2.48,0.69 3.56,1.62 13.81,11.89 27.67,23.73 41.52,35.57 1.1,0.98 2.25,1.9 4.14,3.44 z"
     id="path46" /><path
     class="st0"
     d="m 1237.81,1186.96 c -8.9,-0.4 -19.74,0.72 -30.52,-0.72 -2.62,-0.35 -5.11,-1.04 -7.4,-2.34 -4.17,-2.36 -6.68,-5.6 -6.6,-10.75 0.17,-11.2 0.34,-22.41 -0.06,-33.6 -0.22,-6.16 2.52,-9.88 7.52,-12.47 4.46,-2.3 9.18,-3.67 14.28,-3.66 17.18,0.05 34.35,0.05 51.53,-0.01 2.65,-0.01 5.21,0.36 7.74,1.01 9.91,2.52 13.74,8.75 11.68,18.72 -0.27,1.3 -0.81,1.49 -2.01,1.43 -3.48,-0.16 -6.97,-0.35 -10.44,-0.15 -2.66,0.15 -3.66,-0.74 -3.2,-3.31 0.67,-3.72 -0.72,-4.76 -4.57,-4.73 -16.54,0.13 -33.09,-0.05 -49.63,-0.32 -2.88,-0.05 -3.5,0.79 -3.47,3.53 0.15,11.82 0.11,23.65 0.02,35.47 -0.02,2.19 0.44,3.02 2.85,2.99 17.41,-0.22 34.83,-0.32 52.25,-0.37 1.94,-0.01 2.78,-0.61 2.56,-2.57 -0.07,-0.61 -0.01,-1.24 -0.01,-1.87 0.01,-6.93 0.01,-6.93 6.86,-6.81 0.74,0.01 1.58,-0.13 2.21,0.14 2.1,0.91 5.62,-1.25 6.28,1.25 0.92,3.46 0.85,7.41 -1.59,10.72 -3.63,4.92 -8.7,7.22 -14.55,7.96 -2.94,0.38 -5.94,0.4 -8.91,0.43 -6.98,0.07 -13.95,0.03 -22.82,0.03 z"
     id="path48" /><path
     class="st0"
     d="m 2569.22,1126.04 c 12.33,0 24.66,0.1 36.99,-0.07 2.95,-0.04 3.46,0.97 3.48,3.63 0.02,2.74 -0.97,3.26 -3.47,3.25 -21.29,-0.09 -42.59,0 -63.88,-0.11 -2.81,-0.01 -4.04,0.55 -3.81,3.65 0.28,3.72 0.22,7.48 0.01,11.2 -0.15,2.64 0.43,3.53 3.38,3.61 16.68,0.41 33.36,0.16 50.03,0.28 5.1,0.04 10.19,0.31 15.29,0.34 1.73,0.01 2.42,0.44 2.39,2.29 -0.09,7.1 0.04,14.2 -0.06,21.29 -0.05,3.75 -4.47,7.8 -8.21,7.84 -23.39,0.24 -46.78,0.53 -70.16,0.71 -4.48,0.03 -8.77,-0.8 -10.98,-5.45 -1.49,-3.14 -1,-3.86 2.49,-3.86 21.17,-0.01 42.34,-0.06 63.51,0.06 3.01,0.02 4.31,-0.63 3.98,-3.86 -0.28,-2.71 -0.22,-5.49 -0.01,-8.21 0.19,-2.52 -0.48,-3.38 -3.2,-3.38 -18.29,0.01 -36.58,-0.18 -54.87,-0.29 -7.09,-0.04 -9.45,-1.82 -11.36,-8.72 -1.17,-4.24 -1.49,-8.58 -1.16,-12.93 0.48,-6.23 6.01,-11.23 12.27,-11.25 12.44,-0.05 24.89,-0.02 37.35,-0.02 z"
     id="path50" /><path
     class="st0"
     d="m 1346.9,1185.07 c -5.98,0 -11.96,-0.04 -17.93,0.01 -7.54,0.06 -14.1,-2.55 -19.8,-7.32 -4.23,-3.54 -6.3,-8.29 -6.34,-13.77 -0.08,-12.2 0.01,-24.41 -0.06,-36.61 -0.01,-1.87 0.32,-2.79 2.45,-2.37 3.16,0.63 6.37,1.04 9.34,2.42 5.15,2.38 7.74,6.33 7.69,12.06 -0.07,7.1 -0.02,14.2 -0.02,21.29 0,5.41 2.01,8.05 7.29,8.16 11.7,0.24 23.41,0.11 35.12,0.04 1.33,-0.01 2.68,-0.5 3.99,-0.89 3.58,-1.06 5.48,-2.97 5.28,-7.23 -0.45,-9.56 -0.39,-19.15 -0.44,-28.72 -0.03,-5.83 0.28,-6.06 6.1,-6.06 2.99,0 5.98,0.11 8.96,-0.04 2,-0.1 2.5,0.65 2.49,2.56 -0.07,12.33 0.22,24.66 -0.13,36.98 -0.24,8.49 -6.11,13.28 -13.09,16.7 -4.03,1.98 -8.42,2.87 -12.98,2.81 -5.97,-0.08 -11.94,-0.02 -17.92,-0.02 z"
     id="path52" /><path
     class="st0"
     d="m 1949.28,1145.67 c 0,-5.48 0.16,-10.97 -0.07,-16.44 -0.11,-2.73 0.85,-3.39 3.37,-3.21 2.97,0.21 5.98,0.19 8.96,0 2.24,-0.14 2.95,0.62 3.18,2.85 1.07,10.11 2.45,20.18 3.47,30.29 0.3,2.95 1.41,4.6 4.14,5.78 5.58,2.41 11.03,5.12 16.47,7.84 1.83,0.92 3.32,1.05 5.22,0.07 6.96,-3.57 13.92,-7.15 21.07,-10.31 2.97,-1.31 3.88,-3.14 4.11,-6.11 0.73,-9.26 1.77,-18.5 2.46,-27.77 0.16,-2.15 0.78,-2.71 2.83,-2.64 4.1,0.14 8.22,0.1 12.33,0.02 1.59,-0.03 2.15,0.49 2.15,2.12 -0.05,11.33 -0.06,22.67 0.01,34 0.01,1.54 -0.75,2.13 -1.91,2.79 -14.25,8.06 -28.49,16.13 -42.68,24.31 -1.86,1.07 -3.1,0.62 -4.72,-0.35 -12.75,-7.7 -25.53,-15.34 -38.34,-22.93 -1.59,-0.94 -2.15,-2.04 -2.11,-3.87 0.13,-5.48 0.06,-10.96 0.06,-16.44 z"
     id="path54" /><path
     class="st0"
     d="m 1598.41,1135.62 c 0,-10.45 0.12,-20.9 -0.07,-31.34 -0.05,-3.02 0.91,-3.77 3.78,-3.67 5.96,0.21 11.95,0.26 17.9,-0.01 3.27,-0.15 3.91,1.04 3.82,4.02 -0.21,6.58 -0.1,13.18 -0.06,19.77 0.11,18.52 0.14,37.04 0.49,55.56 0.07,3.62 -1.14,4.29 -4.33,4.08 -8.29,-0.54 -15.68,-2.53 -19.92,-10.63 -1.2,-2.28 -1.61,-4.65 -1.61,-7.18 0.01,-10.21 0,-20.4 0,-30.6 z"
     id="path56" /><path
     class="st0"
     d="m 1485.62,1126.04 c 14.82,0 29.64,0.07 44.46,-0.06 2.84,-0.03 3.85,0.59 3.74,3.64 -0.24,6.16 -0.05,6.12 -6.36,6.18 -7.83,0.07 -15.66,0.35 -23.49,0.28 -2.54,-0.02 -2.77,1 -2.76,3.07 0.07,13.7 -0.08,27.4 0.12,41.1 0.05,3.21 -0.91,4.01 -3.95,3.81 -4.09,-0.27 -8.22,-0.22 -12.32,-0.01 -2.59,0.14 -3.36,-0.62 -3.33,-3.27 0.13,-13.7 -0.03,-27.4 0.13,-41.1 0.04,-3.07 -0.74,-4 -3.9,-3.96 -12.45,0.19 -24.91,-0.02 -37.36,0.15 -2.95,0.04 -3.83,-0.77 -3.73,-3.73 0.2,-6.08 0.03,-6.08 6.16,-6.08 14.2,-0.02 28.39,-0.02 42.59,-0.02 z"
     id="path58" /><path
     class="st0"
     d="m 2211.49,1126.04 c 14.82,0 29.64,0.09 44.46,-0.07 3.07,-0.03 4.41,0.74 3.89,3.89 -0.12,0.73 -0.11,1.51 0,2.24 0.54,3.45 -1.14,4.17 -4.27,4.1 -8.34,-0.18 -16.69,0.04 -25.03,-0.13 -2.57,-0.05 -3.34,0.56 -3.31,3.24 0.15,13.82 -0.01,27.65 0.14,41.47 0.03,2.65 -0.69,3.38 -3.29,3.25 -4.35,-0.23 -8.73,-0.25 -13.07,0.01 -2.76,0.16 -3.21,-0.85 -3.19,-3.35 0.12,-13.82 -0.02,-27.65 0.13,-41.47 0.03,-2.77 -0.63,-3.55 -3.47,-3.51 -12.58,0.17 -25.16,0 -37.74,0.13 -2.77,0.03 -3.92,-0.45 -3.79,-3.59 0.25,-6.2 0.05,-6.21 6.33,-6.21 14.06,0 28.13,0 42.21,0 z"
     id="path60" /><path
     class="st0"
     d="m 1425.01,1155.04 c 0,8.58 -0.11,17.17 0.07,25.75 0.06,2.7 -0.81,3.39 -3.36,3.23 -3.01,-0.18 -5.96,-0.61 -8.7,-1.79 -5.27,-2.28 -8.24,-6.26 -8.2,-12.14 0.1,-13.8 0.3,-27.6 0.33,-41.39 0,-2.16 0.67,-2.76 2.75,-2.7 4.6,0.13 9.21,0.18 13.81,-0.01 2.58,-0.11 3.42,0.64 3.37,3.31 -0.17,8.57 -0.07,17.16 -0.07,25.74 z"
     id="path62" /><path
     class="st0"
     d="m 2294.2,1154.65 c 0,8.58 -0.08,17.16 0.05,25.74 0.04,2.34 -0.68,2.91 -2.95,2.88 -9.91,-0.13 -17.95,-5.01 -17.41,-16.95 0.58,-12.78 0.41,-25.59 0.44,-38.39 0,-2.17 0.69,-2.75 2.76,-2.69 4.6,0.13 9.21,0.18 13.8,-0.01 2.58,-0.11 3.42,0.64 3.37,3.3 -0.16,8.71 -0.06,17.42 -0.06,26.12 z"
     id="path64" /><path
     class="st0"
     d="m 1065.88,1154.83 c 0,8.72 -0.1,17.44 0.06,26.15 0.04,2.48 -0.68,3.09 -3.1,3.05 -10.05,-0.19 -17.67,-5.58 -17.22,-16.88 0.5,-12.55 0.41,-25.13 0.42,-37.7 0,-2.5 0.53,-3.56 3.27,-3.43 4.47,0.22 8.97,0.24 13.44,-0.01 2.8,-0.15 3.22,0.96 3.18,3.41 -0.13,8.47 -0.05,16.94 -0.05,25.41 z"
     id="path66" /><path
     class="st0"
     d="m 553.69,800.21 c -0.23,0.12 -0.43,0.3 -0.65,0.31 -0.18,0.01 -0.37,-0.19 -0.56,-0.29 0.2,-0.11 0.39,-0.31 0.59,-0.32 0.2,0 0.4,0.19 0.62,0.3 z"
     id="path68" /><path
     class="st0"
     d="m 831.48,1130.19 c 0.21,-0.48 0.66,-0.95 1.05,-0.59 0.51,0.47 0.19,1.1 -0.32,1.54 -0.25,-0.32 -0.49,-0.64 -0.73,-0.95 z"
     id="path70" /><path
     class="st0"
     d="m 453.48,856.25 c -0.31,0.45 -0.63,0.9 -0.94,1.35 -0.23,-0.29 -0.46,-0.58 -0.68,-0.87 0.37,-0.32 0.73,-0.63 1.1,-0.95 0.15,0.17 0.33,0.33 0.52,0.47 z"
     id="path72" /><path
     class="st0"
     d="m 452.95,855.78 c 0.09,-0.32 0.25,-0.67 0.61,-0.39 0.12,0.09 -0.05,0.56 -0.09,0.86 -0.18,-0.14 -0.36,-0.3 -0.52,-0.47 z"
     id="path74" /><path
     class="st0"
     d="m 505.37,1220.59 c -0.13,-0.17 -0.25,-0.34 -0.38,-0.51 0.12,0 0.24,0 0.36,0 -0.02,0.19 -0.04,0.38 -0.07,0.56 -0.01,0 0.09,-0.05 0.09,-0.05 z"
     id="path76" /><path
     class="st0"
     d="m 742.8,1223.36 c 0.24,-0.17 0.59,-0.52 0.69,-0.46 0.53,0.32 0.18,0.7 -0.03,1.05 -0.22,-0.2 -0.44,-0.39 -0.66,-0.59 z"
     id="path78" /></g>
<g
   id="g80">
</g>
<g
   id="g82">
</g>
<g
   id="g84">
</g>
<g
   id="g86">
</g>
<g
   id="g88">
</g>
<g
   id="g90">
</g>
<g
   id="g92">
</g>
<g
   id="g94">
</g>
<g
   id="g96">
</g>
<g
   id="g98">
</g>
<g
   id="g100">
</g>
<g
   id="g102">
</g>
<g
   id="g104">
</g>
<g
   id="g106">
</g>
<g
   id="g108">
</g>
</svg>
