<?xml version="1.0" encoding="UTF-8" standalone="no"?>
<svg
   xmlns:dc="http://purl.org/dc/elements/1.1/"
   xmlns:cc="http://creativecommons.org/ns#"
   xmlns:rdf="http://www.w3.org/1999/02/22-rdf-syntax-ns#"
   xmlns:svg="http://www.w3.org/2000/svg"
   xmlns="http://www.w3.org/2000/svg"
   xmlns:sodipodi="http://sodipodi.sourceforge.net/DTD/sodipodi-0.dtd"
   xmlns:inkscape="http://www.inkscape.org/namespaces/inkscape"
   version="1.1"
   id="Layer_1"
   x="0px"
   y="0px"
   viewBox="0 0 483 454"
   xml:space="preserve"
   sodipodi:docname="logo_sans_text.svg"
   width="483"
   height="454"
   inkscape:version="1.0.2 (e86c870879, 2021-01-15)"><metadata
   id="metadata115"><rdf:RDF><cc:Work
       rdf:about=""><dc:format>image/svg+xml</dc:format><dc:type
         rdf:resource="http://purl.org/dc/dcmitype/StillImage" /><dc:title></dc:title></cc:Work></rdf:RDF></metadata><defs
   id="defs113" /><sodipodi:namedview
   pagecolor="#ffffff"
   bordercolor="#666666"
   borderopacity="1"
   objecttolerance="10"
   gridtolerance="10"
   guidetolerance="10"
   inkscape:pageopacity="0"
   inkscape:pageshadow="2"
   inkscape:window-width="1366"
   inkscape:window-height="704"
   id="namedview111"
   showgrid="false"
   inkscape:zoom="0.25"
   inkscape:cx="1500"
   inkscape:cy="680"
   inkscape:window-x="0"
   inkscape:window-y="0"
   inkscape:window-maximized="1"
   inkscape:current-layer="g989"
   inkscape:document-rotation="0" />
<style
   type="text/css"
   id="style2">
	.st0{fill:#1D376B;}
</style>





































<g
   id="g989"
   transform="translate(-379.11366,-799.63794)"><path
     class="st0"
     d="m 861.85,995.61 c 0,15.57 0,30.12 0,44.66 0,6.97 -0.32,13.97 0.08,20.92 0.48,8.28 -3.1,14.62 -8.46,20.32 -9.59,10.19 -21.72,16.44 -34.36,21.83 -24.03,10.23 -49.35,15.7 -74.95,20.04 -27.28,4.62 -54.8,7.23 -82.4,8.97 -20.45,1.29 -40.94,2.23 -61.44,1.88 -45.71,-0.78 -90.88,-5.63 -134.77,-19.08 -24.52,-7.51 -47.81,-17.68 -69.42,-31.85 -10.81,-7.09 -13.46,-17.12 -14.82,-28.43 -2.28,-18.94 -2.21,-37.94 -1.51,-56.96 0.26,-7.07 0.54,-14.15 0.73,-21.23 0.04,-1.63 0.25,-3.17 0.94,-5.51 2.09,5.89 3.76,11.15 6.46,15.98 8.45,15.11 21.49,25.2 36.47,33.04 21.79,11.4 45.31,17.45 69.33,21.79 22.25,4.02 44.7,6.13 67.25,7.57 25.98,1.66 51.97,1.72 77.95,1.3 27.79,-0.45 55.54,-2.24 83.12,-5.9 35.65,-4.74 70.78,-11.66 103.93,-26.24 12.85,-5.66 25.13,-12.36 35.87,-23.1 z"
     id="path12" /><path
     class="st0"
     d="m 452.54,857.6 c -8.3,16.62 0.06,31.06 11.89,40.14 13.3,10.21 28.81,15.4 44.81,19.37 21.51,5.34 43.44,7.65 65.51,9.09 15.01,0.98 30.04,1.46 45.05,1.33 33.89,-0.28 67.77,-1.34 101.36,-6.61 18.31,-2.87 36.38,-6.64 53.38,-14.34 7.29,-3.3 14.03,-7.51 19.36,-13.62 5.29,-6.07 7.75,-12.92 5.32,-20.98 -0.17,-0.57 -0.49,-1.15 0.1,-1.93 6.59,5.14 12.06,11.38 17.52,17.61 11.13,12.69 20.44,26.53 26.3,42.49 2.54,6.93 4.02,14.09 4.44,21.45 0.18,3.17 -1.66,5.34 -3.85,7.27 -8.93,7.85 -19.59,12.55 -30.59,16.52 -28.06,10.14 -57.3,14.92 -86.74,18.73 -22.27,2.89 -44.65,4.6 -67.06,5.91 -14.51,0.85 -29.06,0.94 -43.58,1.6 -13.93,0.63 -27.86,0.41 -41.78,-0.09 -39.52,-1.41 -78.72,-5.11 -116.5,-17.86 -15.13,-5.1 -29.53,-11.72 -42.05,-21.84 -3.18,-2.57 -6.05,-5.56 -8.86,-8.54 -7.46,-7.91 -7.64,-17.38 -5.42,-27.23 2.56,-11.34 8.22,-21.21 14.89,-30.57 10.29,-14.45 22.32,-27.29 35.81,-38.79 0.23,0.31 0.46,0.6 0.69,0.89 z"
     id="path20" /><path
     class="st0"
     d="m 832.2,1131.14 c -3.72,10.97 -10.02,20.47 -17.33,29.28 -18.1,21.8 -41.39,36 -67.72,45.62 -24.34,8.88 -49.57,13.3 -75.35,14.91 -40.41,2.51 -80.58,-0.54 -120.65,-5.5 -24.43,-3.02 -48.5,-7.73 -71.64,-16.42 -19.23,-7.22 -36.49,-17.44 -50.06,-33.19 -9.31,-10.82 -16.07,-23.22 -22.12,-36.05 -2.1,-4.44 -4.15,-8.91 -5.7,-13.68 3.28,3.05 6.39,6.32 9.87,9.12 16.1,12.94 34.72,21.01 54.18,27.28 28.23,9.1 57.32,13.78 86.78,16.58 27.26,2.59 54.58,3.42 81.92,2.89 40.95,-0.8 81.83,-2.8 122.22,-10.36 19.18,-3.59 38.07,-8.16 55.67,-16.95 7.28,-3.63 13.94,-8.11 19.18,-14.46 0.27,0.29 0.51,0.61 0.75,0.93 z"
     id="path22" /><path
     class="st0"
     d="m 663.46,800.03 c 33.1,-2.22 63.28,5.55 89.67,26.13 5.08,3.96 9.85,8.27 14.19,13.07 4.03,4.46 4.44,7.4 1.1,12.55 -5.35,8.24 -13.72,12.42 -22.35,15.99 -21.18,8.76 -43.58,12.45 -66.13,15.32 -14.15,1.8 -28.39,2.63 -42.67,3.12 -29.73,1.02 -59.31,-0.52 -88.65,-5.21 -14.14,-2.26 -27.42,-7.7 -40.42,-13.64 -7.46,-3.41 -14.74,-7.13 -20.64,-13.05 -8.14,-8.17 -8.19,-14.78 -0.27,-23.16 7.65,-8.1 17.1,-13.52 27.04,-18.2 11.36,-5.35 23.25,-9.2 35.39,-12.32 0.58,-0.15 1.2,-0.17 2.19,-0.31 -0.72,1.71 -2.12,1.9 -3.16,2.48 -7.25,4.06 -14.64,7.93 -20.13,14.4 -4.55,5.36 -3.87,9.84 2.01,13.64 7.27,4.7 15.62,6.36 23.92,7.78 16.9,2.9 34.01,4.76 51.11,4.05 27.66,-1.15 55.21,-3.78 81.86,-12.09 4.04,-1.26 7.97,-2.87 11.52,-5.17 5.44,-3.52 5.55,-7.14 0.46,-11.12 -4.76,-3.72 -10.3,-5.88 -15.91,-7.88 -6.63,-2.38 -13.36,-4.43 -20.13,-6.38 z"
     id="path28" /><path
     class="st0"
     d="m 505.27,1220.64 c 0.28,-0.55 0.71,-0.55 1.22,-0.35 20.27,8.02 41.62,11.18 63.05,13.66 24.42,2.82 48.96,4.27 73.55,3.76 29.55,-0.61 58.92,-3.29 87.71,-10.46 4.07,-1.01 8,-2.59 12,-3.9 0.22,0.2 0.44,0.39 0.66,0.59 -9.57,11.08 -22.49,16.4 -35.98,20.54 -16.09,4.94 -32.66,7.08 -49.41,8.29 -13.54,0.98 -27.09,1 -40.62,0.59 -26.2,-0.78 -52.22,-3.37 -77.25,-11.86 -12.27,-4.16 -24.11,-9.24 -33.31,-18.88 -0.58,-0.61 -1.02,-1.36 -1.52,-2.04 z"
     id="path38" /><path
     class="st0"
     d="m 553.69,800.21 c -0.23,0.12 -0.43,0.3 -0.65,0.31 -0.18,0.01 -0.37,-0.19 -0.56,-0.29 0.2,-0.11 0.39,-0.31 0.59,-0.32 0.2,0 0.4,0.19 0.62,0.3 z"
     id="path68" /><path
     class="st0"
     d="m 831.48,1130.19 c 0.21,-0.48 0.66,-0.95 1.05,-0.59 0.51,0.47 0.19,1.1 -0.32,1.54 -0.25,-0.32 -0.49,-0.64 -0.73,-0.95 z"
     id="path70" /><path
     class="st0"
     d="m 453.48,856.25 c -0.31,0.45 -0.63,0.9 -0.94,1.35 -0.23,-0.29 -0.46,-0.58 -0.68,-0.87 0.37,-0.32 0.73,-0.63 1.1,-0.95 0.15,0.17 0.33,0.33 0.52,0.47 z"
     id="path72" /><path
     class="st0"
     d="m 452.95,855.78 c 0.09,-0.32 0.25,-0.67 0.61,-0.39 0.12,0.09 -0.05,0.56 -0.09,0.86 -0.18,-0.14 -0.36,-0.3 -0.52,-0.47 z"
     id="path74" /><path
     class="st0"
     d="m 505.37,1220.59 c -0.13,-0.17 -0.25,-0.34 -0.38,-0.51 0.12,0 0.24,0 0.36,0 -0.02,0.19 -0.04,0.38 -0.07,0.56 -0.01,0 0.09,-0.05 0.09,-0.05 z"
     id="path76" /><path
     class="st0"
     d="m 742.8,1223.36 c 0.24,-0.17 0.59,-0.52 0.69,-0.46 0.53,0.32 0.18,0.7 -0.03,1.05 -0.22,-0.2 -0.44,-0.39 -0.66,-0.59 z"
     id="path78" /></g>
<g
   id="g80">
</g>
<g
   id="g82">
</g>
<g
   id="g84">
</g>
<g
   id="g86">
</g>
<g
   id="g88">
</g>
<g
   id="g90">
</g>
<g
   id="g92">
</g>
<g
   id="g94">
</g>
<g
   id="g96">
</g>
<g
   id="g98">
</g>
<g
   id="g100">
</g>
<g
   id="g102">
</g>
<g
   id="g104">
</g>
<g
   id="g106">
</g>
<g
   id="g108">
</g>
</svg>
