<?xml version="1.0" encoding="UTF-8" standalone="no"?>
<svg
   xmlns:dc="http://purl.org/dc/elements/1.1/"
   xmlns:cc="http://creativecommons.org/ns#"
   xmlns:rdf="http://www.w3.org/1999/02/22-rdf-syntax-ns#"
   xmlns:svg="http://www.w3.org/2000/svg"
   xmlns="http://www.w3.org/2000/svg"
   xmlns:sodipodi="http://sodipodi.sourceforge.net/DTD/sodipodi-0.dtd"
   xmlns:inkscape="http://www.inkscape.org/namespaces/inkscape"
   id="Layer_1"
   data-name="Layer 1"
   viewBox="0 0 675 459.18"
   version="1.1"
   sodipodi:docname="platinum_certified-v2_white.svg"
   inkscape:version="1.0.2 (e86c870879, 2021-01-15)">
  <metadata
     id="metadata139">
    <rdf:RDF>
      <cc:Work
         rdf:about="">
        <dc:format>image/svg+xml</dc:format>
        <dc:type
           rdf:resource="http://purl.org/dc/dcmitype/StillImage" />
        <dc:title>2019-04-03-platinumregistration_certified-v1</dc:title>
      </cc:Work>
    </rdf:RDF>
  </metadata>
  <sodipodi:namedview
     pagecolor="#ffffff"
     bordercolor="#666666"
     borderopacity="1"
     objecttolerance="10"
     gridtolerance="10"
     guidetolerance="10"
     inkscape:pageopacity="0"
     inkscape:pageshadow="2"
     inkscape:window-width="1366"
     inkscape:window-height="704"
     id="namedview137"
     showgrid="false"
     inkscape:zoom="0.54444881"
     inkscape:cx="623.91244"
     inkscape:cy="311.90847"
     inkscape:window-x="0"
     inkscape:window-y="0"
     inkscape:window-maximized="1"
     inkscape:current-layer="Layer_1" />
  <defs
     id="defs4">
    <style
       id="style2">.cls-1{fill:#59595a;}.cls-2{fill:#a2afbd;}.cls-2,.cls-3{fill-rule:evenodd;}.cls-3{fill:#4985be;}.cls-4{fill:#74848b;}</style>
  </defs>
  <title
     id="title6">2019-04-03-platinumregistration_certified-v1</title>
  <path
     class="cls-1"
     d="M15.76,335.13h7.81l13,34.66H28.62L26,362.07H13l-2.72,7.72H2.6ZM15,356.39h9l-4.37-12.71h-.1Z"
     id="path8"
     style="fill:#ffffff;fill-opacity:1" />
  <path
     class="cls-1"
     d="M44.72,358.28c0,4.61,3.59,6.41,7.67,6.41,2.67,0,6.75-.78,6.75-4.32,0-3.74-5.2-4.37-10.29-5.73s-10.34-3.34-10.34-9.85c0-7.08,6.7-10.48,13-10.48,7.23,0,13.88,3.15,13.88,11.16H58c-.24-4.17-3.2-5.24-6.84-5.24-2.43,0-5.24,1-5.24,3.93,0,2.67,1.65,3,10.33,5.24,2.53.63,10.29,2.24,10.29,10.1,0,6.35-5,11.11-14.41,11.11-7.67,0-14.85-3.79-14.75-12.33Z"
     id="path10"
     style="fill:#ffffff;fill-opacity:1" />
  <path
     class="cls-1"
     d="M75.82,361.05a4.87,4.87,0,0,0,4.57,4.22c5,0,6.3-6.55,6.5-10.34l-.1-.09a8.64,8.64,0,0,1-7.67,3.78,10.86,10.86,0,0,1-7.81-3.49,11.67,11.67,0,0,1-2.62-7.57c0-6.94,4.8-12.43,11.89-12.43,10.29,0,13,9,13,17.57,0,8.3-3.68,17.76-13.34,17.76-5.87,0-10.24-3.44-11-9.41Zm10.44-13.93c0-3.15-2-6.31-5.49-6.31-3.3,0-5.19,3.16-5.19,6.21,0,3.21,1.65,6.41,5.19,6.41C84.46,353.43,86.26,350.47,86.26,347.12Z"
     id="path12"
     style="fill:#ffffff;fill-opacity:1" />
  <path
     class="cls-1"
     d="M113.67,369.79h-6.89v-22H98.24v-5.19c4.8.1,9.22-1.55,10-6.75h5.48Z"
     id="path14"
     style="fill:#ffffff;fill-opacity:1" />
  <path
     class="cls-1"
     d="M135.07,335.13c6.79,0,12.52,4.27,12.52,17.52,0,13.54-5.73,17.81-12.52,17.81s-12.43-4.27-12.43-17.81C122.64,339.4,128.37,335.13,135.07,335.13Zm0,29.66c5.63,0,5.63-8.3,5.63-12.14,0-3.54,0-11.84-5.63-11.84s-5.53,8.3-5.53,11.84C129.54,356.49,129.54,364.79,135.07,364.79Z"
     id="path16"
     style="fill:#ffffff;fill-opacity:1" />
  <path
     class="cls-1"
     d="M162.05,335.13c6.79,0,12.52,4.27,12.52,17.52,0,13.54-5.73,17.81-12.52,17.81s-12.43-4.27-12.43-17.81C149.62,339.4,155.35,335.13,162.05,335.13Zm0,29.66c5.62,0,5.62-8.3,5.62-12.14,0-3.54,0-11.84-5.62-11.84s-5.54,8.3-5.54,11.84C156.51,356.49,156.51,364.79,162.05,364.79Z"
     id="path18"
     style="fill:#ffffff;fill-opacity:1" />
  <path
     class="cls-1"
     d="M186.16,352.61h-7.62v-7.48h7.62Zm-7.62,9.7h7.62v7.48h-7.62Z"
     id="path20"
     style="fill:#ffffff;fill-opacity:1" />
  <path
     class="cls-1"
     d="M190.86,348.87c-.24-7.77,4.18-13.74,12.33-13.74,6.21,0,11.65,4,11.65,10.63,0,5.1-2.72,7.91-6.07,10.29s-7.33,4.32-9.8,7.81H215v5.93H190.09c0-7.87,4.85-11.21,10.72-15.19,3-2,7.09-4.13,7.14-8.3a4.9,4.9,0,0,0-5.1-5.24c-4.08,0-5.39,4.22-5.39,7.81Z"
     id="path22"
     style="fill:#ffffff;fill-opacity:1" />
  <path
     class="cls-1"
     d="M229.49,335.13c6.79,0,12.52,4.27,12.52,17.52,0,13.54-5.73,17.81-12.52,17.81s-12.43-4.27-12.43-17.81C217.06,339.4,222.79,335.13,229.49,335.13Zm0,29.66c5.63,0,5.63-8.3,5.63-12.14,0-3.54,0-11.84-5.63-11.84s-5.53,8.3-5.53,11.84C224,356.49,224,364.79,229.49,364.79Z"
     id="path24"
     style="fill:#ffffff;fill-opacity:1" />
  <path
     class="cls-1"
     d="M262.05,369.79h-6.89v-22h-8.55v-5.19c4.81.1,9.23-1.55,9.95-6.75h5.49Z"
     id="path26"
     style="fill:#ffffff;fill-opacity:1" />
  <path
     class="cls-1"
     d="M288.83,344.55a4.86,4.86,0,0,0-4.56-4.22c-5,0-6.31,6.55-6.5,10.33l.09.1a8.65,8.65,0,0,1,7.67-3.78,10.82,10.82,0,0,1,7.81,3.49A11.67,11.67,0,0,1,296,358c0,6.94-4.8,12.42-11.88,12.42-10.29,0-13.06-9-13.06-17.56,0-8.3,3.69-17.77,13.35-17.77,5.87,0,10.24,3.45,11,9.42ZM278.4,358.48c0,3.15,2,6.31,5.48,6.31s5.19-3.16,5.19-6.21c0-3.21-1.65-6.41-5.19-6.41S278.4,355.13,278.4,358.48Z"
     id="path28"
     style="fill:#ffffff;fill-opacity:1" />
  <path
     class="cls-1"
     d="M313,353.58h14.61v5.92H313Z"
     id="path30"
     style="fill:#ffffff;fill-opacity:1" />
  <path
     class="cls-1"
     d="M347.08,334.8h7.7v35h-7.7Z"
     id="path32"
     style="fill:#ffffff;fill-opacity:1" />
  <path
     class="cls-1"
     d="M366.78,358.17c0,4.66,3.63,6.47,7.74,6.47,2.7,0,6.81-.78,6.81-4.36,0-3.77-5.24-4.41-10.38-5.78s-10.44-3.38-10.44-9.95c0-7.15,6.76-10.58,13.08-10.58,7.3,0,14,3.19,14,11.27h-7.44c-.25-4.21-3.24-5.29-6.91-5.29-2.45,0-5.29,1-5.29,4,0,2.69,1.66,3,10.43,5.29,2.55.64,10.39,2.25,10.39,10.19,0,6.42-5,11.22-14.55,11.22-7.74,0-15-3.82-14.9-12.45Z"
     id="path34"
     style="fill:#ffffff;fill-opacity:1" />
  <path
     class="cls-1"
     d="M409,334c10.83,0,17.19,8.09,17.19,18.47,0,10.09-6.36,18.18-17.19,18.18s-17.2-8.09-17.2-18.18C391.82,342.06,398.19,334,409,334Zm0,30.18c6.91,0,9.5-5.88,9.5-11.71,0-6.12-2.59-12-9.5-12s-9.51,5.88-9.51,12C399.51,358.27,402.11,364.15,409,364.15Z"
     id="path36"
     style="fill:#ffffff;fill-opacity:1" />
  <path
     class="cls-1"
     d="M449.94,361a4.9,4.9,0,0,0,4.6,4.26c5,0,6.37-6.62,6.57-10.44l-.1-.09a8.74,8.74,0,0,1-7.74,3.82,11,11,0,0,1-7.89-3.53,11.83,11.83,0,0,1-2.65-7.64c0-7,4.85-12.55,12-12.55,10.38,0,13.18,9.07,13.18,17.74,0,8.38-3.73,17.93-13.48,17.93-5.93,0-10.33-3.48-11.12-9.5Zm10.53-14.06c0-3.19-2.06-6.37-5.54-6.37-3.33,0-5.24,3.18-5.24,6.27s1.67,6.46,5.24,6.46C458.66,353.27,460.47,350.29,460.47,346.91Z"
     id="path38"
     style="fill:#ffffff;fill-opacity:1" />
  <path
     class="cls-1"
     d="M482.52,334.8c6.86,0,12.64,4.32,12.64,17.69,0,13.67-5.78,18-12.64,18s-12.54-4.31-12.54-18C470,339.12,475.76,334.8,482.52,334.8Zm0,29.94c5.68,0,5.68-8.38,5.68-12.25,0-3.58,0-11.95-5.68-11.95s-5.58,8.37-5.58,11.95C476.94,356.36,476.94,364.74,482.52,364.74Z"
     id="path40"
     style="fill:#ffffff;fill-opacity:1" />
  <path
     class="cls-1"
     d="M509.76,334.8c6.86,0,12.64,4.32,12.64,17.69,0,13.67-5.78,18-12.64,18s-12.54-4.31-12.54-18C497.22,339.12,503,334.8,509.76,334.8Zm0,29.94c5.69,0,5.69-8.38,5.69-12.25,0-3.58,0-11.95-5.69-11.95s-5.58,8.37-5.58,11.95C504.18,356.36,504.18,364.74,509.76,364.74Z"
     id="path42"
     style="fill:#ffffff;fill-opacity:1" />
  <path
     class="cls-1"
     d="M542.64,369.79h-6.95V347.54h-8.63V342.3c4.85.1,9.31-1.57,10.05-6.81h5.53Z"
     id="path44"
     style="fill:#ffffff;fill-opacity:1" />
  <path
     class="cls-1"
     d="M561.36,352.44h-7.69V344.9h7.69Zm-7.69,9.8h7.69v7.55h-7.69Z"
     id="path46"
     style="fill:#ffffff;fill-opacity:1" />
  <path
     class="cls-1"
     d="M566.12,348.67c-.25-7.84,4.21-13.87,12.44-13.87,6.27,0,11.76,4,11.76,10.73,0,5.15-2.74,8-6.12,10.39s-7.4,4.36-9.9,7.89h16.22v6H565.33c0-7.94,4.9-11.32,10.83-15.34,3-2.06,7.15-4.16,7.2-8.38a5,5,0,0,0-5.14-5.29c-4.12,0-5.44,4.26-5.44,7.89Z"
     id="path48"
     style="fill:#ffffff;fill-opacity:1" />
  <path
     class="cls-1"
     d="M605.12,334.8c6.86,0,12.64,4.32,12.64,17.69,0,13.67-5.78,18-12.64,18s-12.54-4.31-12.54-18C592.58,339.12,598.36,334.8,605.12,334.8Zm0,29.94c5.68,0,5.68-8.38,5.68-12.25,0-3.58,0-11.95-5.68-11.95s-5.59,8.37-5.59,11.95C599.53,356.36,599.53,364.74,605.12,364.74Z"
     id="path50"
     style="fill:#ffffff;fill-opacity:1" />
  <path
     class="cls-1"
     d="M638,369.79h-7V347.54h-8.62V342.3c4.85.1,9.31-1.57,10-6.81H638Z"
     id="path52"
     style="fill:#ffffff;fill-opacity:1" />
  <path
     class="cls-1"
     d="M670.53,341.22H656.38L655,349l.1.1a8.72,8.72,0,0,1,6.71-2.64c6.76,0,10.59,5.24,10.59,11.66a12.38,12.38,0,0,1-12.74,12.34c-6.67,0-12.64-3.67-12.74-10.87h7a5.53,5.53,0,0,0,5.63,5.14c3.63,0,5.93-3.19,5.93-6.61,0-3.58-2.21-6.42-5.93-6.42a5.77,5.77,0,0,0-5.24,2.74H648l3.38-19h19.15Z"
     id="path54"
     style="fill:#ffffff;fill-opacity:1" />
  <path
     class="cls-2"
     d="M503.18,0h6.67c3,50.06,7.5,100.79,10.2,149.87-9-.26-19.09.53-27.47-.39Q498.09,74.95,503.18,0Z"
     id="path56"
     style="fill:#ffffff;fill-opacity:1" />
  <path
     class="cls-2"
     d="M401.56,27.07h96.12c.28,3.54-.66,5.88-.39,9.42H401.17V28.25C401.14,27.69,401.1,27.14,401.56,27.07Z"
     id="path58"
     style="fill:#ffffff;fill-opacity:1" />
  <path
     class="cls-2"
     d="M515.73,27.07h96.13v9.42H515.73c.29-3.17-.64-5.12-.39-8.24C515.31,27.69,515.27,27.14,515.73,27.07Z"
     id="path60"
     style="fill:#ffffff;fill-opacity:1" />
  <path
     class="cls-2"
     d="M356.05,88.28h91.42c-4.81,13.53-24.6,18.08-45.12,18.44C385.79,107,357.8,101.87,356.05,88.28Z"
     id="path62"
     style="fill:#ffffff;fill-opacity:1" />
  <path
     class="cls-2"
     d="M565.56,88.28H657c-.89,4.6-5.19,8.62-9.42,11-20.06,11.2-66,10.2-79.65-4.71-1.3-1.43-2-3.63-2.74-5.1C565.13,88.9,565.1,88.34,565.56,88.28Z"
     id="path64"
     style="fill:#ffffff;fill-opacity:1" />
  <path
     class="cls-3"
     d="M331.72,121.63v28.24H303.48c.26-9.28-.53-19.61.39-28.24Z"
     id="path66"
     style="fill:#ffffff;fill-opacity:1" />
  <path
     class="cls-3"
     d="M97.31,124h27.86v127.9H96.92V125.16C96.88,124.6,96.85,124.05,97.31,124Z"
     id="path68"
     style="fill:#ffffff;fill-opacity:1" />
  <path
     class="cls-3"
     d="M270.71,127.51c2.12,1.16,1.18,4.53,1.18,6.67v22.76h20V179.3H272.28c.13,15.31-2.35,38.15,1.57,50.22,4.21,3,12.7,1.69,19.62,2v20.8c-14.42,2.77-32.72,3.29-41.59-3.54-15.58-12-5.64-45-8.63-69.44-4.85-.25-10.7.5-14.91-.39.26-7.2-.51-15.43.39-22h16.09c1.56-8.52,1.49-18.66,2.75-27.47C255.07,128.61,263.17,128.34,270.71,127.51Z"
     id="path70"
     style="fill:#ffffff;fill-opacity:1" />
  <path
     class="cls-3"
     d="M.41,284.05V156.94c8.51.25,18-.52,25.89.39V169.1c5-8.79,14-15.72,29.43-14.13,31.67,3.27,38.54,54.71,23.93,81.61-5.25,9.68-14.56,16.64-25.5,17.66-10.18.95-18.48-2.49-23.15-7.46-1.28-1.36-2.87-4.09-3.53-3.53-.26,13.47.52,28-.39,40.8Zm29.82-102.4c-4.48,7.89-4.44,36.06-1.18,43.95,1.89,4.57,8.25,10.17,16.09,8.63,11.63-2.29,12.61-21,11.77-36.1-.76-13.57-4-25.88-17.27-23.15A15.19,15.19,0,0,0,30.23,181.65Z"
     id="path72"
     style="fill:#ffffff;fill-opacity:1" />
  <path
     class="cls-3"
     d="M223.05,251.88H195.58c-.56-4.27-1.41-8.26-1.17-13.34-6.94,8.88-15.89,17.05-33.74,15.7-16-1.22-26.39-11.9-25.9-27.86.88-28.47,29.67-32,57.68-33.74,7.64-24.9-29.82-24.41-29-5.1-8.43-1.12-17.66-1.43-25.89-2.75,3-19.12,17.65-28.29,37.27-29.82,19.88-1.54,38.54,3.22,44.33,16.48,4,9.26,2.36,22.25,2.36,34.53C221.48,222.47,220.49,239.07,223.05,251.88Zm-31.39-45.12c-9.8,1.79-22.76,3.69-26.29,12.17-2.81,6.75.24,14.64,5.5,16.87,15.16,6.44,25.93-12.88,21.18-29Z"
     id="path74"
     style="fill:#ffffff;fill-opacity:1" />
  <path
     class="cls-3"
     d="M427.65,251.88H399.4c-.32-15.76.42-35.56,0-53-.3-12.48-1-25.81-16.08-21.58-17.88,5-6.5,54.6-9.81,74.54H345.26V157.33c8-.91,17.65-.14,26.29-.39v14.9C376.26,165,382,156.27,393.13,155s22.06,1.85,27.85,8.64c7.35,8.61,6.67,24.85,6.67,40.8Z"
     id="path76"
     style="fill:#ffffff;fill-opacity:1" />
  <path
     class="cls-3"
     d="M665.21,182.05v69.83H637v-35.7c0-10.24,2.15-27.65-1.57-34.53s-16.88-6-21.19,0c-1.93,2.7-2.49,7.54-2.75,11.38-1.25,18.79.95,40.05,0,58.85H583.22c-.39-14.85.51-36.69,0-53-.19-5.89.11-12.79-1.57-16.48-2.83-6.19-14.68-7.8-20-2.36-5.71,5.83-4.32,21.94-4.32,33.75v38H530.25V156.94c8.64.25,18.3-.52,26.29.39V169.1c3.83-6.63,11.13-13.15,21.18-14.13,14.26-1.38,26.58,5.24,31.39,15.31,6.91-20.05,45.89-20.46,53.75-.4C664.29,173.54,664.3,177.14,665.21,182.05Z"
     id="path78"
     style="fill:#ffffff;fill-opacity:1" />
  <path
     class="cls-3"
     d="M303.87,156.94c9.16.25,19.35-.52,27.85.39v94.55H303.48V158.11C303.44,157.56,303.41,157,303.87,156.94Z"
     id="path80"
     style="fill:#ffffff;fill-opacity:1" />
  <path
     class="cls-3"
     d="M440,156.94H466.3c.71,12.46.39,26.23.39,40.41,0,11.93-2.72,31.51,5.89,34.52,10.08,3.54,18.36-5,19.22-13.34,1.85-17.86-1.72-44.13.39-61.59h27.86v94.94H493.76V238.54c-3.12,4.34-6.95,10.31-12.55,13-8,3.76-20.69,3.59-27.07,1.18-25-9.45-11.31-64-14.91-94.56A1.06,1.06,0,0,1,440,156.94Z"
     id="path82"
     style="fill:#ffffff;fill-opacity:1" />
  <path
     class="cls-4"
     d="M37.51,304.84V277.67H49.56a16.23,16.23,0,0,1,5.52.73,6,6,0,0,1,3,2.59,7.64,7.64,0,0,1,1.13,4.09A6.83,6.83,0,0,1,57.36,290a9.48,9.48,0,0,1-5.78,2.52,9.78,9.78,0,0,1,2.17,1.35,18.82,18.82,0,0,1,3,3.62l4.73,7.39H56.94l-3.6-5.65q-1.58-2.44-2.6-3.74a7.72,7.72,0,0,0-1.82-1.82,5.14,5.14,0,0,0-1.64-.72,10.53,10.53,0,0,0-2-.13H41.11v12.06Zm3.6-15.18h7.73a11.58,11.58,0,0,0,3.85-.51,4.06,4.06,0,0,0,2.11-1.63,4.36,4.36,0,0,0,.73-2.44,4,4,0,0,0-1.4-3.16,6.55,6.55,0,0,0-4.42-1.25h-8.6Z"
     id="path84"
     style="fill:#ffffff;fill-opacity:1" />
  <path
     class="cls-4"
     d="M83.57,304.84V277.67h19.64v3.21h-16v8.32h15v3.19h-15v9.25h16.68v3.2Z"
     id="path86"
     style="fill:#ffffff;fill-opacity:1" />
  <path
     class="cls-4"
     d="M139,294.19V291l11.51,0v10.08a20.31,20.31,0,0,1-5.47,3.18,16.21,16.21,0,0,1-5.78,1.07,15.48,15.48,0,0,1-7.28-1.72,11.33,11.33,0,0,1-4.94-5,15.59,15.59,0,0,1-1.66-7.24A16.76,16.76,0,0,1,127,284a11,11,0,0,1,4.77-5.1,14.83,14.83,0,0,1,7.17-1.67,14.33,14.33,0,0,1,5.33,1,8.88,8.88,0,0,1,3.73,2.66,11.71,11.71,0,0,1,2.06,4.45l-3.24.89a10.22,10.22,0,0,0-1.52-3.26,6.2,6.2,0,0,0-2.6-1.9,9.41,9.41,0,0,0-3.74-.72,10.81,10.81,0,0,0-4.26.76,7.83,7.83,0,0,0-2.9,2,9.26,9.26,0,0,0-1.72,2.69,14.23,14.23,0,0,0-1,5.46,13.3,13.3,0,0,0,1.25,6.08,8,8,0,0,0,3.65,3.64,11.24,11.24,0,0,0,5.07,1.18,13.41,13.41,0,0,0,7.94-2.81v-5.06Z"
     id="path88"
     style="fill:#ffffff;fill-opacity:1" />
  <path
     class="cls-4"
     d="M175,304.84V277.67h3.59v27.17Z"
     id="path90"
     style="fill:#ffffff;fill-opacity:1" />
  <path
     class="cls-4"
     d="M202.07,296.11l3.39-.29a7.41,7.41,0,0,0,1.12,3.34,6.09,6.09,0,0,0,2.74,2.11,10.27,10.27,0,0,0,4.17.81,9.94,9.94,0,0,0,3.63-.61,5,5,0,0,0,2.34-1.68,3.83,3.83,0,0,0,.77-2.32,3.57,3.57,0,0,0-.74-2.24,5.49,5.49,0,0,0-2.45-1.6,45.45,45.45,0,0,0-4.83-1.33,24.88,24.88,0,0,1-5.25-1.69,7.34,7.34,0,0,1-2.9-2.53,6.18,6.18,0,0,1-.95-3.38,7,7,0,0,1,1.16-3.85,7.3,7.3,0,0,1,3.41-2.72,13.12,13.12,0,0,1,5-.92,13.62,13.62,0,0,1,5.33,1,7.69,7.69,0,0,1,3.55,2.86,8.2,8.2,0,0,1,1.33,4.29l-3.44.26a5.6,5.6,0,0,0-1.89-3.9,7.33,7.33,0,0,0-4.73-1.31,7.67,7.67,0,0,0-4.76,1.19,3.6,3.6,0,0,0-1.49,2.88,3.07,3.07,0,0,0,1.06,2.41q1,.94,5.42,1.94a36,36,0,0,1,6,1.73,8.32,8.32,0,0,1,3.51,2.77,6.8,6.8,0,0,1,1.13,3.87,7.48,7.48,0,0,1-1.24,4.09,8.25,8.25,0,0,1-3.57,3,12.45,12.45,0,0,1-5.24,1.07,15.55,15.55,0,0,1-6.18-1.08,8.7,8.7,0,0,1-3.91-3.23A9.23,9.23,0,0,1,202.07,296.11Z"
     id="path92"
     style="fill:#ffffff;fill-opacity:1" />
  <path
     class="cls-4"
     d="M253.44,304.84v-24h-9v-3.21H266v3.21h-9v24Z"
     id="path94"
     style="fill:#ffffff;fill-opacity:1" />
  <path
     class="cls-4"
     d="M288.26,304.84V277.67h12a16.25,16.25,0,0,1,5.53.73,6.06,6.06,0,0,1,3,2.59,7.72,7.72,0,0,1,1.13,4.09,6.83,6.83,0,0,1-1.87,4.88,9.51,9.51,0,0,1-5.79,2.52,9.32,9.32,0,0,1,2.17,1.35,18.85,18.85,0,0,1,3,3.62l4.72,7.39h-4.52l-3.59-5.65c-1.06-1.63-1.92-2.88-2.6-3.74a7.92,7.92,0,0,0-1.83-1.82,5,5,0,0,0-1.64-.72,10.39,10.39,0,0,0-2-.13h-4.17v12.06Zm3.59-15.18h7.73a11.64,11.64,0,0,0,3.86-.51,4.1,4.1,0,0,0,2.11-1.63,4.43,4.43,0,0,0,.72-2.44,4,4,0,0,0-1.4-3.16,6.52,6.52,0,0,0-4.42-1.25h-8.6Z"
     id="path96"
     style="fill:#ffffff;fill-opacity:1" />
  <path
     class="cls-4"
     d="M332.87,304.84l10.43-27.17h3.88l11.12,27.17h-4.1L351,296.61H339.67l-3,8.23Zm7.84-11.16h9.21l-2.84-7.52c-.86-2.29-1.5-4.16-1.92-5.63a34.87,34.87,0,0,1-1.47,5.18Z"
     id="path98"
     style="fill:#ffffff;fill-opacity:1" />
  <path
     class="cls-4"
     d="M383.4,304.84v-24h-8.95v-3.21H396v3.21h-9v24Z"
     id="path100"
     style="fill:#ffffff;fill-opacity:1" />
  <path
     class="cls-4"
     d="M418.47,304.84V277.67h3.6v27.17Z"
     id="path102"
     style="fill:#ffffff;fill-opacity:1" />
  <path
     class="cls-4"
     d="M445.8,291.61q0-6.76,3.63-10.59a12.36,12.36,0,0,1,9.38-3.83,13,13,0,0,1,6.78,1.8,11.76,11.76,0,0,1,4.61,5,16.37,16.37,0,0,1,1.58,7.29,15.93,15.93,0,0,1-1.67,7.4,11.39,11.39,0,0,1-4.72,4.94,13.5,13.5,0,0,1-6.6,1.68,12.83,12.83,0,0,1-6.86-1.86,11.92,11.92,0,0,1-4.58-5.06A15.44,15.44,0,0,1,445.8,291.61Zm3.7.05a10.88,10.88,0,0,0,2.64,7.74,9.21,9.21,0,0,0,13.31,0q2.63-2.85,2.63-8.09a13.89,13.89,0,0,0-1.13-5.8,8.5,8.5,0,0,0-3.28-3.83,8.87,8.87,0,0,0-4.84-1.37,9.18,9.18,0,0,0-6.57,2.63Q449.5,285.54,449.5,291.66Z"
     id="path104"
     style="fill:#ffffff;fill-opacity:1" />
  <path
     class="cls-4"
     d="M495.14,304.84V277.67h3.69L513.1,299V277.67h3.45v27.17h-3.69l-14.27-21.35v21.35Z"
     id="path106"
     style="fill:#ffffff;fill-opacity:1" />
  <path
     class="cls-4"
     d="M524.07,304.84V301h3.8v3.8a6.75,6.75,0,0,1-.74,3.38,4.86,4.86,0,0,1-2.36,2l-.93-1.43a3.13,3.13,0,0,0,1.56-1.36,5.76,5.76,0,0,0,.56-2.59Z"
     id="path108"
     style="fill:#ffffff;fill-opacity:1" />
  <path
     class="cls-4"
     d="M568.1,304.84V277.67h3.6v27.17Z"
     id="path110"
     style="fill:#ffffff;fill-opacity:1" />
  <path
     class="cls-4"
     d="M596.57,304.84V277.67h3.69L614.53,299V277.67H618v27.17h-3.69L600,283.49v21.35Z"
     id="path112"
     style="fill:#ffffff;fill-opacity:1" />
  <path
     class="cls-4"
     d="M662.07,295.32l3.59.9A12.11,12.11,0,0,1,661.6,303a11.24,11.24,0,0,1-7.19,2.33,12.89,12.89,0,0,1-7.14-1.79,11.2,11.2,0,0,1-4.19-5.18,18.45,18.45,0,0,1-1.44-7.29,16,16,0,0,1,1.62-7.4,11.11,11.11,0,0,1,4.62-4.8,13.42,13.42,0,0,1,6.59-1.64,11.18,11.18,0,0,1,6.86,2.07,10.82,10.82,0,0,1,3.87,5.84l-3.54.84a8.37,8.37,0,0,0-2.74-4.32,7.34,7.34,0,0,0-4.53-1.36,8.79,8.79,0,0,0-5.23,1.51,7.94,7.94,0,0,0-3,4,16.12,16.12,0,0,0-.85,5.21,16.73,16.73,0,0,0,1,6.06A7.5,7.5,0,0,0,649.5,301a8.84,8.84,0,0,0,4.62,1.28,7.72,7.72,0,0,0,5.11-1.74A8.94,8.94,0,0,0,662.07,295.32Z"
     id="path114"
     style="fill:#ffffff;fill-opacity:1" />
  <path
     class="cls-4"
     d="M670.79,304.84V301h3.8v3.8Z"
     id="path116"
     style="fill:#ffffff;fill-opacity:1" />
  <path
     class="cls-1"
     d="M159.74,417.45c-.85-6-6.63-10.62-13.26-10.62-12,0-16.48,10.2-16.48,20.82,0,10.11,4.5,20.31,16.48,20.31,8.16,0,12.75-5.61,13.77-13.6h12.91c-1.36,15.13-11.81,24.82-26.68,24.82-18.78,0-29.82-14-29.82-31.53,0-18,11-32,29.82-32,13.34,0,24.56,7.82,26.17,21.83Z"
     id="path118"
     style="fill:#ffffff;fill-opacity:1" />
  <path
     class="cls-1"
     d="M182.25,397.06h45.38v11.22h-32v13H225v10.37H195.6v14.87h32.71v11.21H182.25Z"
     id="path120"
     style="fill:#ffffff;fill-opacity:1" />
  <path
     class="cls-1"
     d="M237.32,397.06H270c10.88,0,17.76,7.56,17.76,16.74,0,7.14-2.89,12.49-9.6,15.21v.17c6.54,1.7,8.41,8.07,8.84,14.19.25,3.83.17,11,2.55,14.36H276.23c-1.61-3.82-1.44-9.69-2.12-14.53-.93-6.37-3.4-9.18-10.11-9.18H250.66v23.71H237.32Zm13.34,27.45h14.61c6,0,9.18-2.55,9.18-8.67,0-5.86-3.23-8.41-9.18-8.41H250.66Z"
     id="path122"
     style="fill:#ffffff;fill-opacity:1" />
  <path
     class="cls-1"
     d="M310.56,408.28H292.38V397.06h49.71v11.22H323.9v49.45H310.56Z"
     id="path124"
     style="fill:#ffffff;fill-opacity:1" />
  <path
     class="cls-1"
     d="M349.05,397.06H362.4v60.67H349.05Z"
     id="path126"
     style="fill:#ffffff;fill-opacity:1" />
  <path
     class="cls-1"
     d="M374.12,397.06h42.66v11.22H387.46v14h25.41v10.37H387.46v25.06H374.12Z"
     id="path128"
     style="fill:#ffffff;fill-opacity:1" />
  <path
     class="cls-1"
     d="M424.51,397.06h13.34v60.67H424.51Z"
     id="path130"
     style="fill:#ffffff;fill-opacity:1" />
  <path
     class="cls-1"
     d="M449.58,397.06H495v11.22h-32v13h29.4v10.37h-29.4v14.87h32.71v11.21H449.58Z"
     id="path132"
     style="fill:#ffffff;fill-opacity:1" />
  <path
     class="cls-1"
     d="M504.64,397.06h26.17c15.72,0,27.53,9.86,27.53,30,0,17.59-9,30.67-27.53,30.67H504.64ZM518,446.52h11.9c7.73,0,15.12-4.76,15.12-18.19,0-12.23-4.25-20.05-17.5-20.05H518Z"
     id="path134"
     style="fill:#ffffff;fill-opacity:1" />
</svg>
