<?xml version="1.0" encoding="utf-8"?>
<!-- Generator: Adobe Illustrator 23.0.2, SVG Export Plug-In . SVG Version: 6.00 Build 0)  -->
<svg version="1.1" id="Layer_1" xmlns="http://www.w3.org/2000/svg" xmlns:xlink="http://www.w3.org/1999/xlink" x="0px" y="0px"
	 viewBox="0 0 3000 2000" style="enable-background:new 0 0 3000 2000;" xml:space="preserve">
<style type="text/css">
	.st0{fill:#1D376B;}
	.st1{fill:#FDFDFD;}
</style>
<path d="M2808,784.13c0,143.74,0,287.49,0,431.23c-0.85,0.17-0.71,0.85-0.75,1.44c-1.16,15.78-4.17,31.2-9.18,46.2
	c-7.68,23.02-19.68,43.41-38.05,59.49c-22.79,19.95-49.88,29.19-79.89,29.2c-776.63,0.09-1553.26,0.07-2329.89,0.08
	c-5.59,0-11.15-0.21-16.71-0.75c-40.47-3.88-74.45-21.02-101.58-51.04c-26.98-29.85-40.03-65.44-40.06-105.6
	c-0.11-124.56-0.05-249.12-0.02-373.68c0-7.46,0.07-14.92,0.27-22.38c0.7-26.45,7.42-51.19,21.03-73.83
	c26.3-43.74,64.76-69.38,115.46-76.49c3.1-0.44,6.39,0.17,9.33-1.37c783.24,0,1566.48,0,2349.72,0c2.2,1.48,4.76,0.77,7.13,1.06
	c34.09,4.25,61.85,19.57,82.42,47.25c16.2,21.8,24.58,46.73,28.58,73.35C2806.59,773.56,2806.48,778.96,2808,784.13z
	 M1512.79,660.07c-387.62,0-775.25,0-1162.87-0.02c-7.84,0-15.62,0.29-23.39,1.49c-28.19,4.34-52.83,16.2-74,35.16
	c-14.91,13.35-26.51,29.22-34.77,47.51c-8.08,17.89-12.63,36.65-12.65,56.25c-0.12,132.28-0.06,264.56-0.07,396.84
	c0,6.72,0.55,13.44,1.65,20.02c5.72,34.06,21.21,62.84,47.3,85.67c26.8,23.45,58.11,35.63,93.68,35.63
	c776.75,0.08,1553.49,0.06,2330.24,0.06c6.09,0,12.13-0.48,18.16-1.41c38.79-5.98,65.7-27.83,82.76-62.42
	c11.41-23.13,16.15-48.08,16.21-73.61c0.29-131.03,0.12-262.07,0.15-393.11c0-11.81-0.52-23.56-2.11-35.28
	c-2.79-20.65-8.46-40.41-19.22-58.35c-21.35-35.57-52.8-54.36-94.45-54.37C2290.53,660.02,1901.66,660.07,1512.79,660.07z"/>
<path class="st0" d="M1512.79,660.07c388.87,0,777.74-0.05,1166.61,0.07c41.65,0.01,73.1,18.8,94.45,54.37
	c10.77,17.94,16.43,37.7,19.22,58.35c1.58,11.71,2.11,23.47,2.11,35.28c-0.03,131.04,0.14,262.07-0.15,393.11
	c-0.06,25.53-4.8,50.47-16.21,73.61c-17.06,34.59-43.97,56.44-82.76,62.42c-6.03,0.93-12.07,1.41-18.16,1.41
	c-776.75,0-1553.49,0.02-2330.24-0.06c-35.58,0-66.88-12.18-93.68-35.63c-26.09-22.83-41.59-51.61-47.3-85.67
	c-1.1-6.58-1.65-13.29-1.65-20.02c0.01-132.28-0.05-264.56,0.07-396.84c0.02-19.6,4.57-38.36,12.65-56.25
	c8.26-18.29,19.86-34.16,34.77-47.51c21.17-18.96,45.81-30.83,74-35.16c7.77-1.19,15.55-1.49,23.39-1.49
	C737.54,660.07,1125.17,660.07,1512.79,660.07z M1509.71,737.67c-367.07,0-734.13,0.01-1101.2-0.03c-18.91,0-37.74,0.7-56.41,3.85
	c-17.74,3-34.91,7.71-50.5,17.09c-13,7.83-23.22,18.16-29.48,32.19c-4.9,10.98-6.79,22.5-6.79,34.44
	c0.01,112.85,0.01,225.7,0,338.54c0,11.44-0.03,22.86,1.55,34.23c1.63,11.79,4.68,23.18,10.21,33.71
	c11.63,22.13,31.04,34.22,54.25,41.28c22.69,6.9,46.1,8.79,69.55,8.79c698.88,0.14,1397.77,0.13,2096.65,0.06
	c41.33,0,82.66,0.79,123.99-0.54c15.75-0.51,31.14-2.84,45.98-8.23c20.75-7.53,36.59-20.58,46.25-40.8
	c8.05-16.85,11.14-34.82,11.17-53.15c0.24-118.95,0.15-237.9,0.08-356.85c-0.01-11.81-1.29-23.53-4.5-34.97
	c-5.33-18.96-16.55-32.84-35-40.42c-13.02-5.35-26.8-7.19-40.67-8.28c-15.14-1.19-30.33-0.93-45.51-0.93
	C2236.12,737.67,1872.91,737.67,1509.71,737.67z"/>
<path d="M1509.71,737.67c363.2,0,726.41,0,1089.61,0c15.18,0,30.37-0.27,45.51,0.93c13.87,1.09,27.65,2.93,40.67,8.28
	c18.45,7.58,29.68,21.46,35,40.42c3.21,11.43,4.49,23.15,4.5,34.97c0.06,118.95,0.15,237.9-0.08,356.85
	c-0.04,18.32-3.12,36.3-11.17,53.15c-9.66,20.21-25.5,33.27-46.25,40.8c-14.84,5.39-30.23,7.72-45.98,8.23
	c-41.33,1.33-82.66,0.54-123.99,0.54c-698.88,0.07-1397.77,0.08-2096.65-0.06c-23.45,0-46.86-1.9-69.55-8.79
	c-23.21-7.06-42.62-19.14-54.25-41.28c-5.53-10.53-8.58-21.92-10.21-33.71c-1.58-11.37-1.55-22.8-1.55-34.23
	c0.01-112.85,0.01-225.7,0-338.54c0-11.93,1.88-23.46,6.79-34.44c6.26-14.02,16.48-24.36,29.48-32.19
	c15.59-9.39,32.77-14.1,50.5-17.09c18.67-3.15,37.51-3.86,56.41-3.85C775.58,737.68,1142.64,737.67,1509.71,737.67z M1509.52,750.87
	c-369.06,0-738.12,0.01-1107.18-0.02c-11.19,0-22.35,0.35-33.47,1.53c-19.3,2.06-38.24,5.65-55.64,14.78
	c-22.65,11.88-34.67,30.57-34.68,56.34c-0.07,117.21-0.02,234.41-0.05,351.62c0,9.59,0.74,19.08,2.68,28.46
	c3.86,18.69,12.51,34.4,28.65,45.36c10.84,7.36,23.01,11.45,35.66,14.34c20.83,4.77,42.06,5.48,63.27,5.48
	c736.49-0.17,1472.97,0.56,2209.46-0.36c13.71-0.02,27.23-1.92,40.35-6.03c23.61-7.39,39.88-22.42,47.55-46.25
	c4.18-13,5.79-26.43,5.8-39.99c0.09-117.95,0.07-235.91,0.01-353.86c-0.01-9.68-0.96-19.31-3.32-28.76
	c-4.48-17.99-15.14-30.32-32.94-36.13c-15.89-5.19-32.38-6.42-48.89-6.42C2254.37,750.84,1881.95,750.87,1509.52,750.87z"/>
<path class="st0" d="M2024.91,974.97c7.92,2.03,15.15,4.07,21.34,8.62c7.36,5.4,11.72,12.27,11.44,21.76
	c-0.22,7.22-0.41,14.47,0.03,21.67c0.99,16.21-6.91,27.09-20.09,35.07c-13.93,8.43-29.29,11.84-45.3,13.15
	c-5.47,0.45-10.93,0.36-16.4,0.36c-58.66,0.01-117.32,0.02-175.98-0.01c-5.72,0-11.44-0.34-17.15-0.33c-2.02,0-2.68-0.69-2.44-2.58
	c0.08-0.61,0.01-1.24,0.01-1.87c0-62.4,0.03-124.79-0.08-187.19c-0.01-3.4,0.83-4.26,4.24-4.25c62.02,0.11,124.05-0.1,186.07,0.19
	c18.7,0.09,36.91,3.43,52.82,14.24c8.56,5.82,15.79,12.93,18.08,23.64c0.49,2.28,0.71,4.66,0.78,7c0.23,8.33-0.23,16.66,0.39,24.99
	c0.66,8.84-3.17,15.63-10.22,20.72C2030.24,971.73,2027.86,973.09,2024.91,974.97z M1918.98,1031.51c24.52,0,49.04-0.05,73.55,0.06
	c2.73,0.01,3.62-0.56,3.55-3.44c-0.21-8.58-0.12-17.17-0.04-25.76c0.02-2.07-0.24-3.07-2.77-3.06
	c-49.41,0.08-98.82,0.07-148.22,0.02c-2.09,0-2.73,0.54-2.7,2.67c0.12,8.71,0.18,17.43-0.03,26.13c-0.07,2.83,0.71,3.46,3.48,3.45
	C1870.19,1031.46,1894.59,1031.51,1918.98,1031.51z M1911.51,955.28c22.03,0,44.07-0.04,66.1,0.05c2.37,0.01,3.16-0.52,3.12-3.03
	c-0.16-8.84-0.13-17.68-0.02-26.51c0.03-2.11-0.57-2.7-2.69-2.69c-44.32,0.06-88.63,0.07-132.95-0.02
	c-2.55-0.01-2.74,0.99-2.72,3.04c0.09,8.59,0.16,17.18-0.03,25.77c-0.07,2.79,0.66,3.48,3.46,3.47
	C1867.69,955.22,1889.6,955.28,1911.51,955.28z"/>
<path class="st0" d="M861.85,995.61c0,15.57,0,30.12,0,44.66c0,6.97-0.32,13.97,0.08,20.92c0.48,8.28-3.1,14.62-8.46,20.32
	c-9.59,10.19-21.72,16.44-34.36,21.83c-24.03,10.23-49.35,15.7-74.95,20.04c-27.28,4.62-54.8,7.23-82.4,8.97
	c-20.45,1.29-40.94,2.23-61.44,1.88c-45.71-0.78-90.88-5.63-134.77-19.08c-24.52-7.51-47.81-17.68-69.42-31.85
	c-10.81-7.09-13.46-17.12-14.82-28.43c-2.28-18.94-2.21-37.94-1.51-56.96c0.26-7.07,0.54-14.15,0.73-21.23
	c0.04-1.63,0.25-3.17,0.94-5.51c2.09,5.89,3.76,11.15,6.46,15.98c8.45,15.11,21.49,25.2,36.47,33.04
	c21.79,11.4,45.31,17.45,69.33,21.79c22.25,4.02,44.7,6.13,67.25,7.57c25.98,1.66,51.97,1.72,77.95,1.3
	c27.79-0.45,55.54-2.24,83.12-5.9c35.65-4.74,70.78-11.66,103.93-26.24C838.83,1013.05,851.11,1006.35,861.85,995.61z"/>
<path class="st0" d="M1608.18,1075.6c-30.26,0-60.53,0.22-90.79-0.09c-17.58-0.18-32.63-6.24-42.59-21.67
	c-6.03-9.34-8.84-19.9-10.53-30.75c-3.75-24.09-2.75-48.34-2.26-72.56c0.27-13.57,1.6-26.98,5.99-39.94
	c6.23-18.39,20.39-29.38,39.84-30.78c3.47-0.25,6.95-0.36,10.43-0.36c59.91-0.02,119.81-0.02,179.72-0.01
	c6.01,0,11.92,0.8,17.62,2.63c12.87,4.13,20.2,13.37,23.66,26.1c2.33,8.56,3.23,17.33,3.28,26.14c0.07,14.43-0.14,28.87-0.14,43.3
	c0,14.31,0.24,28.63,0.14,42.94c-0.07,9.68-1.1,19.29-4,28.64c-4.78,15.37-15.56,23.34-31.05,25.66c-3.93,0.59-7.89,0.79-11.88,0.78
	C1666.46,1075.58,1637.32,1075.6,1608.18,1075.6z M1606.2,1031.51c22.28,0,44.56-0.05,66.85,0.06c2.7,0.01,3.53-0.51,3.52-3.4
	c-0.12-33.86-0.11-67.72-0.01-101.58c0.01-2.67-0.46-3.54-3.38-3.53c-44.44,0.11-88.88,0.1-133.32,0.02c-2.66,0-3.6,0.46-3.59,3.4
	c0.12,33.86,0.11,67.72,0.01,101.58c-0.01,2.72,0.58,3.55,3.46,3.53C1561.88,1031.45,1584.04,1031.51,1606.2,1031.51z"/>
<path class="st0" d="M1056.48,883.18c35.63,0,65.02-0.01,94.41,0.01c13.85,0.01,31.06,12.9,34.98,26.14
	c1.34,4.53,1.08,5.09-3.38,6.17c-11.3,2.72-22.85,3.59-34.38,3.42c-56.39-0.82-112.77-0.59-169.16-0.75
	c-3.7-0.01-4.75,0.78-4.73,4.64c0.17,36.49,0.14,72.98,0.03,109.47c-0.01,3.16,0.6,4.21,4.03,4.2c41.35-0.13,82.69-0.13,124.04,0
	c3.38,0.01,4.09-0.92,4.02-4.13c-0.23-9.33-0.31-18.69,0.04-28.01c0.13-3.58-1.39-4.21-4.2-4.21c-7.85,0-15.7,0.19-23.54-0.04
	c-14.63-0.43-29.23-1.37-43.46-5.2c-11.59-3.12-22.07-8.23-30.36-17.19c-3.71-4.01-6.09-8.66-6.98-14.11
	c-0.41-2.52,0-3.86,2.86-3.42c0.37,0.06,0.75,0.01,1.12,0.01c58.16,0,116.32,0.03,174.48-0.07c3.27-0.01,4.44,0.63,4.39,4.21
	c-0.3,20.78-0.15,41.58-0.54,62.36c-0.14,7.58-0.04,15.17-0.34,22.75c-0.28,6.96-4.31,12.1-9.22,16.44
	c-7.07,6.25-15.72,8.61-24.98,9.39c-7.21,0.61-14.4,0.01-21.6,0c-50.94-0.07-101.87,0.09-152.81-0.12
	c-14.77-0.06-29.47-1.59-43.61-6.33c-5.92-1.99-11.51-4.62-16.08-9.07c-4.25-4.13-6.3-9.13-6.3-15.02
	c0-43.71,0.02-87.43-0.03-131.14c0-4.7,1.64-8.2,5.49-11.11c16.83-12.72,35.65-18.79,56.8-19.04
	C999.22,883.03,1030.97,883.5,1056.48,883.18z"/>
<path class="st0" d="M2226.93,879.44c34.37,0,68.75-0.03,103.12,0.02c10.57,0.01,21.14,0.34,31.71,0.26
	c2.84-0.02,3.48,0.74,3.47,3.51c-0.11,29.52-0.07,59.03-0.07,88.55c0,33.13-0.07,66.26,0.1,99.38c0.02,3.37-1.18,4.43-4.1,4.41
	c-8.09-0.06-16.17-0.19-24.26-0.24c-9.71-0.07-19.42-0.22-29.13-0.05c-3.24,0.05-4.37-0.59-4.34-4.16
	c0.19-23.41,0.03-46.83,0.18-70.24c0.02-3.14-0.78-3.83-3.86-3.82c-48.57,0.11-97.14,0.11-145.71-0.01
	c-3.19-0.01-3.81,0.86-3.81,3.89c0.02,9.07,0.62,18.17-0.3,27.23c-1.77,17.34-11.12,29.66-25.9,38.11c-9.84,5.63-20.5,8.65-31.93,9
	c-3.09,0.09-3.91-0.69-3.89-3.84c0.13-32.38,0.08-64.76,0.08-97.14c0-23.79,0-47.57,0-71.36c0-10.26,4.66-17.1,14.24-20.83
	c4.56-1.78,9.29-2.66,14.19-2.66C2153.45,879.45,2190.19,879.44,2226.93,879.44z M2226.87,956.03c24.52,0,49.03-0.03,73.55,0.04
	c2.28,0.01,3.23-0.36,3.18-2.97c-0.18-8.83-0.15-17.67-0.01-26.51c0.04-2.39-0.55-3.16-3.06-3.16c-49.03,0.07-98.07,0.08-147.1-0.01
	c-2.8-0.01-3.2,1-3.16,3.44c0.13,8.59,0.18,17.18-0.02,25.76c-0.06,2.77,0.62,3.49,3.45,3.48
	C2178.08,955.98,2202.48,956.03,2226.87,956.03z"/>
<path class="st0" d="M452.54,857.6c-8.3,16.62,0.06,31.06,11.89,40.14c13.3,10.21,28.81,15.4,44.81,19.37
	c21.51,5.34,43.44,7.65,65.51,9.09c15.01,0.98,30.04,1.46,45.05,1.33c33.89-0.28,67.77-1.34,101.36-6.61
	c18.31-2.87,36.38-6.64,53.38-14.34c7.29-3.3,14.03-7.51,19.36-13.62c5.29-6.07,7.75-12.92,5.32-20.98
	c-0.17-0.57-0.49-1.15,0.1-1.93c6.59,5.14,12.06,11.38,17.52,17.61c11.13,12.69,20.44,26.53,26.3,42.49
	c2.54,6.93,4.02,14.09,4.44,21.45c0.18,3.17-1.66,5.34-3.85,7.27c-8.93,7.85-19.59,12.55-30.59,16.52
	c-28.06,10.14-57.3,14.92-86.74,18.73c-22.27,2.89-44.65,4.6-67.06,5.91c-14.51,0.85-29.06,0.94-43.58,1.6
	c-13.93,0.63-27.86,0.41-41.78-0.09c-39.52-1.41-78.72-5.11-116.5-17.86c-15.13-5.1-29.53-11.72-42.05-21.84
	c-3.18-2.57-6.05-5.56-8.86-8.54c-7.46-7.91-7.64-17.38-5.42-27.23c2.56-11.34,8.22-21.21,14.89-30.57
	c10.29-14.45,22.32-27.29,35.81-38.79C452.08,857.02,452.31,857.31,452.54,857.6z"/>
<path class="st0" d="M832.2,1131.14c-3.72,10.97-10.02,20.47-17.33,29.28c-18.1,21.8-41.39,36-67.72,45.62
	c-24.34,8.88-49.57,13.3-75.35,14.91c-40.41,2.51-80.58-0.54-120.65-5.5c-24.43-3.02-48.5-7.73-71.64-16.42
	c-19.23-7.22-36.49-17.44-50.06-33.19c-9.31-10.82-16.07-23.22-22.12-36.05c-2.1-4.44-4.15-8.91-5.7-13.68
	c3.28,3.05,6.39,6.32,9.87,9.12c16.1,12.94,34.72,21.01,54.18,27.28c28.23,9.1,57.32,13.78,86.78,16.58
	c27.26,2.59,54.58,3.42,81.92,2.89c40.95-0.8,81.83-2.8,122.22-10.36c19.18-3.59,38.07-8.16,55.67-16.95
	c7.28-3.63,13.94-8.11,19.18-14.46C831.72,1130.5,831.96,1130.82,832.2,1131.14z"/>
<path class="st0" d="M1358.54,1075.21c-25.03,0-50.07,0.11-75.1-0.04c-17.43-0.1-32.3-6.64-45.02-18.52
	c-15.68-14.65-22.53-32.69-22.39-53.99c0.25-38.23,0.12-76.47-0.01-114.7c-0.01-3.54,0.82-4.27,4.36-3.89
	c12.34,1.32,21.94,7.23,29.78,16.53c4.73,5.61,8.88,11.64,13.01,17.69c5.38,7.9,7.03,16.86,7.07,26.18
	c0.08,19.93,0.02,39.85,0.02,59.78c0,11.88,4.89,16.8,16.69,16.8c25.41,0,50.81-0.08,76.22,0.03c13.86,0.06,27.52,1.73,40.25,7.65
	c14.52,6.74,26.99,15.85,33.52,31.22c1.61,3.79,2.25,7.82,2.7,11.93c0.33,3.01-0.77,3.39-3.4,3.39
	C1410.35,1075.17,1384.45,1075.21,1358.54,1075.21z"/>
<path class="st0" d="M2543.81,1075.21c-24.66,0-49.32,0.1-73.98-0.03c-26.62-0.14-45.99-12.99-59.71-35.06
	c-6.51-10.48-9.01-22.23-9.02-34.48c-0.04-39.23,0.03-78.47-0.09-117.7c-0.01-3.67,1.03-4.17,4.49-3.83
	c11.54,1.14,20.77,6.53,28.31,14.92c6.39,7.12,11.98,14.94,16.67,23.29c3.65,6.5,4.71,13.82,4.74,21.2
	c0.08,20.3,0.02,40.6,0.03,60.91c0,11.58,5.05,16.63,16.57,16.63c25.41,0,50.82-0.07,76.23,0.03c15.55,0.06,30.69,2.3,44.65,9.69
	c10.91,5.77,20.44,13.17,26.79,24.05c3.31,5.68,4.82,11.9,5.35,18.41c0.12,1.49-0.33,2.08-1.8,1.99c-0.87-0.05-1.74,0-2.61,0
	C2594.87,1075.21,2569.34,1075.21,2543.81,1075.21z"/>
<path class="st0" d="M663.46,800.03c33.1-2.22,63.28,5.55,89.67,26.13c5.08,3.96,9.85,8.27,14.19,13.07
	c4.03,4.46,4.44,7.4,1.1,12.55c-5.35,8.24-13.72,12.42-22.35,15.99c-21.18,8.76-43.58,12.45-66.13,15.32
	c-14.15,1.8-28.39,2.63-42.67,3.12c-29.73,1.02-59.31-0.52-88.65-5.21c-14.14-2.26-27.42-7.7-40.42-13.64
	c-7.46-3.41-14.74-7.13-20.64-13.05c-8.14-8.17-8.19-14.78-0.27-23.16c7.65-8.1,17.1-13.52,27.04-18.2
	c11.36-5.35,23.25-9.2,35.39-12.32c0.58-0.15,1.2-0.17,2.19-0.31c-0.72,1.71-2.12,1.9-3.16,2.48c-7.25,4.06-14.64,7.93-20.13,14.4
	c-4.55,5.36-3.87,9.84,2.01,13.64c7.27,4.7,15.62,6.36,23.92,7.78c16.9,2.9,34.01,4.76,51.11,4.05
	c27.66-1.15,55.21-3.78,81.86-12.09c4.04-1.26,7.97-2.87,11.52-5.17c5.44-3.52,5.55-7.14,0.46-11.12
	c-4.76-3.72-10.3-5.88-15.91-7.88C676.96,804.03,670.23,801.98,663.46,800.03z"/>
<path class="st0" d="M963.66,1185.82c-10.88-0.3-24.33,0.61-37.75-0.41c-6-0.46-11.72-2.06-16.29-6.47
	c-2.95-2.85-4.4-6.26-4.41-10.3c-0.02-15.94-0.01-31.88-0.01-47.83c0-4.78,2.43-8.2,6.13-10.89c6.52-4.75,13.95-7.25,21.89-7.33
	c22.79-0.22,45.59-0.22,68.38,0c7.24,0.07,14.35,1.51,20.35,6.11c3.75,2.88,5.3,6.72,4.8,11.41c-0.08,0.74-0.11,1.49-0.12,2.23
	c-0.14,7.81-0.14,7.81-7.8,7.81c-3.24,0-6.48-0.08-9.71,0.03c-1.78,0.06-2.73-0.24-2.68-2.38c0.06-2.58,1.2-6.07-0.48-7.54
	c-1.96-1.71-5.46-0.54-8.29-0.55c-17.44-0.05-34.87,0-52.31-0.04c-3.85-0.01-7.7-0.19-11.54-0.4c-1.97-0.11-2.89,0.35-2.9,2.63
	c-0.03,16.67-0.16,33.35-0.35,50.02c-0.02,2.07,0.5,2.8,2.67,2.77c23.52-0.32,47.04-0.57,70.55-0.75c2.15-0.02,2.82-0.71,2.73-2.8
	c-0.14-3.23,0.04-6.48-0.06-9.71c-0.05-1.75,0.44-2.29,2.3-2.18c5.08,0.3,10.18,0.44,15.27,0.4c2.29-0.02,2.56,1,2.62,2.93
	c0.39,14.09-9.22,23.13-24.94,23.22C989.89,1185.87,978.05,1185.82,963.66,1185.82z"/>
<path class="st0" d="M1885.76,1124.51c11.69,0.38,23.39-0.46,35.07,0.43c7.85,0.6,10.47,3.42,10.48,11.37
	c0.01,6.83-0.25,13.67-0.36,20.5c-0.09,5.2,0.78,10.38,0.03,15.61c-1.08,7.55-4.06,10.92-11.62,11.55
	c-5.56,0.46-11.18,0.33-16.77,0.34c-15.18,0.04-30.37,0.03-45.55,0.01c-11.65-0.01-17.75-4.89-19.94-16.39
	c-2.04-10.69-1.99-21.5-0.57-32.25c0.88-6.7,5.3-10.23,12.69-10.74C1861.39,1124.1,1873.58,1124.86,1885.76,1124.51z
	 M1886.5,1134.64c-7.21,0-14.43,0.03-21.64-0.02c-1.7-0.01-2.73,0.09-2.73,2.33c0,11.43-0.15,22.87-0.33,34.3
	c-0.03,1.8,0.53,2.31,2.31,2.3c14.43-0.06,28.86-0.06,43.29,0c1.78,0.01,2.31-0.5,2.32-2.3c0.05-11.31,0.18-22.61,0.39-33.91
	c0.04-2.09-0.54-2.78-2.7-2.74C1900.43,1134.73,1893.47,1134.64,1886.5,1134.64z"/>
<path class="st0" d="M2358.08,1124.52c12.19,0.35,24.39-0.45,36.57,0.45c6.1,0.45,9.39,3.16,9.22,9
	c-0.37,12.55,0.51,25.1-0.24,37.63c-0.51,8.62-3.7,12.26-12.18,12.46c-21.89,0.52-43.81,0.79-65.7-0.15
	c-8.3-0.35-13.53-5.25-15.37-13.34c-2.54-11.11-2.63-22.42-1.2-33.66c1.04-8.16,4.77-11.34,13.06-11.95
	C2334.18,1124.07,2346.14,1124.86,2358.08,1124.52z M2358.37,1176.9c7.09,0,14.18-0.06,21.26,0.04c2.06,0.03,2.82-0.55,2.81-2.72
	c-0.08-13.18-0.08-26.36,0-39.54c0.01-2.18-0.76-2.72-2.82-2.71c-14.05,0.07-28.1,0.08-42.15-0.01c-2.22-0.01-3.02,0.55-3,2.91
	c0.1,13.05,0.1,26.11,0,39.17c-0.02,2.36,0.79,2.94,3.01,2.9C2344.44,1176.82,2351.4,1176.9,2358.37,1176.9z"/>
<path class="st0" d="M2103.79,1125.33c11.7,0,23.4,0.07,35.1-0.06c2.65-0.03,3.66,0.51,3.63,3.44c-0.14,17.17-0.12,34.35-0.02,51.53
	c0.02,2.55-0.6,3.53-3.29,3.39c-4.22-0.21-8.46-0.15-12.69-0.02c-2.15,0.07-2.78-0.71-2.74-2.79c0.11-5.72-0.04-11.45,0.08-17.17
	c0.05-2.25-0.32-3.33-2.99-3.31c-13.19,0.14-26.39,0.1-39.58,0.02c-2.06-0.01-2.93,0.5-2.75,2.69c0.17,2.1,0.21,4.25-0.07,6.33
	c-1.06,7.91-8.17,14.01-16.23,14.2c-1.7,0.04-2.39-0.38-2.38-2.25c0.06-16.55,0-33.11,0.06-49.66c0.02-3.98,2.96-6.29,8.03-6.34
	c9.71-0.08,19.42-0.02,29.12-0.02C2099.31,1125.33,2101.55,1125.33,2103.79,1125.33z M2101.29,1138.73c-5.48,0-10.96,0-16.44,0
	c-6.34,0-6.19,0-6.35,6.17c-0.07,2.64,0.67,3.3,3.28,3.26c11.95-0.15,23.91-0.07,35.86-0.07c6.3,0,6.17,0,6.23-6.29
	c0.03-2.49-0.7-3.2-3.16-3.14C2114.24,1138.84,2107.76,1138.73,2101.29,1138.73z"/>
<path class="st0" d="M505.27,1220.64c0.28-0.55,0.71-0.55,1.22-0.35c20.27,8.02,41.62,11.18,63.05,13.66
	c24.42,2.82,48.96,4.27,73.55,3.76c29.55-0.61,58.92-3.29,87.71-10.46c4.07-1.01,8-2.59,12-3.9c0.22,0.2,0.44,0.39,0.66,0.59
	c-9.57,11.08-22.49,16.4-35.98,20.54c-16.09,4.94-32.66,7.08-49.41,8.29c-13.54,0.98-27.09,1-40.62,0.59
	c-26.2-0.78-52.22-3.37-77.25-11.86c-12.27-4.16-24.11-9.24-33.31-18.88c-0.58-0.61-1.02-1.36-1.52-2.04L505.27,1220.64z"/>
<path class="st0" d="M1708.63,1167.03c0-13.07,0.11-25.24-0.08-37.4c-0.05-3.04,0.92-3.9,3.74-3.58c3.16,0.36,7.4-1.36,9.22,0.75
	c1.57,1.82,0.55,5.92,0.55,9.01c0.03,14.93-0.07,29.87,0.09,44.8c0.03,2.86-0.77,3.86-3.5,3.36c-0.12-0.02-0.25-0.02-0.37,0
	c-11.04,1.9-19.53-2.18-27.5-9.86c-9.53-9.19-20.15-17.25-30.29-25.8c-0.81-0.69-1.55-1.49-3.08-1.63c0,7.29,0.03,14.47-0.01,21.65
	c-0.03,5.08-0.15,10.17-0.23,15.25c-5.18,0.89-10.39,0.16-15.59,0.39c-0.5,0.02-1.01-0.06-1.49,0.01c-1.97,0.3-2.51-0.51-2.5-2.47
	c0.07-17.67,0.07-35.34,0-53.02c-0.01-2.04,0.73-2.48,2.59-2.45c6.22,0.09,12.45,0.1,18.67,0c2.09-0.03,3.44,1.08,4.86,2.3
	C1678.43,1141.04,1693.17,1153.73,1708.63,1167.03z"/>
<path class="st0" d="M1809.52,1166.7c0-12.82,0.09-25.01-0.07-37.2c-0.04-2.78,0.63-3.76,3.48-3.48c3.2,0.31,7.43-0.99,9.38,0.63
	c2.06,1.71,0.62,6.08,0.64,9.28c0.06,14.93-0.04,29.87,0.09,44.81c0.02,2.57-0.56,3.64-3.24,3.27c-1.47-0.2-3.02-0.26-4.47,0
	c-8.64,1.56-14.91-2.3-21.11-7.89c-11.04-9.96-22.65-19.28-34.04-28.86c-0.37-0.31-0.83-0.5-1.39-0.83
	c-0.85,1.63-0.45,3.26-0.46,4.8c-0.04,9.96-0.09,19.91,0.03,29.87c0.03,2.26-0.55,3.02-2.89,2.93c-4.72-0.19-9.46-0.14-14.19-0.02
	c-1.97,0.05-2.82-0.3-2.8-2.57c0.1-17.55,0.11-35.1-0.01-52.65c-0.02-2.54,1-2.79,3.06-2.75c5.85,0.11,11.7,0.11,17.55,0
	c2.15-0.04,3.73,0.68,5.34,2.07c14.32,12.43,28.71,24.79,43.09,37.16C1807.95,1165.66,1808.47,1165.97,1809.52,1166.7z"/>
<path class="st0" d="M1156.44,1159.3c6.29,8.43,12.11,16.23,18.42,24.67c-9.32,0-17.95-0.01-26.58,0.01c-1.04,0-1.5-0.72-2.07-1.37
	c-9.54-11.05-19.08-22.1-29.26-33.89c9.05,0.79,17.29,0.27,25.51,0.66c3.97,0.19,8.87,1.6,11.59-0.33
	c2.42-1.72,0.67-6.95,0.74-10.63c0.13-6.32,0.04-6.3-6.37-5.52c-1.35,0.16-2.72,0.24-4.08,0.25c-13.31,0.13-26.61,0.31-39.92,0.3
	c-2.51,0-3.13,0.78-3.11,3.19c0.1,14.69-0.01,29.38,0.11,44.07c0.02,2.57-0.59,3.48-3.26,3.32c-3.85-0.23-7.72-0.23-11.57,0
	c-2.45,0.14-2.82-0.78-2.81-2.96c0.08-17.3,0.09-34.61,0-51.91c-0.01-2.38,0.55-3.15,3.06-3.14c25.27,0.09,50.54-0.04,75.82,0.1
	c10.31,0.06,12.4,4.64,12,12.17c-0.25,4.69-0.19,9.41,0.01,14.1c0.11,2.53-0.93,3.86-3.08,4.84c-2.29,1.05-4.68,1.74-7.14,2.01
	C1162.11,1159.49,1159.72,1159.3,1156.44,1159.3z"/>
<path class="st0" d="M2487.78,1166.66c0-6.35,0-11.91,0-17.47c0-6.72,0.08-13.44-0.04-20.16c-0.04-2.23,0.57-2.97,2.91-3.02
	c10.54-0.22,10.54-0.3,10.54,10.28c0,14.81-0.06,29.62,0.06,44.43c0.02,2.58-0.73,3.03-3.25,3.36c-10.96,1.44-19.53-1.98-27.59-9.77
	c-10.29-9.95-21.83-18.61-32.86-27.86c-1.04,1.31-0.6,2.6-0.6,3.78c-0.04,10.2-0.08,20.41,0.02,30.61c0.02,2.31-0.43,3.3-3.02,3.18
	c-4.72-0.22-9.46-0.12-14.18-0.04c-1.72,0.03-2.68-0.12-2.67-2.32c0.09-17.8,0.08-35.59,0.01-53.39c-0.01-1.89,0.73-2.26,2.41-2.24
	c6.35,0.07,12.69,0.06,19.04,0c1.52-0.01,2.48,0.69,3.56,1.62c13.81,11.89,27.67,23.73,41.52,35.57
	C2484.74,1164.2,2485.89,1165.12,2487.78,1166.66z"/>
<path class="st0" d="M1237.81,1186.96c-8.9-0.4-19.74,0.72-30.52-0.72c-2.62-0.35-5.11-1.04-7.4-2.34c-4.17-2.36-6.68-5.6-6.6-10.75
	c0.17-11.2,0.34-22.41-0.06-33.6c-0.22-6.16,2.52-9.88,7.52-12.47c4.46-2.3,9.18-3.67,14.28-3.66c17.18,0.05,34.35,0.05,51.53-0.01
	c2.65-0.01,5.21,0.36,7.74,1.01c9.91,2.52,13.74,8.75,11.68,18.72c-0.27,1.3-0.81,1.49-2.01,1.43c-3.48-0.16-6.97-0.35-10.44-0.15
	c-2.66,0.15-3.66-0.74-3.2-3.31c0.67-3.72-0.72-4.76-4.57-4.73c-16.54,0.13-33.09-0.05-49.63-0.32c-2.88-0.05-3.5,0.79-3.47,3.53
	c0.15,11.82,0.11,23.65,0.02,35.47c-0.02,2.19,0.44,3.02,2.85,2.99c17.41-0.22,34.83-0.32,52.25-0.37c1.94-0.01,2.78-0.61,2.56-2.57
	c-0.07-0.61-0.01-1.24-0.01-1.87c0.01-6.93,0.01-6.93,6.86-6.81c0.74,0.01,1.58-0.13,2.21,0.14c2.1,0.91,5.62-1.25,6.28,1.25
	c0.92,3.46,0.85,7.41-1.59,10.72c-3.63,4.92-8.7,7.22-14.55,7.96c-2.94,0.38-5.94,0.4-8.91,0.43
	C1253.65,1187,1246.68,1186.96,1237.81,1186.96z"/>
<path class="st0" d="M2569.22,1126.04c12.33,0,24.66,0.1,36.99-0.07c2.95-0.04,3.46,0.97,3.48,3.63c0.02,2.74-0.97,3.26-3.47,3.25
	c-21.29-0.09-42.59,0-63.88-0.11c-2.81-0.01-4.04,0.55-3.81,3.65c0.28,3.72,0.22,7.48,0.01,11.2c-0.15,2.64,0.43,3.53,3.38,3.61
	c16.68,0.41,33.36,0.16,50.03,0.28c5.1,0.04,10.19,0.31,15.29,0.34c1.73,0.01,2.42,0.44,2.39,2.29c-0.09,7.1,0.04,14.2-0.06,21.29
	c-0.05,3.75-4.47,7.8-8.21,7.84c-23.39,0.24-46.78,0.53-70.16,0.71c-4.48,0.03-8.77-0.8-10.98-5.45c-1.49-3.14-1-3.86,2.49-3.86
	c21.17-0.01,42.34-0.06,63.51,0.06c3.01,0.02,4.31-0.63,3.98-3.86c-0.28-2.71-0.22-5.49-0.01-8.21c0.19-2.52-0.48-3.38-3.2-3.38
	c-18.29,0.01-36.58-0.18-54.87-0.29c-7.09-0.04-9.45-1.82-11.36-8.72c-1.17-4.24-1.49-8.58-1.16-12.93
	c0.48-6.23,6.01-11.23,12.27-11.25C2544.31,1126.01,2556.76,1126.04,2569.22,1126.04z"/>
<path class="st0" d="M1346.9,1185.07c-5.98,0-11.96-0.04-17.93,0.01c-7.54,0.06-14.1-2.55-19.8-7.32c-4.23-3.54-6.3-8.29-6.34-13.77
	c-0.08-12.2,0.01-24.41-0.06-36.61c-0.01-1.87,0.32-2.79,2.45-2.37c3.16,0.63,6.37,1.04,9.34,2.42c5.15,2.38,7.74,6.33,7.69,12.06
	c-0.07,7.1-0.02,14.2-0.02,21.29c0,5.41,2.01,8.05,7.29,8.16c11.7,0.24,23.41,0.11,35.12,0.04c1.33-0.01,2.68-0.5,3.99-0.89
	c3.58-1.06,5.48-2.97,5.28-7.23c-0.45-9.56-0.39-19.15-0.44-28.72c-0.03-5.83,0.28-6.06,6.1-6.06c2.99,0,5.98,0.11,8.96-0.04
	c2-0.1,2.5,0.65,2.49,2.56c-0.07,12.33,0.22,24.66-0.13,36.98c-0.24,8.49-6.11,13.28-13.09,16.7c-4.03,1.98-8.42,2.87-12.98,2.81
	C1358.85,1185.01,1352.88,1185.07,1346.9,1185.07z"/>
<path class="st0" d="M1949.28,1145.67c0-5.48,0.16-10.97-0.07-16.44c-0.11-2.73,0.85-3.39,3.37-3.21c2.97,0.21,5.98,0.19,8.96,0
	c2.24-0.14,2.95,0.62,3.18,2.85c1.07,10.11,2.45,20.18,3.47,30.29c0.3,2.95,1.41,4.6,4.14,5.78c5.58,2.41,11.03,5.12,16.47,7.84
	c1.83,0.92,3.32,1.05,5.22,0.07c6.96-3.57,13.92-7.15,21.07-10.31c2.97-1.31,3.88-3.14,4.11-6.11c0.73-9.26,1.77-18.5,2.46-27.77
	c0.16-2.15,0.78-2.71,2.83-2.64c4.1,0.14,8.22,0.1,12.33,0.02c1.59-0.03,2.15,0.49,2.15,2.12c-0.05,11.33-0.06,22.67,0.01,34
	c0.01,1.54-0.75,2.13-1.91,2.79c-14.25,8.06-28.49,16.13-42.68,24.31c-1.86,1.07-3.1,0.62-4.72-0.35
	c-12.75-7.7-25.53-15.34-38.34-22.93c-1.59-0.94-2.15-2.04-2.11-3.87C1949.35,1156.63,1949.28,1151.15,1949.28,1145.67z"/>
<path class="st0" d="M1598.41,1135.62c0-10.45,0.12-20.9-0.07-31.34c-0.05-3.02,0.91-3.77,3.78-3.67c5.96,0.21,11.95,0.26,17.9-0.01
	c3.27-0.15,3.91,1.04,3.82,4.02c-0.21,6.58-0.1,13.18-0.06,19.77c0.11,18.52,0.14,37.04,0.49,55.56c0.07,3.62-1.14,4.29-4.33,4.08
	c-8.29-0.54-15.68-2.53-19.92-10.63c-1.2-2.28-1.61-4.65-1.61-7.18C1598.42,1156.01,1598.41,1145.82,1598.41,1135.62z"/>
<path class="st0" d="M1485.62,1126.04c14.82,0,29.64,0.07,44.46-0.06c2.84-0.03,3.85,0.59,3.74,3.64c-0.24,6.16-0.05,6.12-6.36,6.18
	c-7.83,0.07-15.66,0.35-23.49,0.28c-2.54-0.02-2.77,1-2.76,3.07c0.07,13.7-0.08,27.4,0.12,41.1c0.05,3.21-0.91,4.01-3.95,3.81
	c-4.09-0.27-8.22-0.22-12.32-0.01c-2.59,0.14-3.36-0.62-3.33-3.27c0.13-13.7-0.03-27.4,0.13-41.1c0.04-3.07-0.74-4-3.9-3.96
	c-12.45,0.19-24.91-0.02-37.36,0.15c-2.95,0.04-3.83-0.77-3.73-3.73c0.2-6.08,0.03-6.08,6.16-6.08
	C1457.23,1126.04,1471.42,1126.04,1485.62,1126.04z"/>
<path class="st0" d="M2211.49,1126.04c14.82,0,29.64,0.09,44.46-0.07c3.07-0.03,4.41,0.74,3.89,3.89c-0.12,0.73-0.11,1.51,0,2.24
	c0.54,3.45-1.14,4.17-4.27,4.1c-8.34-0.18-16.69,0.04-25.03-0.13c-2.57-0.05-3.34,0.56-3.31,3.24c0.15,13.82-0.01,27.65,0.14,41.47
	c0.03,2.65-0.69,3.38-3.29,3.25c-4.35-0.23-8.73-0.25-13.07,0.01c-2.76,0.16-3.21-0.85-3.19-3.35c0.12-13.82-0.02-27.65,0.13-41.47
	c0.03-2.77-0.63-3.55-3.47-3.51c-12.58,0.17-25.16,0-37.74,0.13c-2.77,0.03-3.92-0.45-3.79-3.59c0.25-6.2,0.05-6.21,6.33-6.21
	C2183.34,1126.04,2197.41,1126.04,2211.49,1126.04z"/>
<path class="st0" d="M1425.01,1155.04c0,8.58-0.11,17.17,0.07,25.75c0.06,2.7-0.81,3.39-3.36,3.23c-3.01-0.18-5.96-0.61-8.7-1.79
	c-5.27-2.28-8.24-6.26-8.2-12.14c0.1-13.8,0.3-27.6,0.33-41.39c0-2.16,0.67-2.76,2.75-2.7c4.6,0.13,9.21,0.18,13.81-0.01
	c2.58-0.11,3.42,0.64,3.37,3.31C1424.91,1137.87,1425.01,1146.46,1425.01,1155.04z"/>
<path class="st0" d="M2294.2,1154.65c0,8.58-0.08,17.16,0.05,25.74c0.04,2.34-0.68,2.91-2.95,2.88
	c-9.91-0.13-17.95-5.01-17.41-16.95c0.58-12.78,0.41-25.59,0.44-38.39c0-2.17,0.69-2.75,2.76-2.69c4.6,0.13,9.21,0.18,13.8-0.01
	c2.58-0.11,3.42,0.64,3.37,3.3C2294.1,1137.24,2294.2,1145.95,2294.2,1154.65z"/>
<path class="st0" d="M1065.88,1154.83c0,8.72-0.1,17.44,0.06,26.15c0.04,2.48-0.68,3.09-3.1,3.05
	c-10.05-0.19-17.67-5.58-17.22-16.88c0.5-12.55,0.41-25.13,0.42-37.7c0-2.5,0.53-3.56,3.27-3.43c4.47,0.22,8.97,0.24,13.44-0.01
	c2.8-0.15,3.22,0.96,3.18,3.41C1065.8,1137.89,1065.88,1146.36,1065.88,1154.83z"/>
<path class="st0" d="M553.69,800.21c-0.23,0.12-0.43,0.3-0.65,0.31c-0.18,0.01-0.37-0.19-0.56-0.29c0.2-0.11,0.39-0.31,0.59-0.32
	C553.27,799.91,553.47,800.1,553.69,800.21z"/>
<path class="st0" d="M831.48,1130.19c0.21-0.48,0.66-0.95,1.05-0.59c0.51,0.47,0.19,1.1-0.32,1.54
	C831.96,1130.82,831.72,1130.5,831.48,1130.19z"/>
<path class="st0" d="M453.48,856.25c-0.31,0.45-0.63,0.9-0.94,1.35c-0.23-0.29-0.46-0.58-0.68-0.87c0.37-0.32,0.73-0.63,1.1-0.95
	C453.11,855.95,453.29,856.11,453.48,856.25z"/>
<path class="st0" d="M452.95,855.78c0.09-0.32,0.25-0.67,0.61-0.39c0.12,0.09-0.05,0.56-0.09,0.86
	C453.29,856.11,453.11,855.95,452.95,855.78z"/>
<path class="st0" d="M505.37,1220.59c-0.13-0.17-0.25-0.34-0.38-0.51c0.12,0,0.24,0,0.36,0c-0.02,0.19-0.04,0.38-0.07,0.56
	C505.27,1220.64,505.37,1220.59,505.37,1220.59z"/>
<path class="st0" d="M742.8,1223.36c0.24-0.17,0.59-0.52,0.69-0.46c0.53,0.32,0.18,0.7-0.03,1.05
	C743.24,1223.75,743.02,1223.56,742.8,1223.36z"/>
<g>
	<g>
		<g>
			<path class="st1" d="M1509.52,750.87c372.42,0,744.84-0.02,1117.26,0.08c16.5,0,33,1.24,48.89,6.42
				c17.8,5.81,28.46,18.14,32.94,36.13c2.35,9.45,3.31,19.08,3.32,28.76c0.06,117.95,0.08,235.91-0.01,353.86
				c-0.01,13.56-1.62,26.98-5.8,39.99c-7.67,23.83-23.94,38.86-47.55,46.25c-13.12,4.11-26.65,6.01-40.35,6.03
				c-736.49,0.92-1472.97,0.19-2209.46,0.36c-21.21,0-42.43-0.71-63.27-5.48c-12.64-2.89-24.81-6.98-35.66-14.34
				c-16.13-10.96-24.78-26.67-28.65-45.36c-1.94-9.38-2.68-18.87-2.68-28.46c0.04-117.21-0.02-234.41,0.05-351.62
				c0.02-25.77,12.03-44.46,34.68-56.34c17.4-9.13,36.34-12.72,55.64-14.78c11.12-1.18,22.28-1.53,33.47-1.53
				C771.41,750.87,1140.47,750.87,1509.52,750.87z M452.95,855.78c-0.37,0.32-0.73,0.63-1.1,0.95
				c-13.49,11.5-25.53,24.34-35.81,38.79c-6.66,9.36-12.32,19.23-14.89,30.57c-2.22,9.84-2.04,19.31,5.42,27.23
				c2.81,2.98,5.68,5.97,8.86,8.54c12.52,10.12,26.92,16.74,42.05,21.84c37.78,12.75,76.99,16.45,116.5,17.86
				c13.91,0.5,27.84,0.72,41.78,0.09c14.52-0.66,29.07-0.75,43.58-1.6c22.4-1.31,44.79-3.02,67.06-5.91
				c29.44-3.82,58.67-8.6,86.74-18.73c11-3.97,21.67-8.67,30.59-16.52c2.19-1.93,4.03-4.11,3.85-7.27
				c-0.42-7.36-1.9-14.52-4.44-21.45c-5.86-15.97-15.17-29.81-26.3-42.49c-5.46-6.23-10.93-12.47-17.52-17.61
				c-0.59,0.78-0.27,1.36-0.1,1.93c2.43,8.06-0.03,14.91-5.32,20.98c-5.33,6.11-12.07,10.32-19.36,13.62
				c-17,7.7-35.07,11.46-53.38,14.34c-33.59,5.27-67.46,6.32-101.36,6.61c-15.01,0.13-30.04-0.35-45.05-1.33
				c-22.07-1.44-44-3.75-65.51-9.09c-15.99-3.97-31.51-9.16-44.81-19.37c-11.83-9.08-20.18-23.52-11.89-40.14
				c0.31-0.45,0.63-0.9,0.94-1.35c0.04-0.3,0.21-0.76,0.09-0.85C453.2,855.12,453.05,855.46,452.95,855.78z M742.8,1223.36
				c-4,1.31-7.93,2.89-12,3.9c-28.79,7.17-58.15,9.84-87.71,10.46c-24.59,0.51-49.13-0.94-73.55-3.76
				c-21.44-2.48-42.79-5.65-63.05-13.66c-0.51-0.2-0.94-0.2-1.22,0.35c0.02-0.19,0.04-0.38,0.07-0.56c-0.12,0-0.24,0-0.36,0
				c0.13,0.17,0.25,0.34,0.38,0.51c0.5,0.68,0.94,1.43,1.52,2.04c9.2,9.64,21.05,14.72,33.31,18.88
				c25.03,8.49,51.05,11.08,77.25,11.86c13.52,0.4,27.08,0.39,40.62-0.59c16.75-1.22,33.33-3.35,49.41-8.29
				c13.49-4.14,26.41-9.46,35.98-20.54c0.22-0.35,0.57-0.73,0.04-1.05C743.39,1222.84,743.04,1223.2,742.8,1223.36z M831.48,1130.19
				c-5.24,6.35-11.9,10.83-19.18,14.46c-17.6,8.78-36.5,13.36-55.67,16.95c-40.39,7.56-81.27,9.55-122.22,10.36
				c-27.34,0.54-54.66-0.3-81.92-2.89c-29.46-2.8-58.55-7.48-86.78-16.58c-19.46-6.27-38.08-14.33-54.18-27.28
				c-3.48-2.8-6.59-6.07-9.87-9.12c1.54,4.78,3.6,9.24,5.7,13.68c6.05,12.82,12.81,25.23,22.12,36.05
				c13.57,15.76,30.83,25.97,50.06,33.19c23.14,8.69,47.21,13.4,71.64,16.42c40.07,4.96,80.24,8.02,120.65,5.5
				c25.78-1.6,51.01-6.02,75.35-14.91c26.33-9.61,49.62-23.82,67.72-45.62c7.31-8.81,13.61-18.31,17.33-29.28
				c0.51-0.44,0.83-1.07,0.32-1.54C832.13,1129.24,831.68,1129.71,831.48,1130.19z M2024.91,974.97c2.96-1.88,5.33-3.24,7.54-4.83
				c7.05-5.08,10.89-11.87,10.22-20.72c-0.63-8.33-0.16-16.66-0.39-24.99c-0.07-2.34-0.29-4.71-0.78-7
				c-2.29-10.71-9.52-17.83-18.08-23.64c-15.9-10.81-34.12-14.16-52.82-14.24c-62.02-0.29-124.04-0.08-186.07-0.19
				c-3.4-0.01-4.24,0.86-4.24,4.25c0.11,62.4,0.08,124.79,0.08,187.19c0,0.62,0.07,1.25-0.01,1.87c-0.24,1.89,0.42,2.58,2.44,2.58
				c5.72-0.01,11.44,0.33,17.15,0.33c58.66,0.03,117.32,0.02,175.98,0.01c5.47,0,10.93,0.09,16.4-0.36
				c16.01-1.3,31.37-4.71,45.3-13.15c13.18-7.98,21.08-18.86,20.09-35.07c-0.44-7.2-0.25-14.45-0.03-21.67
				c0.28-9.49-4.07-16.36-11.44-21.76C2040.05,979.04,2032.83,977,2024.91,974.97z M861.85,995.61
				c-10.75,10.74-23.02,17.44-35.87,23.09c-33.15,14.58-68.29,21.5-103.93,26.24c-27.58,3.67-55.33,5.45-83.12,5.9
				c-25.98,0.42-51.98,0.36-77.95-1.3c-22.55-1.44-45-3.56-67.25-7.57c-24.02-4.34-47.54-10.39-69.33-21.79
				c-14.98-7.84-28.02-17.92-36.47-33.04c-2.7-4.83-4.37-10.09-6.46-15.98c-0.69,2.34-0.89,3.89-0.94,5.51
				c-0.19,7.08-0.47,14.15-0.73,21.23c-0.69,19.02-0.76,38.02,1.51,56.96c1.36,11.31,4.01,21.34,14.82,28.43
				c21.61,14.17,44.9,24.34,69.42,31.85c43.89,13.45,89.06,18.3,134.77,19.08c20.5,0.35,40.99-0.59,61.44-1.88
				c27.59-1.74,55.11-4.35,82.4-8.97c25.6-4.33,50.92-9.8,74.95-20.04c12.64-5.38,24.76-11.64,34.36-21.83
				c5.36-5.69,8.94-12.03,8.46-20.32c-0.4-6.95-0.08-13.95-0.08-20.92C861.85,1025.73,861.85,1011.18,861.85,995.61z
				 M1608.18,1075.6c29.14,0,58.29-0.02,87.43,0.02c3.99,0.01,7.95-0.19,11.88-0.78c15.49-2.32,26.28-10.29,31.05-25.66
				c2.9-9.35,3.93-18.95,4-28.64c0.1-14.31-0.14-28.63-0.14-42.94c0-14.43,0.22-28.87,0.14-43.3c-0.05-8.81-0.95-17.58-3.28-26.14
				c-3.46-12.72-10.79-21.97-23.66-26.1c-5.71-1.83-11.62-2.63-17.62-2.63c-59.91,0-119.81-0.01-179.72,0.01
				c-3.48,0-6.96,0.11-10.43,0.36c-19.45,1.4-33.61,12.39-39.84,30.78c-4.39,12.96-5.72,26.37-5.99,39.94
				c-0.48,24.22-1.49,48.48,2.26,72.56c1.69,10.85,4.5,21.4,10.53,30.75c9.96,15.43,25.02,21.49,42.59,21.67
				C1547.65,1075.83,1577.91,1075.6,1608.18,1075.6z M1056.48,883.18c-25.51,0.32-57.26-0.15-89.01,0.23
				c-21.15,0.26-39.96,6.33-56.8,19.04c-3.85,2.91-5.5,6.42-5.49,11.11c0.04,43.71,0.03,87.43,0.03,131.14
				c0,5.89,2.05,10.88,6.3,15.02c4.57,4.45,10.16,7.08,16.08,9.07c14.14,4.75,28.84,6.27,43.61,6.33
				c50.93,0.21,101.87,0.05,152.81,0.12c7.2,0.01,14.38,0.61,21.6,0c9.25-0.78,17.9-3.14,24.98-9.39c4.91-4.34,8.94-9.48,9.22-16.44
				c0.3-7.58,0.2-15.16,0.34-22.75c0.39-20.78,0.24-41.57,0.54-62.36c0.05-3.58-1.12-4.22-4.39-4.21
				c-58.16,0.09-116.32,0.07-174.48,0.07c-0.37,0-0.75,0.05-1.12-0.01c-2.86-0.44-3.27,0.9-2.86,3.42
				c0.89,5.45,3.27,10.1,6.98,14.11c8.29,8.96,18.77,14.07,30.36,17.19c14.23,3.83,28.83,4.77,43.46,5.2
				c7.84,0.23,15.69,0.04,23.54,0.04c2.81,0,4.34,0.64,4.2,4.21c-0.35,9.33-0.26,18.68-0.04,28.01c0.08,3.2-0.63,4.14-4.02,4.13
				c-41.35-0.13-82.69-0.13-124.04,0c-3.44,0.01-4.04-1.03-4.03-4.2c0.11-36.49,0.14-72.98-0.03-109.47
				c-0.02-3.86,1.03-4.65,4.73-4.64c56.39,0.16,112.77-0.07,169.16,0.75c11.53,0.17,23.08-0.7,34.38-3.42
				c4.46-1.07,4.72-1.64,3.38-6.17c-3.92-13.24-21.13-26.13-34.98-26.14C1121.49,883.17,1092.1,883.18,1056.48,883.18z
				 M2226.93,879.44c-36.74,0-73.48,0-110.22,0c-4.9,0-9.63,0.89-14.19,2.66c-9.58,3.73-14.24,10.57-14.24,20.83
				c0,23.79,0,47.57,0,71.36c0,32.38,0.05,64.76-0.08,97.14c-0.01,3.16,0.81,3.94,3.89,3.84c11.42-0.35,22.08-3.36,31.93-9
				c14.77-8.46,24.13-20.77,25.9-38.11c0.92-9.06,0.32-18.15,0.3-27.23c-0.01-3.03,0.62-3.9,3.81-3.89
				c48.57,0.12,97.14,0.11,145.71,0.01c3.08-0.01,3.88,0.69,3.86,3.82c-0.15,23.41,0.01,46.83-0.18,70.24
				c-0.03,3.57,1.1,4.22,4.34,4.16c9.71-0.17,19.42-0.02,29.13,0.05c8.09,0.06,16.17,0.18,24.26,0.24c2.92,0.02,4.11-1.04,4.1-4.41
				c-0.17-33.13-0.1-66.25-0.1-99.38c0-29.52-0.04-59.03,0.07-88.55c0.01-2.77-0.63-3.53-3.47-3.51
				c-10.57,0.08-21.14-0.24-31.71-0.26C2295.67,879.42,2261.3,879.44,2226.93,879.44z M1358.54,1075.21
				c25.9,0,51.81-0.04,77.71,0.05c2.63,0.01,3.73-0.38,3.4-3.39c-0.45-4.11-1.09-8.14-2.7-11.93c-6.53-15.37-19-24.47-33.52-31.22
				c-12.73-5.91-26.39-7.58-40.25-7.65c-25.41-0.11-50.81-0.03-76.22-0.03c-11.8,0-16.69-4.92-16.69-16.8
				c0-19.93,0.05-39.85-0.02-59.78c-0.04-9.32-1.69-18.29-7.07-26.18c-4.12-6.05-8.28-12.08-13.01-17.69
				c-7.83-9.3-17.44-15.2-29.78-16.53c-3.54-0.38-4.37,0.34-4.36,3.89c0.13,38.23,0.26,76.47,0.01,114.7
				c-0.14,21.29,6.71,39.34,22.39,53.99c12.72,11.89,27.59,18.42,45.02,18.52C1308.48,1075.32,1333.51,1075.21,1358.54,1075.21z
				 M2543.81,1075.21c25.53,0,51.07,0,76.6,0c0.87,0,1.75-0.05,2.61,0c1.47,0.09,1.92-0.5,1.8-1.99
				c-0.53-6.51-2.04-12.72-5.35-18.41c-6.35-10.88-15.88-18.28-26.79-24.05c-13.96-7.38-29.1-9.63-44.65-9.69
				c-25.41-0.09-50.82-0.03-76.23-0.03c-11.52,0-16.56-5.05-16.57-16.63c-0.01-20.3,0.05-40.6-0.03-60.91
				c-0.03-7.38-1.09-14.7-4.74-21.2c-4.69-8.35-10.28-16.16-16.67-23.29c-7.53-8.39-16.76-13.78-28.31-14.92
				c-3.46-0.34-4.5,0.16-4.49,3.83c0.12,39.23,0.05,78.47,0.09,117.7c0.01,12.25,2.51,24,9.02,34.48
				c13.72,22.08,33.08,34.92,59.71,35.06C2494.48,1075.31,2519.15,1075.21,2543.81,1075.21z M663.46,800.03
				c6.78,1.95,13.5,4,20.12,6.36c5.61,2,11.16,4.17,15.91,7.88c5.09,3.98,4.98,7.59-0.46,11.12c-3.56,2.31-7.48,3.91-11.52,5.17
				c-26.65,8.31-54.2,10.94-81.86,12.09c-17.1,0.71-34.21-1.15-51.11-4.05c-8.3-1.42-16.64-3.08-23.92-7.78
				c-5.88-3.8-6.56-8.28-2.01-13.64c5.49-6.47,12.89-10.35,20.13-14.4c1.04-0.58,2.45-0.77,3.16-2.48c-1,0.14-1.61,0.16-2.19,0.31
				c-12.14,3.12-24.03,6.97-35.39,12.32c-9.94,4.68-19.38,10.1-27.04,18.2c-7.92,8.38-7.86,14.99,0.27,23.16
				c5.89,5.92,13.18,9.64,20.64,13.05c13,5.95,26.28,11.39,40.42,13.64c29.35,4.69,58.92,6.23,88.65,5.21
				c14.28-0.49,28.51-1.32,42.67-3.12c22.55-2.87,44.96-6.56,66.13-15.32c8.63-3.57,17-7.74,22.35-15.99
				c3.34-5.15,2.94-8.09-1.1-12.55c-4.34-4.8-9.11-9.1-14.19-13.07C726.73,805.58,696.56,797.81,663.46,800.03z M963.66,1185.82
				c14.39,0,26.22,0.05,38.05-0.01c15.72-0.09,25.34-9.13,24.94-23.22c-0.05-1.93-0.32-2.94-2.62-2.93
				c-5.09,0.03-10.19-0.11-15.27-0.4c-1.87-0.11-2.36,0.43-2.3,2.18c0.1,3.24-0.08,6.48,0.06,9.71c0.09,2.09-0.58,2.78-2.73,2.8
				c-23.52,0.18-47.04,0.43-70.55,0.75c-2.17,0.03-2.7-0.7-2.67-2.77c0.19-16.67,0.32-33.35,0.35-50.02c0-2.28,0.93-2.73,2.9-2.63
				c3.84,0.21,7.69,0.39,11.54,0.4c17.44,0.04,34.87-0.01,52.31,0.04c2.83,0.01,6.33-1.16,8.29,0.55c1.69,1.47,0.54,4.96,0.48,7.54
				c-0.05,2.14,0.9,2.44,2.68,2.38c3.23-0.11,6.48-0.03,9.71-0.03c7.66,0,7.66,0,7.8-7.81c0.01-0.74,0.05-1.49,0.12-2.23
				c0.5-4.69-1.05-8.53-4.8-11.41c-6-4.61-13.11-6.05-20.35-6.11c-22.79-0.22-45.59-0.22-68.38,0c-7.95,0.08-15.37,2.58-21.89,7.33
				c-3.7,2.69-6.13,6.11-6.13,10.89c0,15.94-0.01,31.88,0.01,47.83c0.01,4.03,1.46,7.44,4.41,10.3c4.57,4.41,10.29,6.01,16.29,6.47
				C939.33,1186.42,952.79,1185.52,963.66,1185.82z M1885.76,1124.52c-12.18,0.34-24.37-0.41-36.55,0.43
				c-7.39,0.51-11.81,4.04-12.69,10.74c-1.42,10.75-1.47,21.56,0.57,32.25c2.19,11.49,8.3,16.37,19.94,16.39
				c15.18,0.02,30.37,0.03,45.55-0.01c5.59-0.01,11.21,0.12,16.77-0.34c7.56-0.62,10.55-4,11.62-11.55
				c0.75-5.23-0.12-10.41-0.03-15.61c0.12-6.83,0.37-13.67,0.36-20.5c-0.01-7.95-2.63-10.77-10.48-11.37
				C1909.15,1124.05,1897.45,1124.89,1885.76,1124.52z M2358.08,1124.51c-11.94,0.35-23.9-0.45-35.83,0.44
				c-8.29,0.61-12.02,3.79-13.06,11.95c-1.44,11.25-1.34,22.55,1.2,33.66c1.85,8.09,7.08,12.99,15.37,13.34
				c21.89,0.93,43.81,0.66,65.7,0.15c8.48-0.2,11.66-3.84,12.18-12.46c0.75-12.52-0.13-25.08,0.24-37.63c0.17-5.84-3.12-8.56-9.22-9
				C2382.47,1124.07,2370.27,1124.86,2358.08,1124.51z M2103.79,1125.33c-2.24,0-4.48,0-6.72,0c-9.71,0-19.42-0.06-29.12,0.02
				c-5.07,0.04-8.01,2.35-8.03,6.34c-0.06,16.55,0,33.11-0.06,49.66c-0.01,1.87,0.68,2.29,2.38,2.25
				c8.06-0.19,15.16-6.29,16.23-14.2c0.28-2.08,0.24-4.24,0.07-6.33c-0.18-2.19,0.69-2.7,2.75-2.69
				c13.19,0.08,26.39,0.11,39.58-0.02c2.67-0.03,3.04,1.06,2.99,3.31c-0.12,5.72,0.03,11.45-0.08,17.17
				c-0.04,2.08,0.6,2.86,2.74,2.79c4.23-0.14,8.47-0.2,12.69,0.02c2.69,0.14,3.31-0.84,3.29-3.39c-0.1-17.17-0.13-34.35,0.02-51.53
				c0.02-2.94-0.98-3.47-3.63-3.44C2127.19,1125.4,2115.49,1125.33,2103.79,1125.33z M1708.63,1167.03
				c-15.45-13.3-30.2-25.99-44.93-38.69c-1.42-1.22-2.77-2.33-4.86-2.3c-6.22,0.1-12.45,0.09-18.67,0c-1.86-0.03-2.6,0.41-2.59,2.45
				c0.08,17.67,0.07,35.34,0,53.02c-0.01,1.96,0.53,2.77,2.5,2.47c0.49-0.07,0.99,0.01,1.49-0.01c5.19-0.23,10.41,0.5,15.59-0.39
				c0.08-5.08,0.21-10.17,0.23-15.25c0.04-7.18,0.01-14.36,0.01-21.65c1.53,0.14,2.26,0.95,3.08,1.63
				c10.14,8.55,20.76,16.61,30.29,25.8c7.97,7.68,16.47,11.76,27.5,9.86c0.12-0.02,0.25-0.02,0.37,0c2.73,0.5,3.53-0.5,3.5-3.36
				c-0.16-14.93-0.06-29.87-0.09-44.8c-0.01-3.09,1.01-7.2-0.55-9.01c-1.82-2.11-6.06-0.39-9.22-0.75
				c-2.82-0.32-3.79,0.54-3.74,3.58C1708.74,1141.79,1708.63,1153.96,1708.63,1167.03z M1809.52,1166.7
				c-1.05-0.74-1.57-1.04-2.02-1.43c-14.38-12.37-28.77-24.73-43.09-37.16c-1.61-1.4-3.19-2.11-5.34-2.07
				c-5.85,0.11-11.7,0.1-17.55,0c-2.06-0.04-3.08,0.21-3.06,2.75c0.12,17.55,0.11,35.1,0.01,52.65c-0.01,2.27,0.84,2.63,2.8,2.57
				c4.73-0.12,9.46-0.17,14.19,0.02c2.34,0.09,2.92-0.67,2.89-2.93c-0.12-9.96-0.07-19.91-0.03-29.87c0.01-1.54-0.39-3.17,0.46-4.8
				c0.56,0.33,1.03,0.52,1.39,0.83c11.38,9.58,23,18.9,34.04,28.86c6.2,5.59,12.47,9.45,21.11,7.89c1.45-0.26,3-0.2,4.47,0
				c2.68,0.37,3.26-0.7,3.24-3.27c-0.13-14.93-0.03-29.87-0.09-44.81c-0.01-3.2,1.43-7.58-0.64-9.28c-1.95-1.61-6.18-0.31-9.38-0.63
				c-2.85-0.28-3.51,0.71-3.48,3.48C1809.61,1141.69,1809.52,1153.88,1809.52,1166.7z M1156.44,1159.3c3.28,0,5.67,0.2,8-0.05
				c2.45-0.27,4.85-0.96,7.14-2.01c2.15-0.98,3.19-2.32,3.08-4.84c-0.2-4.69-0.26-9.41-0.01-14.1c0.4-7.53-1.69-12.12-12-12.17
				c-25.27-0.14-50.54-0.01-75.82-0.1c-2.51-0.01-3.07,0.76-3.06,3.14c0.09,17.3,0.09,34.61,0,51.91c-0.01,2.18,0.36,3.11,2.81,2.96
				c3.85-0.23,7.73-0.23,11.57,0c2.67,0.16,3.28-0.76,3.26-3.32c-0.12-14.69-0.01-29.38-0.11-44.07c-0.02-2.42,0.61-3.2,3.11-3.19
				c13.31,0.01,26.61-0.17,39.92-0.3c1.36-0.01,2.73-0.08,4.08-0.25c6.41-0.78,6.5-0.79,6.37,5.52c-0.08,3.68,1.67,8.91-0.74,10.63
				c-2.71,1.93-7.62,0.52-11.59,0.33c-8.22-0.39-16.46,0.13-25.51-0.66c10.18,11.79,19.72,22.84,29.26,33.89
				c0.57,0.66,1.03,1.38,2.07,1.37c8.63-0.02,17.27-0.01,26.58-0.01C1168.55,1175.52,1162.73,1167.72,1156.44,1159.3z
				 M2487.78,1166.66c-1.88-1.55-3.04-2.46-4.16-3.42c-13.85-11.84-27.71-23.68-41.52-35.57c-1.09-0.93-2.04-1.64-3.56-1.62
				c-6.35,0.06-12.69,0.07-19.04,0c-1.68-0.02-2.42,0.35-2.41,2.24c0.06,17.8,0.08,35.59-0.01,53.39c-0.01,2.2,0.95,2.35,2.67,2.32
				c4.73-0.08,9.46-0.19,14.18,0.04c2.59,0.12,3.04-0.86,3.02-3.18c-0.11-10.2-0.06-20.41-0.02-30.61c0-1.18-0.43-2.47,0.6-3.78
				c11.03,9.25,22.57,17.91,32.86,27.86c8.05,7.79,16.63,11.21,27.59,9.77c2.53-0.33,3.28-0.78,3.25-3.36
				c-0.12-14.81-0.06-29.62-0.06-44.43c0-10.58,0-10.5-10.54-10.28c-2.33,0.05-2.95,0.79-2.91,3.02c0.12,6.72,0.04,13.44,0.04,20.16
				C2487.78,1154.76,2487.78,1160.32,2487.78,1166.66z M1237.81,1186.96c8.87,0,15.84,0.04,22.81-0.02
				c2.97-0.02,5.97-0.05,8.91-0.43c5.84-0.75,10.92-3.05,14.55-7.96c2.45-3.31,2.52-7.26,1.59-10.72c-0.67-2.5-4.19-0.35-6.28-1.25
				c-0.64-0.28-1.47-0.13-2.21-0.14c-6.85-0.13-6.85-0.12-6.86,6.81c0,0.62-0.06,1.25,0.01,1.87c0.23,1.96-0.62,2.56-2.56,2.57
				c-17.42,0.06-34.83,0.15-52.25,0.37c-2.41,0.03-2.87-0.79-2.85-2.99c0.1-11.82,0.13-23.65-0.02-35.47
				c-0.03-2.73,0.59-3.57,3.47-3.53c16.54,0.27,33.09,0.45,49.63,0.32c3.85-0.03,5.24,1.01,4.57,4.73c-0.46,2.57,0.54,3.46,3.2,3.31
				c3.47-0.2,6.96-0.02,10.44,0.15c1.21,0.06,1.75-0.13,2.01-1.43c2.06-9.97-1.76-16.2-11.68-18.72c-2.53-0.64-5.09-1.02-7.74-1.01
				c-17.18,0.06-34.35,0.06-51.53,0.01c-5.1-0.01-9.82,1.36-14.28,3.66c-5.01,2.58-7.75,6.31-7.52,12.47
				c0.41,11.19,0.23,22.4,0.06,33.6c-0.08,5.15,2.44,8.39,6.6,10.75c2.3,1.3,4.79,1.99,7.4,2.34
				C1218.07,1187.68,1228.91,1186.56,1237.81,1186.96z M2569.22,1126.04c-12.45,0-24.91-0.03-37.36,0.01
				c-6.27,0.02-11.79,5.02-12.27,11.25c-0.34,4.35-0.02,8.69,1.16,12.93c1.91,6.9,4.27,8.68,11.36,8.72
				c18.29,0.11,36.58,0.3,54.87,0.29c2.72,0,3.39,0.86,3.2,3.38c-0.21,2.72-0.27,5.5,0.01,8.21c0.33,3.23-0.96,3.88-3.98,3.86
				c-21.17-0.13-42.34-0.07-63.51-0.06c-3.49,0-3.98,0.72-2.49,3.86c2.21,4.65,6.5,5.49,10.98,5.45
				c23.39-0.18,46.78-0.47,70.16-0.71c3.73-0.04,8.15-4.09,8.21-7.84c0.1-7.1-0.02-14.2,0.06-21.29c0.02-1.85-0.66-2.28-2.39-2.29
				c-5.1-0.02-10.19-0.3-15.29-0.34c-16.68-0.12-33.35,0.13-50.03-0.28c-2.95-0.07-3.53-0.97-3.38-3.61
				c0.21-3.72,0.26-7.48-0.01-11.2c-0.23-3.1,1.01-3.66,3.81-3.65c21.29,0.11,42.59,0.02,63.88,0.11c2.5,0.01,3.49-0.51,3.47-3.25
				c-0.02-2.66-0.53-3.67-3.48-3.63C2593.88,1126.14,2581.55,1126.04,2569.22,1126.04z M1346.9,1185.07
				c5.98,0,11.96-0.06,17.93,0.02c4.56,0.06,8.96-0.83,12.98-2.81c6.98-3.43,12.85-8.21,13.09-16.7
				c0.34-12.32,0.05-24.65,0.13-36.98c0.01-1.91-0.49-2.66-2.49-2.56c-2.98,0.15-5.98,0.04-8.96,0.04c-5.82,0-6.13,0.23-6.1,6.06
				c0.05,9.58-0.02,19.16,0.44,28.72c0.2,4.27-1.7,6.17-5.28,7.23c-1.31,0.39-2.66,0.88-3.99,0.89c-11.71,0.07-23.41,0.2-35.12-0.04
				c-5.28-0.11-7.29-2.74-7.29-8.16c0-7.1-0.05-14.2,0.02-21.29c0.05-5.73-2.54-9.68-7.69-12.06c-2.97-1.38-6.18-1.79-9.34-2.42
				c-2.13-0.42-2.46,0.5-2.45,2.37c0.07,12.2-0.02,24.41,0.06,36.61c0.04,5.49,2.11,10.23,6.34,13.77
				c5.69,4.77,12.26,7.38,19.8,7.32C1334.94,1185.03,1340.92,1185.07,1346.9,1185.07z M1949.28,1145.67
				c0,5.48,0.08,10.96-0.04,16.44c-0.04,1.83,0.52,2.93,2.11,3.87c12.81,7.59,25.59,15.23,38.34,22.93
				c1.61,0.97,2.86,1.42,4.72,0.35c14.18-8.18,28.43-16.25,42.68-24.31c1.17-0.66,1.92-1.25,1.91-2.79
				c-0.07-11.33-0.06-22.67-0.01-34c0.01-1.63-0.55-2.16-2.15-2.12c-4.11,0.08-8.22,0.13-12.33-0.02c-2.05-0.07-2.67,0.49-2.83,2.64
				c-0.69,9.26-1.73,18.5-2.46,27.77c-0.23,2.97-1.14,4.79-4.11,6.11c-7.15,3.16-14.11,6.74-21.07,10.31
				c-1.9,0.97-3.39,0.84-5.22-0.07c-5.44-2.72-10.89-5.43-16.47-7.84c-2.73-1.18-3.84-2.83-4.14-5.78
				c-1.02-10.11-2.41-20.18-3.47-30.29c-0.24-2.23-0.95-2.99-3.18-2.85c-2.98,0.19-5.99,0.21-8.96,0c-2.52-0.18-3.48,0.48-3.37,3.21
				C1949.43,1134.71,1949.28,1140.19,1949.28,1145.67z M1598.41,1135.62c0,10.2,0.01,20.4-0.01,30.6c-0.01,2.53,0.41,4.89,1.61,7.18
				c4.24,8.1,11.63,10.09,19.92,10.63c3.19,0.21,4.4-0.46,4.33-4.08c-0.34-18.52-0.37-37.04-0.49-55.56
				c-0.04-6.59-0.15-13.19,0.06-19.77c0.1-2.98-0.55-4.17-3.82-4.02c-5.96,0.27-11.94,0.22-17.9,0.01c-2.87-0.1-3.83,0.65-3.78,3.67
				C1598.53,1114.72,1598.41,1125.17,1598.41,1135.62z M1485.62,1126.04c-14.2,0-28.39,0-42.59,0c-6.13,0-5.96,0.01-6.16,6.08
				c-0.1,2.96,0.78,3.77,3.73,3.73c12.45-0.16,24.91,0.04,37.36-0.15c3.16-0.05,3.93,0.89,3.9,3.96c-0.16,13.7,0,27.4-0.13,41.1
				c-0.03,2.65,0.74,3.41,3.33,3.27c4.1-0.21,8.23-0.26,12.32,0.01c3.04,0.2,3.99-0.59,3.95-3.81c-0.2-13.7-0.05-27.4-0.12-41.1
				c-0.01-2.07,0.22-3.09,2.76-3.07c7.83,0.08,15.66-0.2,23.49-0.28c6.32-0.06,6.13-0.02,6.36-6.18c0.12-3.05-0.9-3.66-3.74-3.64
				C1515.26,1126.11,1500.44,1126.04,1485.62,1126.04z M2211.49,1126.04c-14.07,0-28.15,0-42.22,0c-6.28,0-6.07,0.01-6.33,6.21
				c-0.13,3.14,1.02,3.62,3.79,3.59c12.58-0.13,25.16,0.04,37.74-0.13c2.84-0.04,3.5,0.73,3.47,3.51
				c-0.15,13.82-0.01,27.65-0.13,41.47c-0.02,2.5,0.43,3.51,3.19,3.35c4.34-0.25,8.72-0.23,13.07-0.01c2.61,0.14,3.32-0.6,3.29-3.25
				c-0.14-13.82,0.01-27.65-0.14-41.47c-0.03-2.68,0.73-3.29,3.31-3.24c8.34,0.17,16.69-0.06,25.03,0.13
				c3.13,0.07,4.81-0.65,4.27-4.1c-0.11-0.73-0.12-1.51,0-2.24c0.52-3.16-0.82-3.93-3.89-3.89
				C2241.13,1126.13,2226.31,1126.04,2211.49,1126.04z M1425.01,1155.04c0-8.58-0.1-17.17,0.06-25.75c0.05-2.66-0.79-3.42-3.37-3.31
				c-4.59,0.19-9.21,0.15-13.81,0.01c-2.08-0.06-2.74,0.54-2.75,2.7c-0.03,13.8-0.23,27.6-0.33,41.39
				c-0.04,5.89,2.92,9.87,8.2,12.14c2.75,1.18,5.69,1.61,8.7,1.79c2.55,0.16,3.42-0.54,3.36-3.23
				C1424.9,1172.21,1425.01,1163.63,1425.01,1155.04z M2294.2,1154.65c0-8.7-0.1-17.41,0.06-26.11c0.05-2.67-0.79-3.41-3.37-3.3
				c-4.59,0.19-9.2,0.15-13.8,0.01c-2.07-0.06-2.75,0.52-2.76,2.69c-0.02,12.8,0.14,25.61-0.44,38.39
				c-0.54,11.94,7.5,16.82,17.41,16.95c2.27,0.03,2.98-0.54,2.95-2.88C2294.11,1171.82,2294.2,1163.23,2294.2,1154.65z
				 M1065.88,1154.83c0-8.47-0.09-16.94,0.05-25.41c0.04-2.45-0.38-3.56-3.18-3.41c-4.47,0.25-8.97,0.22-13.44,0.01
				c-2.73-0.13-3.26,0.92-3.27,3.43c-0.01,12.57,0.07,25.15-0.42,37.7c-0.45,11.3,7.17,16.69,17.22,16.88
				c2.41,0.05,3.14-0.57,3.1-3.05C1065.79,1172.26,1065.88,1163.54,1065.88,1154.83z M553.69,800.21c-0.22-0.11-0.42-0.3-0.62-0.3
				c-0.2,0-0.39,0.2-0.59,0.32c0.19,0.11,0.38,0.3,0.56,0.29C553.26,800.52,553.47,800.33,553.69,800.21z"/>
			<path class="st1" d="M1918.98,1031.51c-24.39,0-48.79-0.05-73.18,0.07c-2.77,0.01-3.54-0.62-3.48-3.45
				c0.21-8.71,0.14-17.42,0.03-26.13c-0.03-2.13,0.62-2.68,2.7-2.67c49.41,0.06,98.82,0.06,148.22-0.02c2.53,0,2.79,0.99,2.77,3.06
				c-0.09,8.59-0.17,17.18,0.04,25.76c0.07,2.88-0.82,3.45-3.55,3.44C1968.02,1031.47,1943.5,1031.51,1918.98,1031.51z"/>
			<path class="st1" d="M1911.51,955.28c-21.91,0-43.82-0.06-65.73,0.07c-2.8,0.02-3.52-0.67-3.46-3.47
				c0.2-8.58,0.12-17.18,0.03-25.77c-0.02-2.05,0.17-3.05,2.72-3.04c44.32,0.09,88.63,0.08,132.95,0.02c2.11,0,2.71,0.59,2.69,2.69
				c-0.11,8.84-0.15,17.68,0.02,26.51c0.05,2.51-0.75,3.04-3.12,3.03C1955.58,955.24,1933.55,955.28,1911.51,955.28z"/>
			<path class="st1" d="M1606.2,1031.51c-22.16,0-44.32-0.06-66.47,0.07c-2.88,0.02-3.46-0.81-3.46-3.53
				c0.09-33.86,0.1-67.72-0.01-101.58c-0.01-2.94,0.93-3.4,3.59-3.4c44.44,0.08,88.88,0.09,133.32-0.02
				c2.92-0.01,3.39,0.87,3.38,3.53c-0.09,33.86-0.1,67.72,0.01,101.58c0.01,2.89-0.82,3.42-3.52,3.4
				C1650.76,1031.46,1628.48,1031.51,1606.2,1031.51z"/>
			<path class="st1" d="M2226.87,956.03c-24.39,0-48.79-0.05-73.18,0.07c-2.82,0.01-3.51-0.71-3.45-3.48
				c0.2-8.58,0.15-17.17,0.02-25.76c-0.04-2.43,0.36-3.44,3.16-3.44c49.03,0.09,98.07,0.08,147.1,0.01c2.51,0,3.09,0.77,3.06,3.16
				c-0.14,8.83-0.17,17.67,0.01,26.51c0.05,2.61-0.9,2.98-3.18,2.97C2275.9,956,2251.39,956.03,2226.87,956.03z"/>
		</g>
		<path class="st1" d="M1886.5,1134.64c6.97,0,13.93,0.08,20.9-0.05c2.16-0.04,2.74,0.66,2.7,2.74c-0.21,11.3-0.34,22.61-0.39,33.91
			c-0.01,1.8-0.54,2.3-2.32,2.3c-14.43-0.06-28.86-0.06-43.29,0c-1.78,0.01-2.34-0.5-2.31-2.3c0.19-11.43,0.33-22.87,0.33-34.3
			c0-2.24,1.03-2.34,2.73-2.33C1872.07,1134.68,1879.29,1134.64,1886.5,1134.64z"/>
		<path class="st1" d="M2358.37,1176.9c-6.96,0-13.93-0.08-20.89,0.04c-2.22,0.04-3.03-0.54-3.01-2.9c0.1-13.05,0.1-26.11,0-39.17
			c-0.02-2.35,0.78-2.92,3-2.91c14.05,0.08,28.1,0.08,42.15,0.01c2.05-0.01,2.83,0.53,2.82,2.71c-0.08,13.18-0.08,26.36,0,39.54
			c0.01,2.17-0.75,2.75-2.81,2.72C2372.54,1176.83,2365.46,1176.9,2358.37,1176.9z"/>
	</g>
	<path class="st1" d="M2101.29,1138.73c6.47,0,12.95,0.11,19.42-0.05c2.46-0.06,3.19,0.65,3.16,3.14c-0.06,6.29,0.06,6.29-6.23,6.29
		c-11.95,0-23.91-0.08-35.86,0.07c-2.61,0.03-3.35-0.62-3.28-3.26c0.17-6.17,0.02-6.17,6.35-6.17
		C2090.33,1138.73,2095.81,1138.73,2101.29,1138.73z"/>
</g>
<g>
</g>
<g>
</g>
<g>
</g>
<g>
</g>
<g>
</g>
<g>
</g>
<g>
</g>
<g>
</g>
<g>
</g>
<g>
</g>
<g>
</g>
<g>
</g>
<g>
</g>
<g>
</g>
<g>
</g>
</svg>
